<?xml version="1.0" encoding="utf-8"?>
<!-- Generator: Adobe Illustrator 21.1.0, SVG Export Plug-In . SVG Version: 6.00 Build 0)  -->
<svg version="1.1" id="Layer_1" xmlns="http://www.w3.org/2000/svg" xmlns:xlink="http://www.w3.org/1999/xlink" x="0px" y="0px"
	 viewBox="0 0 595.3 841.9" style="enable-background:new 0 0 595.3 841.9;" xml:space="preserve">
<style type="text/css">
	.st0{fill:none;stroke:#FFFFFF;stroke-width:2;stroke-miterlimit:10;}
	.st1{fill:none;stroke:#FFFFFF;stroke-width:2;stroke-linecap:round;stroke-linejoin:round;stroke-miterlimit:10;}
	.st2{fill:none;stroke:#FFFFFF;stroke-width:2;stroke-linecap:round;stroke-miterlimit:10;}
</style>
<g id="Layer_2">
	<ellipse id="Clock_circle" class="st0" cx="301.7" cy="483.3" rx="145.7" ry="143.3"/>
	<ellipse id="Clock_face_circle" class="st0" cx="303.1" cy="484" rx="132.2" ry="129.2"/>
	<path id="Clock_circle_2" class="st0" d="M287.8,625.9c-136.2-12.7-139.2-125.7-139.2-125.7c-9.6-101.6,83.3-142.6,83.3-142.6"/>
	<g>
		<line class="st0" x1="218.8" y1="345.4" x2="226.9" y2="360.1"/>
		<line class="st0" x1="208.8" y1="350.1" x2="217.9" y2="365.3"/>
	</g>
	<g id="Right_bell_and_bridge">
		<path id="Left_bell" class="st0" d="M267.6,318.9c-32.2,19.4-112.5,57.9-112.5,57.9s-18.3-32.4,10.2-49.7
			c23.3-14.2,46-24.6,53.6-28c2.2-1,4.5-1.7,6.8-2.2c7.2-1.5,20.6-1.9,29.3,5.3C259.3,305.7,267.7,318.9,267.6,318.9z"/>
		<path class="st0" d="M364.7,348c-12.3-5.2-45.3-27.9-45.3-27.9c-2-2.5,7.2-0.4,7.2-0.4c51.2,12.2,104,55.5,104,55.5
			s6.7-11,6.1-27.9c-0.6-16.8-28.6-31.6-28.6-31.6c0.2-0.4,0.1-1-0.2-1.5c-0.4-0.9-1.3-1.7-2.2-2.2l-18.8-10
			c-13.8-5.7-12.4-35.7-12.4-35.7c-0.1-4.7-0.9-8.8-2.2-12.3c-3.2-8.8-10.2-15.7-18.9-19.1c-32-12.4-65.6-10.5-65.6-10.5
			s-26.3,0.7-51.9,9.2s-23.8,30.9-24,45.4c-0.2,14.5-9.8,22-9.8,22s-25.1,13.3-24.7,14.9c0.4,1.6,4.7,1.6,4.7,1.6"/>
		<path class="st0" d="M372.9,299.5l-3-2c-4.7-2.6-6-22.8-6.4-31.7c-0.2-4.6-1.4-9.2-3.8-13.2c-1.7-2.9-4-5.6-7.1-6.8
			c-8-3.2-32.4-9.9-60.2-9.5s-47.8,6-57.7,9.9s-12.9,16.1-11.8,30.3c1,14.2-7.6,24.3-7.6,24.3"/>
		<path class="st0" d="M319.4,319.2l2.2-5.9c11.1-23.1,31.9-18.6,31.9-18.6c26.6,3.8,54.6,21.1,54.6,21.1"/>
		<path class="st0" d="M374.8,353.5c40.1,23.1,55.8,21.8,55.8,21.8"/>
	</g>
	<g>
		<line class="st0" x1="381" y1="341.8" x2="372" y2="357.8"/>
		<line class="st0" x1="371" y1="336.9" x2="362" y2="352.8"/>
	</g>
	<g id="Hammer">
		<line class="st0" x1="284.2" y1="310" x2="286.9" y2="340.8"/>
		<line class="st0" x1="289.7" y1="340.5" x2="287.1" y2="309.6"/>
		<path class="st1" d="M296.1,296.5c-0.3-0.2-0.7-0.3-1.1-0.3l-23.6,2c-0.5,0-0.9,0.2-1.1,0.6c-3.6,5.8-0.3,9.9,1.3,11.4
			c0.5,0.4,1,0.5,1.6,0.5c4.3-0.3,24.2-1.9,24.3-2.2C300.9,301.3,297.5,297.6,296.1,296.5z"/>
		<path class="st1" d="M273.3,308.8c1.9-5.7-1-9.1-0.6-8.4"/>
	</g>
	<circle id="Arm_inner_circle" class="st0" cx="306.1" cy="478.4" r="7.7"/>
	<circle id="Arm_outer_circle" class="st0" cx="305.4" cy="478.4" r="12"/>
	<path id="Short_arm" class="st0" d="M293.5,477.3l-35.9-7.9c-0.1,0-0.2-0.1-0.3-0.1l-26.7-11.5c-0.5-0.2-0.8-0.8-0.6-1.3l0.2-0.7
		c0.2-0.5,0.7-0.8,1.2-0.7l27.8,4.4c0.1,0.1,0.2,0.1,0.3,0.1l36,12"/>
	<path id="Long_arm" class="st0" d="M306.8,490.2l12,37.5c0,0.1,0.1,0.2,0.1,0.3l19.9,45.3c0.3,0.6,0.9,0.8,1.5,0.6h0.1
		c0.5-0.2,0.8-0.8,0.6-1.3l-13.6-46v-0.1l-14.9-38.4"/>
	<g id="Face">
		<line class="st2" x1="302.8" y1="365" x2="302.8" y2="400.6"/>
		<line class="st2" x1="352.6" y1="395.9" x2="362.6" y2="380.4"/>
		<line class="st2" x1="388.9" y1="431.8" x2="405.8" y2="424.7"/>
		<line class="st2" x1="422.1" y1="484" x2="386.5" y2="484"/>
		<line class="st2" x1="220.6" y1="484.1" x2="185.1" y2="484.1"/>
		<line class="st2" x1="303.9" y1="603.7" x2="303.9" y2="568.2"/>
		<line class="st2" x1="200" y1="543.2" x2="217" y2="536.1"/>
		<line class="st2" x1="200.4" y1="424.8" x2="216.6" y2="433.6"/>
		<line class="st2" x1="252.1" y1="398" x2="243.8" y2="381.6"/>
		<line class="st2" x1="244.2" y1="587.1" x2="253.9" y2="571.5"/>
		<line class="st2" x1="406.3" y1="543.3" x2="390.8" y2="533.4"/>
		<line class="st2" x1="363" y1="586.4" x2="353.9" y2="570.4"/>
		<ellipse class="st0" cx="303.9" cy="484.2" rx="120" ry="119.6"/>
	</g>
	<path id="Left_leg" class="st0" d="M210.6,602.2l-14.1,28.6c-2.4,4.9,1.2,10.6,6.6,10.6l0,0c4.8,0,9.2-2.8,11.4-7.1l11.9-23.8"/>
	<path id="Right_leg" class="st0" d="M383.6,602.2L395,625c2.4,4.9-1.2,10.6-6.6,10.6l0,0c-4.8,0-9.2-2.8-11.4-7.1l-9.1-18"/>
</g>
</svg>
