<?xml version="1.0" encoding="utf-8"?>
<!-- Generator: Adobe Illustrator 16.0.0, SVG Export Plug-In . SVG Version: 6.00 Build 0)  -->
<!DOCTYPE svg PUBLIC "-//W3C//DTD SVG 1.1//EN" "http://www.w3.org/Graphics/SVG/1.1/DTD/svg11.dtd">
<svg version="1.1" id="Layer_1" xmlns="http://www.w3.org/2000/svg" xmlns:xlink="http://www.w3.org/1999/xlink" x="0px" y="0px"
	 width="595.279px" height="841.891px" viewBox="0 0 595.279 841.891" enable-background="new 0 0 595.279 841.891"
	 xml:space="preserve">
<g id="Layer_1_1_" display="none">
</g>
<g>
	<g id="Layer_2">
		
			<ellipse fill="#FFFFFF" stroke="#FFFFFF" stroke-width="3" stroke-miterlimit="10" cx="312.573" cy="529.112" rx="145.695" ry="143.295"/>
		
			<ellipse fill="#FFFFFF" stroke="#FFFFFF" stroke-width="3" stroke-miterlimit="10" cx="313.974" cy="529.912" rx="132.195" ry="129.196"/>
		<path fill="#FFFFFF" stroke="#FFFFFF" stroke-width="3" stroke-miterlimit="10" d="M298.573,671.707
			c-136.195-12.699-139.195-125.696-139.195-125.696c-9.6-101.597,83.297-142.595,83.297-142.595"/>
		
			<line fill="#FFFFFF" stroke="#FFFFFF" stroke-width="3" stroke-miterlimit="10" x1="229.576" y1="391.316" x2="237.676" y2="405.916"/>
		
			<line fill="#FFFFFF" stroke="#FFFFFF" stroke-width="3" stroke-miterlimit="10" x1="219.576" y1="396.016" x2="228.677" y2="411.216"/>
		<path fill="#FFFFFF" stroke="#FFFFFF" stroke-width="3" stroke-miterlimit="10" d="M278.474,364.817
			c-32.199,19.399-112.496,57.897-112.496,57.897s-18.3-32.398,10.199-49.698c23.3-14.2,45.999-24.599,53.599-27.999
			c2.2-1,4.5-1.7,6.8-2.2c7.199-1.5,20.6-1.9,29.299,5.3C270.075,351.518,278.474,364.817,278.474,364.817z"/>
		<path fill="#FFFFFF" stroke="#FFFFFF" stroke-width="3" stroke-miterlimit="10" d="M375.47,393.816
			c-12.299-5.2-45.297-27.899-45.297-27.899c-2-2.5,7.199-0.4,7.199-0.4c51.197,12.2,103.996,55.499,103.996,55.499
			s6.699-11,6.1-27.899c-0.6-16.799-28.598-31.599-28.598-31.599c0.199-0.4,0.1-1-0.201-1.5c-0.4-0.9-1.299-1.7-2.199-2.2
			l-18.799-10c-13.801-5.7-12.4-35.699-12.4-35.699c-0.1-4.7-0.9-8.8-2.199-12.3c-3.201-8.8-10.201-15.699-18.9-19.099
			c-31.998-12.4-65.598-10.5-65.598-10.5s-26.299,0.7-51.898,9.2c-25.6,8.5-23.799,30.899-23.999,45.398c-0.2,14.5-9.8,22-9.8,22
			s-25.1,13.299-24.699,14.899c0.399,1.6,4.7,1.6,4.7,1.6"/>
		<path fill="#FFFFFF" stroke="#FFFFFF" stroke-width="3" stroke-miterlimit="10" d="M383.671,345.318l-3-2
			c-4.701-2.6-6-22.799-6.4-31.699c-0.199-4.6-1.4-9.2-3.799-13.2c-1.701-2.9-4-5.6-7.1-6.8c-8-3.2-32.301-10-60.199-9.5
			c-27.798,0.4-47.798,6.1-57.698,9.899c-9.899,3.9-12.899,16.1-11.8,30.299c1,14.2-7.6,24.299-7.6,24.299"/>
		<path fill="#FFFFFF" stroke="#FFFFFF" stroke-width="3" stroke-miterlimit="10" d="M330.173,365.017l2.199-5.9
			c11.1-23.099,31.898-18.599,31.898-18.599c26.6,3.8,54.6,21.099,54.6,21.099"/>
		<path fill="#FFFFFF" stroke="#FFFFFF" stroke-width="3" stroke-miterlimit="10" d="M385.572,399.416
			c40.098,23.1,55.797,21.799,55.797,21.799"/>
		
			<line fill="#FFFFFF" stroke="#FFFFFF" stroke-width="3" stroke-miterlimit="10" x1="391.771" y1="387.716" x2="382.87" y2="403.616"/>
		
			<line fill="#FFFFFF" stroke="#FFFFFF" stroke-width="3" stroke-miterlimit="10" x1="381.771" y1="382.717" x2="372.771" y2="398.616"/>
		
			<line fill="#FFFFFF" stroke="#FFFFFF" stroke-width="3" stroke-miterlimit="10" x1="294.973" y1="355.817" x2="297.674" y2="386.617"/>
		
			<line fill="#FFFFFF" stroke="#FFFFFF" stroke-width="3" stroke-miterlimit="10" x1="300.474" y1="386.316" x2="297.874" y2="355.417"/>
		
			<path fill="#FFFFFF" stroke="#FFFFFF" stroke-width="3" stroke-linecap="round" stroke-linejoin="round" stroke-miterlimit="10" d="
			M306.974,342.318c-0.301-0.2-0.701-0.3-1.1-0.3l-23.6,2c-0.5,0-0.899,0.2-1.1,0.6c-3.601,5.8-0.3,9.899,1.3,11.399
			c0.5,0.4,1,0.5,1.6,0.5c4.3-0.3,24.199-1.9,24.3-2.2C311.673,347.118,308.273,343.418,306.974,342.318z"/>
		
			<path fill="#FFFFFF" stroke="#FFFFFF" stroke-width="3" stroke-linecap="round" stroke-linejoin="round" stroke-miterlimit="10" d="
			M284.074,354.618c1.9-5.7-1-9.1-0.6-8.4"/>
		<g>
			
				<line fill="#FFFFFF" stroke="#FFFFFF" stroke-width="3" stroke-linecap="round" stroke-miterlimit="10" x1="313.573" y1="410.916" x2="313.573" y2="446.414"/>
			
				<line fill="#FFFFFF" stroke="#FFFFFF" stroke-width="3" stroke-linecap="round" stroke-miterlimit="10" x1="363.472" y1="441.715" x2="373.37" y2="426.215"/>
			
				<line fill="#FFFFFF" stroke="#FFFFFF" stroke-width="3" stroke-linecap="round" stroke-miterlimit="10" x1="399.669" y1="477.714" x2="416.669" y2="470.613"/>
			
				<line fill="#FFFFFF" stroke="#FFFFFF" stroke-width="3" stroke-linecap="round" stroke-miterlimit="10" x1="432.868" y1="529.812" x2="397.271" y2="529.812"/>
			
				<line fill="#FFFFFF" stroke="#FFFFFF" stroke-width="3" stroke-linecap="round" stroke-miterlimit="10" x1="231.376" y1="529.912" x2="195.877" y2="529.912"/>
			
				<line fill="#FFFFFF" stroke="#FFFFFF" stroke-width="3" stroke-linecap="round" stroke-miterlimit="10" x1="314.673" y1="649.607" x2="314.673" y2="614.009"/>
			
				<line fill="#FFFFFF" stroke="#FFFFFF" stroke-width="3" stroke-linecap="round" stroke-miterlimit="10" x1="210.877" y1="589.109" x2="227.776" y2="582.01"/>
			
				<line fill="#FFFFFF" stroke="#FFFFFF" stroke-width="3" stroke-linecap="round" stroke-miterlimit="10" x1="211.277" y1="470.714" x2="227.376" y2="479.514"/>
			
				<line fill="#FFFFFF" stroke="#FFFFFF" stroke-width="3" stroke-linecap="round" stroke-miterlimit="10" x1="262.875" y1="443.915" x2="254.575" y2="427.415"/>
			
				<line fill="#FFFFFF" stroke="#FFFFFF" stroke-width="3" stroke-linecap="round" stroke-miterlimit="10" x1="254.975" y1="633.009" x2="264.675" y2="617.309"/>
			
				<line fill="#FFFFFF" stroke="#FFFFFF" stroke-width="3" stroke-linecap="round" stroke-miterlimit="10" x1="417.07" y1="589.21" x2="401.57" y2="579.21"/>
			
				<line fill="#FFFFFF" stroke="#FFFFFF" stroke-width="3" stroke-linecap="round" stroke-miterlimit="10" x1="373.771" y1="632.309" x2="364.671" y2="616.309"/>
			
				<ellipse fill="#FFFFFF" stroke="#FFFFFF" stroke-width="3" stroke-miterlimit="10" cx="314.673" cy="530.011" rx="119.996" ry="119.596"/>
		</g>
		<path fill="#FFFFFF" stroke="#FFFFFF" stroke-width="3" stroke-miterlimit="10" d="M237.176,656.407"/>
		<path fill="#FFFFFF" stroke="#FFFFFF" stroke-width="3" stroke-miterlimit="10" d="M221.377,648.008l-14.1,28.699
			c-2.4,4.899,1.199,10.6,6.6,10.6l0,0c4.8,0,9.199-2.8,11.399-7.1l11.899-23.8"/>
		<path fill="#FFFFFF" stroke="#FFFFFF" stroke-width="3" stroke-miterlimit="10" d="M394.37,648.107l11.4,22.8
			c2.398,4.899-1.201,10.6-6.602,10.6l0,0c-4.799,0-9.199-2.8-11.398-7.1l-9.1-18"/>
	</g>
	<circle fill="#FFFFFF" stroke="#FFFFFF" stroke-miterlimit="10" cx="317.888" cy="531.857" r="4.911"/>
	<circle fill="#FFFFFF" stroke="#FFFFFF" stroke-miterlimit="10" cx="318.003" cy="531.523" r="7.653"/>
	<path fill="#FFFFFF" stroke="#FFFFFF" stroke-miterlimit="10" d="M313.475,538.44l-9.504,24.491v0.064l-8.674,29.338
		c-0.127,0.32,0.064,0.703,0.383,0.83h0.064c0.382,0.127,0.765,0,0.956-0.383l12.692-28.893c0-0.064,0.063-0.127,0.063-0.191
		l7.653-23.918"/>
</g>
</svg>
