<?xml version="1.0" encoding="utf-8"?>
<!-- Generator: Adobe Illustrator 21.1.0, SVG Export Plug-In . SVG Version: 6.00 Build 0)  -->
<svg version="1.1" id="Layer_1" xmlns="http://www.w3.org/2000/svg" xmlns:xlink="http://www.w3.org/1999/xlink" x="0px" y="0px"
	 viewBox="0 0 595.3 841.9" style="enable-background:new 0 0 595.3 841.9;" xml:space="preserve">
<style type="text/css">
	.st0{display:none;}
	.st1{fill:none;stroke:#FFFFFF;stroke-width:3;stroke-miterlimit:10;}
	.st2{fill:none;stroke:#FFFFFF;stroke-width:3;stroke-linecap:round;stroke-linejoin:round;stroke-miterlimit:10;}
	.st3{fill:none;stroke:#FFFFFF;stroke-width:3;stroke-linecap:round;stroke-miterlimit:10;}
</style>
<g id="Layer_1_1_" class="st0">
</g>
<g id="Layer_2">
	<ellipse class="st1" cx="308" cy="494.5" rx="145.7" ry="143.3"/>
	<ellipse class="st1" cx="309.4" cy="495.3" rx="132.2" ry="129.2"/>
	<path class="st1" d="M294,637.1c-136.2-12.7-139.2-125.7-139.2-125.7c-9.6-101.6,83.3-142.6,83.3-142.6"/>
	<line class="st1" x1="225" y1="356.7" x2="233.1" y2="371.3"/>
	<line class="st1" x1="215" y1="361.4" x2="224.1" y2="376.6"/>
	<path class="st1" d="M273.9,330.2c-32.2,19.4-112.5,57.9-112.5,57.9s-18.3-32.4,10.2-49.7c23.3-14.2,46-24.6,53.6-28
		c2.2-1,4.5-1.7,6.8-2.2c7.2-1.5,20.6-1.9,29.3,5.3C265.5,316.9,273.9,330.2,273.9,330.2z"/>
	<path class="st1" d="M370.9,359.2c-12.3-5.2-45.3-27.9-45.3-27.9c-2-2.5,7.2-0.4,7.2-0.4c51.2,12.2,104,55.5,104,55.5
		s6.7-11,6.1-27.9c-0.6-16.8-28.6-31.6-28.6-31.6c0.2-0.4,0.1-1-0.2-1.5c-0.4-0.9-1.3-1.7-2.2-2.2l-18.8-10
		c-13.8-5.7-12.4-35.7-12.4-35.7c-0.1-4.7-0.9-8.8-2.2-12.3c-3.2-8.8-10.2-15.7-18.9-19.1c-32-12.4-65.6-10.5-65.6-10.5
		s-26.3,0.7-51.9,9.2s-23.8,30.9-24,45.4c-0.2,14.5-9.8,22-9.8,22s-25.1,13.3-24.7,14.9c0.4,1.6,4.7,1.6,4.7,1.6"/>
	<path class="st1" d="M379.1,310.7l-3-2c-4.7-2.6-6-22.8-6.4-31.7c-0.2-4.6-1.4-9.2-3.8-13.2c-1.7-2.9-4-5.6-7.1-6.8
		c-8-3.2-32.3-10-60.2-9.5c-27.8,0.4-47.8,6.1-57.7,9.9c-9.9,3.9-12.9,16.1-11.8,30.3c1,14.2-7.6,24.3-7.6,24.3"/>
	<path class="st1" d="M325.6,330.4l2.2-5.9c11.1-23.1,31.9-18.6,31.9-18.6c26.6,3.8,54.6,21.1,54.6,21.1"/>
	<path class="st1" d="M381,364.8c40.1,23.1,55.8,21.8,55.8,21.8"/>
	<line class="st1" x1="387.2" y1="353.1" x2="378.3" y2="369"/>
	<line class="st1" x1="377.2" y1="348.1" x2="368.2" y2="364"/>
	<line class="st1" x1="290.4" y1="321.2" x2="293.1" y2="352"/>
	<line class="st1" x1="295.9" y1="351.7" x2="293.3" y2="320.8"/>
	<path class="st2" d="M302.4,307.7c-0.3-0.2-0.7-0.3-1.1-0.3l-23.6,2c-0.5,0-0.9,0.2-1.1,0.6c-3.6,5.8-0.3,9.9,1.3,11.4
		c0.5,0.4,1,0.5,1.6,0.5c4.3-0.3,24.2-1.9,24.3-2.2C307.1,312.5,303.7,308.8,302.4,307.7z"/>
	<path class="st2" d="M279.5,320c1.9-5.7-1-9.1-0.6-8.4"/>
	<g>
		<line class="st3" x1="309" y1="376.3" x2="309" y2="411.8"/>
		<line class="st3" x1="358.9" y1="407.1" x2="368.8" y2="391.6"/>
		<line class="st3" x1="395.1" y1="443.1" x2="412.1" y2="436"/>
		<line class="st3" x1="428.3" y1="495.2" x2="392.7" y2="495.2"/>
		<line class="st3" x1="226.8" y1="495.3" x2="191.3" y2="495.3"/>
		<line class="st3" x1="310.1" y1="615" x2="310.1" y2="579.4"/>
		<line class="st3" x1="206.3" y1="554.5" x2="223.2" y2="547.4"/>
		<line class="st3" x1="206.7" y1="436.1" x2="222.8" y2="444.9"/>
		<line class="st3" x1="258.3" y1="409.3" x2="250" y2="392.8"/>
		<line class="st3" x1="250.4" y1="598.4" x2="260.1" y2="582.7"/>
		<line class="st3" x1="412.5" y1="554.6" x2="397" y2="544.6"/>
		<line class="st3" x1="369.2" y1="597.7" x2="360.1" y2="581.7"/>
		<ellipse class="st1" cx="310.1" cy="495.4" rx="120" ry="119.6"/>
	</g>
	<path class="st1" d="M232.6,621.8"/>
	<path class="st1" d="M216.8,613.4l-14.1,28.7c-2.4,4.9,1.2,10.6,6.6,10.6l0,0c4.8,0,9.2-2.8,11.4-7.1l11.9-23.8"/>
	<path class="st1" d="M389.8,613.5l11.4,22.8c2.4,4.9-1.2,10.6-6.6,10.6l0,0c-4.8,0-9.2-2.8-11.4-7.1l-9.1-18"/>
</g>
</svg>
