<?xml version="1.0" encoding="utf-8"?>
<!-- Generator: Adobe Illustrator 21.1.0, SVG Export Plug-In . SVG Version: 6.00 Build 0)  -->
<svg version="1.1" xmlns="http://www.w3.org/2000/svg" xmlns:xlink="http://www.w3.org/1999/xlink" x="0px" y="0px"
	 viewBox="0 0 595.3 841.9" style="enable-background:new 0 0 595.3 841.9;" xml:space="preserve">
<style type="text/css">
	.st0{display:none;}
	.st1{display:inline;}
	.st2{fill:#FFFFFF;}
	.st3{fill:none;stroke:#FFFFFF;stroke-miterlimit:10;}
</style>
<g id="Layer_1" class="st0">
	<g id="xJk0Xo.tif" class="st1">
		
			<image style="overflow:visible;" width="981" height="1300" id="Layer_0_1_" xlink:href="BCA4C4D9432F48A3.png"  transform="matrix(0.4033 0 0 0.4033 79.6949 142.7629)">
		</image>
	</g>
</g>
<g id="Layer_6">
	<g>
		<path class="st2" d="M310.4,354.4c1.3,4.2,6.5,8.2,7.2,8.8l0.8,0.6l0.6-0.8c3.4-4.7,8.8-7,11-7.7c0,1-0.4,2.7-1,4.2l-0.1,0.2v0.2
			c0,1.2,2.2,3.6,6.5,7.3l0.1,0.1l0.1,0.1c4.8,2.2,3.3,11.1,2.5,15.4c-0.2,1.1-0.3,1.9-0.3,2.4c0,1.8,0,4.6,0,5.8l-2.7,1.8
			l-24.7-32.2C310.3,357.4,310.3,355.6,310.4,354.4 M310.8,351.4c-0.7,0-2,1-1.3,9.2l25.4,33.2l3.9-2.6c0,0-0.1-3.9,0-6.3
			s3.9-15.6-2.8-18.7c0,0-6.2-5.2-6.2-6.5c0,0,1.7-4.4,0.9-5.8c0,0-7.9,2.1-12.5,8.4c0,0-8.2-6.3-7-10.8
			C311.2,351.6,311.1,351.4,310.8,351.4L310.8,351.4z"/>
	</g>
	<path class="st3" d="M266.1,366.5c0,0,1.1-8.9,16.6-9.1c0,0,6.2,0,6.2,4.6c0,0,6.2-5.7,16-5.9c1.6,0,3.1,0.6,4.1,1.9
		c0.9,1.1,2.3,2.5,3.9,2.7c0,0,15.1,4,16,8.1c0,0,4.1,3.3,4,4.9c0,0,6.9,6.9,1.1,23.9l-4.1,13.9l-40,9.5L266.1,366.5z"/>
	<path class="st3" d="M266.1,366.5c0,0-14.1,14.1-11.3,25c2.8,10.9,35.1,29.4,35.1,29.4"/>
</g>
<g id="Layer_5">
	<g>
		<path class="st2" d="M271.1,374.6l4.1,0.9c-2.7,1.7-5.5,4.8-4.9,9.4c0.9,7.4,15.1,23.8,15.7,24.5l0.2,0.2l0.3,0.1
			c0.1,0,3.1,1,5.9,1c2,0,3.4-0.5,4.2-1.5l0.6-0.8l-0.7-0.6c-0.3-0.3-0.6-0.6-1-0.9c0.3,0.2,0.5,0.3,0.8,0.4c2,0.6,2.8,1.3,2.8,1.3
			c0,0,0,0,0,0l2,2l-0.3-2.8c0-0.4-1.1-9.7-4.8-13.4c-3.5-3.5-5.7-6.6-2-14.1l0.1-0.3l-0.1-0.3c-0.1-0.8-0.4-3.9,1-4.4
			c0.1,0,0.2-0.1,0.3-0.1c0.1,0,0.1,0,0.2,0.1c0.4,0.4,0.6,1.8,0.6,2.6l0,0.7l0.6,0.3c0.9,0.5,3.5,2,3.9,3.7l0,0.2l0.1,0.1
			c1.3,1.9,7.7,11.2,10,12.3c1.3,0.6,4.1,3.4,4.7,5.7c0.2,0.8,0.1,1.5-0.4,2l-6.1,7.3l7.5-5.9c0.3-0.2,6.4-5.1,9.2-12.3
			c0,1.3,0,2.9-0.3,4.5c0,0,0,0,0,0c-0.4,0-1.7,0-1.8,1.1c0,0.2,0,1,1,1.2c0,0,0.2,0.1,0.3,0.4c-0.4,1.8-1,3.6-1.8,5.2l-0.5,1.1
			l1.2,0.3l5.3,1.4l1.9,0.5l-0.7-1.8c-0.1-0.2-1.7-4.6-3.2-7.1c0,0,0,0,0-0.1c0.9,0.2,2.1,0.6,3.3,1.4l0.9,0.6l0.5-0.9
			c1.9-3.1,5.4-7.7,7.1-7.7c1.3,0,2.3,0.6,2.8,1.7c1.2,2.3,0.3,6.2-0.1,7c-1.4,1-4.8,5.8-5.3,7.5c-0.4,1.3-1.7,3.1-3.3,4.1
			c-1.9,1-1.1,2.9-0.7,3.8c-1.3,1.2-2.4,4.2-2.7,5.9c-0.3,1.8-3.2,3-4.3,3.4l-1.4,0.4l0.9,1.2c0,0.1,0.1,0.1,0.1,0.2
			c-1.3,0.5-2.5,2.2-2.8,2.8l0,0.1l0,0.1c-1.1,2.7-2.2,3.1-2.4,3.1l-0.3-0.1l-0.4,0.3c-2.1,1.7-3.4,2-4.2,2c-1.2,0-1.7-0.8-1.7-0.9
			l-0.3-0.6l-0.7,0c-1,0.1-1.4,0.5-1.6,0.9c-0.2,0.3-0.2,0.6-0.2,0.9c-0.3-0.9-0.5-2-0.5-3.3c0-3.8-2.2-4.1-2.8-4.1
			c-0.1,0-0.3,0-0.4,0c-0.6-0.3-2-0.8-3.6-0.8c-2.2,0-4.1,0.9-5.4,2.7c-0.1,0.1-0.3,0.3-0.7,0.3c-1.8,0-7.9-3.4-16.9-12.8l-0.2-0.2
			l-0.3-0.1c-0.2,0-16.6-3.1-17.8-12.9l0-0.4l-0.3-0.2c-1.6-1.4-5.9-6.1-4.9-8.7l0.2-0.5l-0.3-0.4c-0.2-0.3-3.4-5.4-0.7-10.4
			c-0.8,2.8-1.3,6.1-0.3,7.8l1.2,2.1l0.6-2.4c0.2-0.7,0.4-1.4,0.6-2.1l2.8-3.1L271.1,374.6 M270.8,373.5l-11.1,12.3
			c0,0,1.2-2.5,0.1-2.5c-0.1,0-0.1,0-0.2,0c-1.5,0.3-3.5,8.1-3.5,8.1c-1.7-2.8,2-11.6,2-11.6c-8.5,6.3-2.7,15.3-2.7,15.3
			c-1.5,3.8,5.2,9.8,5.2,9.8c1.3,10.6,18.6,13.8,18.6,13.8s12.6,13.1,17.6,13.1c0.6,0,1.1-0.2,1.5-0.7c1.4-1.8,3.1-2.3,4.6-2.3
			c1.9,0,3.5,0.8,3.5,0.8s0.2-0.1,0.5-0.1c0.7,0,1.8,0.4,1.8,3.1c0,3.7,1.4,6.5,3.2,6.5c0.1,0,0.1,0,0.2,0c1.8-0.2-2.7-3.8,0-4
			c0,0,0.7,1.5,2.6,1.5c1.1,0,2.7-0.5,4.9-2.2c0,0,0,0,0.1,0c0.4,0,2-0.2,3.4-3.7c0,0,1.5-2.3,2.7-2.5c1.2-0.2,0-1.7,0-1.7
			s4.5-1.3,5-4.2c0.5-2.8,2.2-5.6,2.8-5.6c0.7,0-1.8-2.3,0-3.3c1.8-1,3.3-3,3.8-4.6c0.5-1.7,4.2-6.6,5-7c0.8-0.3,3-10.2-3.3-10.5
			c0,0,0,0-0.1,0c-3.1,0-8,8.1-8,8.1c-1.7-1.1-3.4-1.6-4.6-1.8c-0.1,0.5-0.2,0.9-0.3,1.4c1.5,2.3,3.3,7.2,3.3,7.2l-5.3-1.4
			c0.9-2,1.6-4,2-5.8c-0.4-0.6-0.8-1.1-1.1-1.1c-0.6-0.1-0.3-0.3,0.5-0.3c0.2,0,0.5,0,0.9,0.1c1.1-6.3-0.3-11.2-0.3-11.2
			c-0.8,9.8-10.1,17.1-10.1,17.1c2.5-3-2.5-8.3-4.6-9.3c-2.2-1-9.6-12-9.6-12c-0.7-2.5-4.5-4.3-4.5-4.3s0.1-3.8-1.7-3.8
			c-0.2,0-0.4,0-0.6,0.1c-2.5,0.8-1.7,5.5-1.7,5.5c-4.2,8.3-1.3,11.8,2.2,15.3c3.5,3.5,4.5,12.8,4.5,12.8s-0.8-0.8-3.2-1.6
			c-2.3-0.7-3.7-5.1-3.7-5.1c-2.8,2.5,2.8,7.3,2.8,7.3c-0.7,0.9-2,1.2-3.4,1.2c-2.6,0-5.6-1-5.6-1s-14.6-16.8-15.4-23.9
			c-0.8-7.1,7-9.6,7-9.6L270.8,373.5L270.8,373.5z"/>
	</g>
</g>
<g id="Layer_4">
	<g>
		<path class="st2" d="M167.4,196.5c5,5.9,36.6,42.5,43.5,46.6c6.9,4.2,14.1,16.6,14.2,16.7l0,0.1l0,0.1
			c3.9,5.2,27.6,69.6,39.5,102.9l0,0.1l0,0l15.2,31.4l45.8,97.6l-3.4,5.4l-4.9,3.9l-53.1-116.6c-1-2.3-10-22.5-13-24.8l-0.4-0.3
			l-0.4,0.1c-0.4,0-2.4-0.2-3.2-5.2l0-0.1l-0.1-0.1l-3.1-6.5l-0.2-0.4l-0.4-0.1c-22.3-6.2-46.9-13.9-48.4-16.1l-0.1-0.3l-0.2-0.1
			l-2-1.2l2.4-1.8c3.9,1.9,26.6,12.5,41.8,12.5c1.3,0,2.5-0.1,3.6-0.2l0.6-0.1l0.2-0.6c0.1-0.3,0.7-1.5,1.4-1.5c0,0,0.1,0,0.1,0
			l1.6,0.2l-0.5-1.5c-0.9-2.5-21.7-61.5-25.6-67.6c-1.1-1.8-2.2-3.6-3.3-5.3c-2.5-4.2-4.7-7.9-6.8-9.3c-18.3-18.3-46-46.3-47-48.9
			C160.4,203.3,164.1,199.2,167.4,196.5 M167.5,195.2c0,0-8.7,6.8-7.2,10.5c1.5,3.7,47.3,49.3,47.3,49.3c2.6,1.7,5.9,8.3,9.8,14.4
			c3.9,6.1,25.5,67.4,25.5,67.4c-0.1,0-0.2,0-0.2,0c-1.6,0-2.4,2.2-2.4,2.2c-1.1,0.2-2.3,0.2-3.5,0.2c-16.3,0-41.9-12.7-41.9-12.7
			l-4.1,3.1l3.3,2c1.7,3.5,49.1,16.6,49.1,16.6l3.1,6.5c0.9,5.6,3.5,6,4.2,6c0.1,0,0.2,0,0.2,0c2.9,2.2,12.7,24.5,12.7,24.5
			L317,502.9l6-4.8l3.8-6l-46-98.1l-15.2-31.4c0,0-34.6-96.5-39.7-103.2c0,0-7.3-12.7-14.5-17C204.1,237.9,167.5,195.2,167.5,195.2
			L167.5,195.2z"/>
	</g>
	<path class="st3" d="M299.3,464l-2,10.8c0,0,8,8.3,10.7,8.4c2.7,0.1,6,13.2,6,13.2s-21.2-9-27.5-17.4c0,0-5.2-0.2-3.9-4.1
		c1.4-3.9,3.9-1,3.9-1s5-1.3,9.9-16.4"/>
	<path class="st3" d="M304,443.4c0,0,3-12.2,2.2-14.2c-0.8-1.9-2.2-1.4-2.2-1.4l-1.9,1.9c0,0-0.5,4.6-1.1,7.2"/>
</g>
<g id="Layer_8">
	<path class="st3" d="M126.9,324.1c0,0-4.2-4.3-6.8-4.5c-2.6-0.1-9.5-4.5-6.2-14.3c2.4-7,2.5-12.3,2.3-14.7
		c-0.1-0.9,0.2-1.8,0.8-2.5c0.4-0.5,0.8-1.2,0.7-1.6c-0.3-0.8,6.6-6.8,8-8c0.1-0.1,0.3-0.2,0.5-0.3c1.2-0.7,6.5-4.1,7-6
		c0.6-2.2,8.9-6.3,17.3,0c0,0,9.2-6.8,9.9-9.6c0.7-2.9,3.3-1.3,3.3-1.3s0.4-2.9,3.5-3s-2.2-2.7,6.5-1.7c0,0,2.7,0.4,1.3-1.6
		c-1.4-2,3.9,0,3.9,0s13.4-3.9,16.1,6c0,0,1.3,4.8,2.9,4.9s11.1-1.2,8.5,13.2c0,0,4.1,9.6,0.4,13.7c-3.6,4-33.6,41-33.6,41
		l-26.6,3.5L126.9,324.1z"/>
</g>
<g id="Layer_7">
	<g>
		<path class="st2" d="M151.8,270.7c0.5,0.5,1.2,1.2,1.7,1.9l0.3,0.3l0.4,0c1.6,0.2,3.1,1.4,4,2.1c0.4,0.3,0.6,0.5,0.9,0.6
			c0.2,0.1,0.4,0.1,0.6,0.1c1.2,0,5.2-1.4,6.3-1.8l1.6-0.6l-1.2-1.1c-0.3-0.3-0.7-0.6-1-0.9c1.8,1,3.6,1.9,4.7,2.5l0.4,0.2l0.4-0.1
			c1.2-0.4,2.4-0.6,3.6-0.6c3.5,0,5.4,1.9,5.4,1.9l0,0l0,0c1.1,0.9,6.3,2.2,8,2.6c1.1,0.6,2.4,6.4,2.3,8.1c0,1.4,0,1.8,0.4,2.2
			l0.3,0.3h0.4c0.9,0,1.4,0,3.7-11.8c0.5,0.3,1.1,0.5,1.6,0.5c0.5,0,0.9-0.2,1.2-0.6c0.1-0.2,0.2-0.4,0.3-0.7
			c0.4,2.3,0.9,5.1,1.3,7.8l0.1,0.6l0.5,0.2c2,0.9,8.8,7.5,10,11c0.2,0.6,0.1,0.8,0.1,0.8c0,0,0,0,0,0c0,0,0,0-0.1,0
			c-1.8,0.6-3.4,2.5-4.7,5.5c-0.9,2.1-1.4,4.1-1.4,4.2l-0.1,0.3l0.1,0.3c5.2,13,4.1,17.7,3,19.4c-0.6,0.9-1.4,1.2-1.8,1.2
			c-2.6-1.9-5.7-4-6.9-4c-0.6,0-1.1,0.4-1.2,0.9c-0.2,0.3-1.3,0.7-2.3,1l-1,0.3l0.3,1c0.6,2-2.9,6.4-4,7.3c-0.8,0.7-1.9,3.1-2.5,4.6
			l-1.9-0.1l-0.3,0l-0.3,0.2l-3.3,2.3l-0.4,0.3v0.5v1.3c-0.6-0.1-1.3-0.2-2.2-0.3c-0.1,0-0.1,0-0.2,0c-1.8,0-3.3,2.1-4.4,3.8
			c-0.3-1.1-0.6-2.5-0.9-3.8l-0.1-0.6l-0.6-0.2l-4.3-1.3l-0.3-0.1l-0.3,0.1c-2.8,0.9-5.3,1.3-7.5,1.3c-6,0-7.5-3.3-7.6-3.4l-0.4-0.9
			l-0.9,0.3c-1.4,0.5-2.8,0.7-4.2,0.7c-6.8,0-11.7-5.5-11.7-5.6l-0.6-0.7l-0.7,0.6c-0.6,0.4-1.2,0.6-1.8,0.6c-2,0-3.7-2.3-3.7-2.3
			l-0.1-0.1l-0.1-0.1l-4.1-2.7l2.2-1.3l0.5-0.3v-0.6v-0.1l0.1,0.1l0.7,0.9l0.8-0.9c0.3-0.4,0.5-0.6,0.7-0.7c0,0.1,0.1,0.2,0.1,0.3
			c0.4,0.9,1,2.4,2.7,2.7c2,0.4,6.5,4,8.2,5.4c1.5,1.5,3.8,2.3,7,2.3c3.8,0,7.5-1.1,7.7-1.2l0.2,0l0.1-0.1l1.3-1h2.1h0.2l0.2-0.1
			l9.8-4.3l0.7-0.3l-0.2-0.8c-0.2-0.9-0.1-1.5,0.2-1.9c0.5-0.6,1.5-0.6,1.9-0.6c0.2,0,0.4,0,0.4,0l1.2,0.1l0-1.2l-0.3-9.9
			c0.2-3.9-9.1-14.6-11.6-17.3l-1-9.6l0-0.4l-0.3-0.3c-1.6-1.6-3.6-8-3.9-10.1c-0.3-2.3-6-3.7-10.7-4.6l-0.1,0l-0.2,0
			c-0.2,0-0.4,0.1-0.6,0.1c1.4-0.8,3.9-1.3,5.7-1.5l1.1-0.1L151.8,270.7 M156.2,265.7c-0.6,0-1.2,0.1-1.9,0.4c0,0,0,0,0,0
			c0.3,0,3.7,0.1,11.4,7.1c0,0-4.9,1.8-6,1.8c-0.1,0-0.1,0-0.2,0c-0.6-0.3-2.7-2.6-5.2-2.9c0,0-2.4-3-3.3-3c-0.3,0-0.5,0.4-0.3,1.4
			c0,0-8.2,0.7-7.5,3.9c0.7,3.2,1.3,4.3,1.3,4.3s-1-4.6,1.3-4.9c0,0,9.6,1.7,9.9,3.7s2.3,8.8,4.2,10.7l1,9.9
			c0,0,11.8,13.1,11.5,16.8l0.3,9.9c0,0-0.2,0-0.5,0c-1.1,0-3.8,0.4-3.1,3.8l-9.8,4.3h-2.4l-1.6,1.2c0,0-3.7,1.1-7.4,1.1
			c-2.4,0-4.8-0.5-6.3-2c0,0-5.9-5-8.6-5.6c-2-0.4-1.8-3.2-2.8-3.2c-0.3,0-0.8,0.3-1.6,1.2l-1.9-2.3v2.9l-3.6,2.2l5.5,3.6
			c0,0,2,2.7,4.5,2.7c0.8,0,1.5-0.2,2.4-0.8c0,0,5.1,5.9,12.5,5.9c1.4,0,2.9-0.2,4.5-0.8c0,0,1.6,4.1,8.5,4.1c2.1,0,4.6-0.4,7.8-1.3
			l4.3,1.3c0,0,1.1,5.7,1.6,5.7c0,0,0,0,0,0c0.4-0.1,2.7-4.9,4.7-4.9c0,0,0.1,0,0.1,0c2,0.1,3.3,0.6,3.3,0.6v-2.6l3.3-2.3l2.6,0.1
			c0,0,1.6-4.2,2.4-4.9c0.9-0.7,5.2-5.6,4.3-8.3c0,0,2.9-0.7,3-1.7c0-0.1,0.1-0.1,0.2-0.1c1.1,0,6.6,4,6.6,4s0,0,0,0
			c0.6,0,8.7-0.4,0-22c0,0,1.7-7.6,5.5-8.9c3.7-1.3-6.9-12.4-9.9-13.7c0,0-1.7-11.5-2.6-12.5c0,0-0.3,4.2-0.9,4.9
			c-0.1,0.1-0.2,0.2-0.4,0.2c-0.8,0-2.3-1.2-2.3-1.2s-2.4,12.4-3,12.4c-0.1,0-0.2-0.4-0.1-1.5c0-1.3-1.2-8.3-3-9.1
			c0,0-6.6-1.6-7.6-2.4c0,0-2.2-2.3-6.2-2.3c-1.2,0-2.5,0.2-3.9,0.7c0,0-10.2-5.3-10.9-6C159.1,266.6,157.8,265.7,156.2,265.7
			L156.2,265.7z"/>
	</g>
</g>
<g id="Layer_3">
	<path class="st3" d="M310.1,523c0,0-0.9-5.3,0-6.5c0.9-1.2-4.2-5.3-1.9-7.4c2.3-2.2,1.8-4.2,3.4-4.5c1.7-0.3-4.5-3.6,1.5-5.7
		c0,0,5.7-3.7,7.9-6.3c2.2-2.6,6.2,0,6.2,0s4.9-3.7,7.6-3.4c0,0-2.8-4.8,5.9-9.7c0,0,8.5-1.7,9.4-3.6c0,0,1.5-2.6,3.2-1.9
		c0,0,5.3-5.3,11.6-5c0,0,5.5,2,8.9,1.9c3.3-0.2,7.6-0.8,9,2l5.5,2.9l4.3,12.4l-4.3,49l-17.6,14.3l-26.7,1.7l-23.9-15L310.1,523z"/>
</g>
<g id="Layer_2">
	<g>
		<path class="st2" d="M385.3,479.5l-1.7,2.7C383.8,480.6,384.3,479.7,385.3,479.5 M390.6,481.4c0.9,2.1,1.7,4.8,2.1,8.4l0,0.3
			l0.2,0.2c0,0,3,4.2,1.3,7.3L394,498l0.2,0.5c0,0,1.9,4.3,1.9,7.4c0,2.1,0.7,4.8,2,8.1c0,0.1,0.1,0.2,0.1,0.3
			c0.3,0.8,1,3.6-0.6,8.1c-1.7,5-3.4,10.8-3.6,11.6c-0.3,0.5-1.7,2.9-4.1,3.7l-0.7,0.2l-0.1,0.7c-0.1,0.8-0.2,3.3,1,4.3
			c0.4,0.4,1.5,3.3,0.9,5.4c-0.3,1-0.9,1.5-1.8,1.7c-0.9,0.2-2,0.4-3.1,0.4c-3.1,0-5.8-1-5.8-1l-0.1,0l-0.1,0l-3.8-0.5l-0.6-0.1
			l-0.3,0.5c-0.2,0.3-1.2,1.8-0.6,3.2c0.2,0.5,0.8,1.2,2.1,1.4c1.8,0.2,2.7,0.8,2.9,1.2c0,0,0,0.1,0,0.2c-0.6,1.1-0.9,1.6-3.5,1.6
			c-0.2,0-0.4,0-0.6,0c-2-0.1-2.8-0.5-3-0.7l-0.1-0.7l-0.9,0.1c0,0-0.5,0-1.1,0c-1.8,0-2.6-0.3-2.8-0.4c-0.1-0.5-0.6-1.4-2.3-1.4
			c-0.9,0-1.9,0.3-2,0.4l-1,0.4l0.4,1l2,4.8l-9.2,6l-3.9-6.2l-0.2-0.3l-0.4-0.1c-2.8-0.8-5.5-2.2-5.6-3l-0.1-0.8l-0.8,0
			c-0.1,0-6-0.2-12-1.8c-5.3-1.4-11.7-4.3-12.1-9.7l0-0.5l-0.4-0.3c-0.1-0.1-4.5-3.4-7.3-8.2l2.2,1.7l-0.7-2.9
			c-0.3-1.4-0.4-3.3,0-3.7l1.1-1.2l-1.5-0.4l-1.6-0.5l0.6-4.1c1.8-1,3.9-2,4.5-2.1c0.6,0.3,2.1,1.9,3.4,3.7c0.1,1.1,0.8,5.2,2.6,9.5
			c2.8,6.6,7.2,10.2,12.7,10.4c0.3,0,1.3,0.2,2.5,0.2c2.2,0,3.7-0.5,4.4-1.6c1.5-2.2-1-6-1.5-6.7c-0.5-0.7-1.3-2.2-1.7-3.7
			c1.4,3.1,4.1,7.1,9.6,9.6l0,0l0,0c0.5,0.2,12.2,4.7,20,4.7c1.6,0,3-0.2,4.1-0.6c0.7-0.2,7.9-2.7,8.9-10.4l0.1-0.6l-0.5-0.3
			c-0.2-0.1-0.8-0.4-2-0.4c-0.2,0-0.4,0-0.6,0c-0.3,0-1.6-0.1-3-0.6c-1.9-0.7-3.1-2-3.4-3.6c-0.2-0.8,0-1.8,0.4-2.8
			c1-2.5,2.8-9.1-1.7-16.7l0,0l0,0l-1.9-2.6L369,509l-0.2-0.1c0,0-1.6-1-2-2.7c-0.2-1,0-2.1,0.7-3.3l0.4-0.6l-0.5-0.6
			c-0.3-0.4-1.1-1.6-1-2.5c0-0.3,0.2-0.6,0.5-0.8c0.1-0.1,0.3-0.2,0.5-0.2c0.1,0,0.2,0,0.3,0.1l1.5,0.6l0.2,2.3l0.1,1.2l1.2-0.3
			c0,0,0.7-0.2,1.6-0.2c2.1,0,5.1,0.9,7.2,5l0.1,0.1l0.1,0.1c2.8,2.9,5.8,6.5,6,7.4l2,0l0-0.1l0,0c0-2.4,0.2-6.9,1.4-9l0.2-0.3
			l-0.1-0.4c-0.9-4-1.8-8.8-1.6-9.8l0.3-0.6l-0.5-0.5c-1.5-1.8-3.5-4.6-4.1-6.4c1.8,0.4,5.1,1.6,6.4,4.1l2,3.9l-0.1-4.4
			c0-0.1-0.1-3.2-0.6-6.7C391,483.3,390.8,482.3,390.6,481.4 M383.6,472.9c-0.5,0-1,0.4-1.4,1.5l3.7,0
			C385.4,473.8,384.5,472.9,383.6,472.9L383.6,472.9z M386,474.4c0.3,0.3,0.6,0.7,0.9,1c3.6,3.4,3.8,15.7,3.8,15.7
			c-2.1-4.1-8.5-4.9-8.5-4.9c-0.3,2.7,4.5,8.3,4.5,8.3c-0.6,1.1,1.5,10.4,1.5,10.4c-1.6,2.7-1.5,8.9-1.5,9.5c0,0,0,0,0,0
			c0,0,0,0,0,0c-0.1-1.5-6.3-8-6.3-8c-2.5-4.7-6-5.5-8.1-5.5c-1.1,0-1.9,0.2-1.9,0.2l-0.2-2.4c0-0.3-0.2-0.6-0.5-0.7l-1.7-0.6
			c-0.2-0.1-0.5-0.1-0.7-0.1c-0.4,0-0.8,0.1-1.1,0.4c-2.2,1.7,0.4,4.7,0.4,4.7c-2.9,4.7,1.6,7.4,1.6,7.4l1.9,2.6
			c4.3,7.2,2.6,13.4,1.7,15.8c-0.4,1.1-0.6,2.2-0.4,3.4c1,4.9,7.4,5.1,7.4,5.1c0.2,0,0.4,0,0.6,0c1.1,0,1.5,0.3,1.5,0.3
			c-1,7.4-8.3,9.6-8.3,9.6c-1,0.4-2.3,0.6-3.7,0.6c-7.6,0-19.6-4.7-19.6-4.7c-8.9-4-10.3-12.8-10.3-12.8c-2.6,3,1.1,8.4,1.1,8.4
			s2.7,3.9,1.5,5.6c-0.6,0.9-2.2,1.1-3.6,1.1c-1.3,0-2.4-0.2-2.4-0.2c-12.4-0.5-14.4-19.3-14.4-19.3s-3.2-4.3-4.3-4.3c0,0,0,0,0,0
			c-1.1,0-5.5,2.5-5.5,2.5l-0.8,5.4l2.4,0.7c-1.1,1.2-0.2,4.7-0.2,4.7c-5.3-4.3,0.8-16.3,0.2-16.3c0,0,0,0-0.1,0
			c-1.1,0.7-3.1,5.6-3.1,5.6c-4.3,10.4,9.2,20.5,9.2,20.5c0.8,11.6,25.1,12.5,25.1,12.5c0.3,2.1,6.3,3.8,6.3,3.8l4.5,7.1l10.8-7.1
			l-2.3-5.5c0,0,0.9-0.3,1.7-0.3c0.6,0,1.2,0.2,1.3,0.8c0.2,0.9,2.3,1.1,3.7,1.1c0.7,0,1.2,0,1.2,0s0.2,1.3,4,1.4c0.2,0,0.5,0,0.7,0
			c3.1,0,3.7-0.8,4.4-2.1c0.8-1.4-1-2.5-3.6-2.9c-2.6-0.3-0.8-3-0.8-3l3.8,0.5c0,0,2.8,1,6.2,1c1.1,0,2.2-0.1,3.3-0.4
			c4.6-1.1,2.3-8.2,1.4-8.9s-0.7-3.4-0.7-3.4c3.1-0.9,4.8-4.2,4.8-4.2s1.8-6.3,3.7-11.7c1.8-5.4,0.7-8.5,0.6-8.8
			c-0.1-0.3-2.1-4.7-2.1-8c0-3.3-1.9-7.8-1.9-7.8c2.1-3.7-1.4-8.3-1.4-8.3C392.4,477,386,474.4,386,474.4L386,474.4z M385.8,478.5
			c-3.9,0-3.3,5.2-3.6,7.7l4.8-7.5C386.6,478.5,386.2,478.5,385.8,478.5L385.8,478.5z"/>
	</g>
	<g>
		<path class="st2" d="M389.8,551.3c0.6,0,1.2,0.1,1.7,0.4l16.2,7.9c0.4,0.2,0.8,0.3,1.2,0.4c4,0.9,8.7,1.4,8.9,1.4
			c1.5,0.2,2.8,0.5,3.8,0.9c1.7,0.7,2.6,2.6,2.2,4.4c-2.3,10.5-16.2,32.7-19.2,35.4c-3.6,3.4-1.2,12.7-0.3,15.5
			c0.1,0.2,0.1,0.3,0.2,0.5l18.7,46.8c0.7,1.8,0.1,3.9-1.5,4.8c-0.5,0.3-0.9,0.4-1.4,0.4c-0.1,0-0.1,0-0.2,0
			c-1.6-0.1-4.6-1.3-8.3-3.1c-0.8-0.4-1.5-1.1-1.9-2l-18.2-42.2c-1.5-3.4-3.3-6.8-5.3-9.9l-29.5-45c-0.6-0.9-0.8-2-0.6-3
			c0.2-1.1,0.9-2,1.8-2.5c0.7-0.4,1.5-1,2.2-1.6c0.7-0.6,1.6-0.9,2.6-0.9c1.3,0,2.6,0.7,3.3,1.8c24.7,36.7,25.2,36.8,25.7,37
			c0.1,0,0.4,0.2,1.4,0.7c0.9,0.4,1.8,0.7,2.8,0.7c1.1,0,2.2-0.3,3.1-0.9c5.9-4,9.6-14.1,11.5-19.5c0.5-1.4,0.9-2.5,1.1-3
			c0.7-1.4,1.2-3.5,1.3-6.1c0.2-2.3-1.1-4.5-3.1-5.6c-5.7-3.1-17.4-9.6-22.8-12.8c0.5,0,0.9-0.1,1.3-0.2
			C388.9,551.4,389.4,551.3,389.8,551.3 M389.8,550.3c-0.5,0-1,0.1-1.6,0.3c-0.4,0.1-1,0.2-1.5,0.2c-1.2,0-2.5-0.2-2.9-0.2
			c-1,0,18.7,11.1,25.8,14.9c1.7,0.9,2.7,2.7,2.6,4.7c-0.1,1.9-0.4,4.2-1.2,5.8c-1.4,2.7-5.2,17.3-12.4,22.1
			c-0.8,0.5-1.7,0.8-2.6,0.8c-0.8,0-1.6-0.2-2.3-0.6c-0.6-0.3-1.2-0.6-1.5-0.7c-0.6-0.2-17.7-25.5-25.2-36.6c-1-1.4-2.5-2.2-4.1-2.2
			c-1.1,0-2.3,0.4-3.2,1.2c-0.8,0.6-1.5,1.1-2.1,1.5c-2.4,1.5-3.1,4.6-1.6,7l29.5,45c2,3.1,3.8,6.4,5.3,9.8l18.2,42.2
			c0.5,1.1,1.3,2,2.3,2.5c2.3,1.1,6.3,3,8.7,3.2c0.1,0,0.2,0,0.3,0c0.7,0,1.4-0.2,1.9-0.5c2.1-1.2,2.8-3.8,1.9-6l-18.7-46.8
			c-0.1-0.1-0.1-0.3-0.1-0.4c-0.5-1.6-3.2-11.4,0.1-14.5c3.3-3.1,17.2-25.3,19.5-35.9c0.5-2.3-0.7-4.6-2.8-5.5c-1-0.4-2.3-0.8-4.1-1
			c0,0-4.7-0.5-8.7-1.4c-0.4-0.1-0.7-0.2-1-0.4l-16.2-7.9C391.3,550.5,390.5,550.3,389.8,550.3L389.8,550.3z"/>
	</g>
</g>
</svg>
