<?xml version="1.0" encoding="iso-8859-1"?>
<!-- Generator: Adobe Illustrator 16.0.0, SVG Export Plug-In . SVG Version: 6.00 Build 0)  -->
<!DOCTYPE svg PUBLIC "-//W3C//DTD SVG 1.1//EN" "http://www.w3.org/Graphics/SVG/1.1/DTD/svg11.dtd">
<svg version="1.1" id="Layer_1" xmlns="http://www.w3.org/2000/svg" xmlns:xlink="http://www.w3.org/1999/xlink" x="0px" y="0px"
	 width="773.14px" height="841.891px" viewBox="-177.861 0 773.14 841.891"
	 style="enable-background:new -177.861 0 773.14 841.891;" xml:space="preserve">
<g>
	<path style="fill:none;stroke:#FFFFFF;stroke-width:2;stroke-linecap:round;stroke-linejoin:round;stroke-miterlimit:10;" d="
		M570.557,475.869c-1.627,71.218-11.392,177.416-52.891,225.529c-65.5,76.097-134.864,121.247-279.702,128.875
		c0,0-118.391,16.111-256.31-70.583c-43.534-27.343-76.893-69.524-94.389-119.339c-11.592-33.063-23.392-75.033-29.494-120.817"/>
	<path style="fill:none;stroke:#FFFFFF;stroke-width:2;stroke-linecap:round;stroke-linejoin:round;stroke-miterlimit:10;" d="
		M-146.093,469.086c-0.202-10.599,0-21.199,0.61-32.008c0,0,10.377-136.082,37.025-224.046
		c10.983-36.67,35.597-67.404,68.145-85.422c74.046-41.121,240.851-105.135,452.406-9.541c23.189,10.599,44.55,25.436,62.248,44.302
		c37.431,39.849,92.354,118.913,95.608,242.488c0,0,0.407,7.207,0.813,19.5"/>
	<path style="fill:none;stroke:#FFFFFF;stroke-width:2;stroke-linecap:round;stroke-linejoin:round;stroke-miterlimit:10;" d="
		M-153.82,502.787c-0.203-0.633-1.426-9.113-0.814-8.689c12.409,9.751,96.422,76.308,399.925,58.504
		c286.823-16.747,327.914-91.359,334.22-109.163c0.405-0.848,1.421,4.026,1.625,4.875l0.408,4.663c0.204,1.484,0,2.756-0.408,4.24
		c-3.865,14.626-37.634,86.692-337.679,104.286c-281.33,16.32-368.19-29.038-388.734-43.877c-3.258-2.332-5.9-5.934-7.12-9.963
		L-153.82,502.787z"/>
	<path style="fill:none;stroke:#FFFFFF;stroke-width:2;stroke-linecap:round;stroke-linejoin:round;stroke-miterlimit:10;" d="
		M-160.331,482.228c-0.203-0.636,0.612-1.273,1.018-0.849c12.41,9.75,92.76,61.68,396.263,44.089
		c286.823-16.744,336.05-78.003,342.354-95.809c0.409-0.849,1.425-0.634,1.626,0.212l0.409,4.661c0.204,1.485,0,2.759-0.409,4.241
		c-3.861,14.627-43.936,84.786-344.186,102.381c-281.33,16.32-368.189-29.041-388.735-43.877c-3.256-2.333-5.901-5.936-7.12-9.965
		L-160.331,482.228z"/>
	<path style="fill:none;stroke:#FFFFFF;stroke-width:2;stroke-linecap:round;stroke-linejoin:round;stroke-miterlimit:10;" d="
		M-159.111,481.38c0,0-3.256-29.463,13.018-31.372"/>
	<path style="fill:none;stroke:#FFFFFF;stroke-width:2;stroke-linecap:round;stroke-linejoin:round;stroke-miterlimit:10;" d="
		M-150.568,460.183c0,0,3.256,9.327,10.579,15.474c1.625,1.273,3.66,2.117,5.493,3.181c17.696,9.327,64.485,23.739,111.473,27.556
		c0,0,105.778,9.325,186.739,6.359c80.758-2.97,217.458-4.876,324.863-36.883c1.017-0.211,2.034-0.634,3.053-1.06
		c10.372-4.239,70.587-29.251,78.926-50.449l2.645-5.934"/>
	<path style="fill:none;stroke:#FFFFFF;stroke-width:2;stroke-linecap:round;stroke-linejoin:round;stroke-miterlimit:10;" d="
		M579.51,429.448c0,0-0.409-29.251-9.97-29.251"/>
	<path style="fill:none;stroke:#FFFFFF;stroke-width:2;stroke-linecap:round;stroke-linejoin:round;stroke-miterlimit:10;" d="
		M233.899,561.926c0,0,138.324,185.682,144.426,202.426c0,0-0.407,12.933-10.983,5.94c-10.578-7-148.902-207.728-148.902-207.728"/>
	<path style="fill:none;stroke:#FFFFFF;stroke-width:2;stroke-linecap:round;stroke-linejoin:round;stroke-miterlimit:10;" d="
		M365.104,770.924c0,0-0.409,12.929-10.984,5.936c-10.578-6.994-155.21-213.237-155.21-213.237"/>
	<path style="fill:none;stroke:#FFFFFF;stroke-width:2;stroke-linecap:round;stroke-linejoin:round;stroke-miterlimit:10;" d="
		M553.265,491.13c0,0,4.275,188.015-177.585,282.126c-18.512,9.539-38.448,16.109-58.991,19.924
		c-55.125,10.178-179.416,29.677-239.222,13.354"/>
	<path style="fill:none;stroke:#FFFFFF;stroke-width:2;stroke-linecap:round;stroke-linejoin:round;stroke-miterlimit:10;" d="
		M549.402,571.888c0,0-49.636,248.213-359.24,248.213"/>
	<path style="fill:none;stroke:#FFFFFF;stroke-width:2;stroke-linecap:round;stroke-linejoin:round;stroke-miterlimit:10;" d="
		M410.872,752.272c0,0-101.098-111.493-137.511-192.677"/>
	<path style="fill:none;stroke:#FFFFFF;stroke-width:2;stroke-linecap:round;stroke-linejoin:round;stroke-miterlimit:10;" d="
		M288.822,558.324c37.634,79.273,137.31,183.138,138.123,182.498c0,0-26.243-95.383-95.404-186.529"/>
	<path style="fill:none;stroke:#FFFFFF;stroke-width:2;stroke-linecap:round;stroke-linejoin:round;stroke-miterlimit:10;" d="
		M406.398,719.204c0,0-68.348-144.347-96.425-162.999"/>
	<path style="fill:none;stroke:#FFFFFF;stroke-width:2;stroke-linecap:round;stroke-linejoin:round;stroke-miterlimit:10;" d="
		M361.646,667.274c0,0-30.106-60.835-65.705-109.588"/>
	<path style="fill:none;stroke:#FFFFFF;stroke-width:2;stroke-linecap:round;stroke-linejoin:round;stroke-miterlimit:10;" d="
		M443.624,727.26c0,0-38.651-104.924-92.558-175.507"/>
	<path style="fill:none;stroke:#FFFFFF;stroke-width:2;stroke-linecap:round;stroke-linejoin:round;stroke-miterlimit:10;" d="
		M459.086,712.634c0,0-52.889-122.516-88.284-163.637"/>
	<path style="fill:none;stroke:#FFFFFF;stroke-width:2;stroke-linecap:round;stroke-linejoin:round;stroke-miterlimit:10;" d="
		M465.39,706.062c0,0-32.345-116.153-78.722-159.606"/>
	<path style="fill:none;stroke:#FFFFFF;stroke-width:2;stroke-linecap:round;stroke-linejoin:round;stroke-miterlimit:10;" d="
		M476.377,693.98c0,0-15.868-74.611-65.301-151.768"/>
	<path style="fill:none;stroke:#FFFFFF;stroke-width:2;stroke-linecap:round;stroke-linejoin:round;stroke-miterlimit:10;" d="
		M486.342,681.474c0,0-23.596-108.1-56.55-143.286"/>
	<path style="fill:none;stroke:#FFFFFF;stroke-width:2;stroke-linecap:round;stroke-linejoin:round;stroke-miterlimit:10;" d="
		M494.886,669.604c0,0-16.476-93.898-48.008-135.445"/>
	<path style="fill:none;stroke:#FFFFFF;stroke-width:2;stroke-linecap:round;stroke-linejoin:round;stroke-miterlimit:10;" d="
		M506.48,651.799c0,0-10.575-73.127-35.395-107.464"/>
	<path style="fill:none;stroke:#FFFFFF;stroke-width:2;stroke-linecap:round;stroke-linejoin:round;stroke-miterlimit:10;" d="
		M513.397,639.507c0,0-8.949-60.2-18.511-71.01"/>
	<path style="fill:none;stroke:#FFFFFF;stroke-width:2;stroke-linecap:round;stroke-linejoin:round;stroke-miterlimit:10;" d="
		M521.535,623.397c0.811-1.695-1.016-81.396-19.326-106.195"/>
	<path style="fill:none;stroke:#FFFFFF;stroke-width:2;stroke-linecap:round;stroke-linejoin:round;stroke-miterlimit:10;" d="
		M530.687,601.986c0,0,0-39.424-7.118-60.196"/>
	<path style="fill:none;stroke:#FFFFFF;stroke-width:2;stroke-linecap:round;stroke-linejoin:round;stroke-miterlimit:10;" d="
		M539.436,576.341c0,0,3.049-20.137,0-27.345"/>
	<path style="fill:none;stroke:#FFFFFF;stroke-width:2;stroke-linecap:round;stroke-linejoin:round;stroke-miterlimit:10;" d="
		M337.034,788.304c0,0-51.061-39.637-101.101-106.831c-49.839-67.191-73.233-96.232-82.589-116.792"/>
	<path style="fill:none;stroke:#FFFFFF;stroke-width:2;stroke-linecap:round;stroke-linejoin:round;stroke-miterlimit:10;" d="
		M343.948,786.186c0,0,11.797-6.783,7.118-12.506c0,0-6.712,2.329-18.104-2.972C310.587,760.324,166.77,564.893,166.77,564.893"/>
	<path style="fill:none;stroke:#FFFFFF;stroke-width:2;stroke-linecap:round;stroke-linejoin:round;stroke-miterlimit:10;" d="
		M120.998,564.893c0,0,99.474,151.981,167.822,210.271"/>
	<path style="fill:none;stroke:#FFFFFF;stroke-width:2;stroke-linecap:round;stroke-linejoin:round;stroke-miterlimit:10;" d="
		M94.149,564.682c0,0,99.269,149.014,168.839,207.938"/>
	<path style="fill:none;stroke:#FFFFFF;stroke-width:2;stroke-linecap:round;stroke-linejoin:round;stroke-miterlimit:10;" d="
		M72.788,563.836c0,0,95.202,152.399,145.853,190.978"/>
	<path style="fill:none;stroke:#FFFFFF;stroke-width:2;stroke-linecap:round;stroke-linejoin:round;stroke-miterlimit:10;" d="
		M55.702,562.987c0,0,87.877,147.95,125.508,173.599"/>
	<path style="fill:none;stroke:#FFFFFF;stroke-width:2;stroke-linecap:round;stroke-linejoin:round;stroke-miterlimit:10;" d="
		M-6.952,557.687c0,0,93.574,174.66,166.806,211.543"/>
	<path style="fill:none;stroke:#FFFFFF;stroke-width:2;stroke-linecap:round;stroke-linejoin:round;stroke-miterlimit:10;" d="
		M-40.924,552.602c0,0,70.996,180.381,212.575,222.562"/>
	<path style="fill:none;stroke:#FFFFFF;stroke-width:2;stroke-linecap:round;stroke-linejoin:round;stroke-miterlimit:10;" d="
		M-25.87,555.144c0,0,52.075,99.835,81.571,126.542"/>
	<path style="fill:none;stroke:#FFFFFF;stroke-width:2;stroke-linecap:round;stroke-linejoin:round;stroke-miterlimit:10;" d="
		M33.123,561.715C71.974,659.641,198.91,775.373,198.91,775.373"/>
	<path style="fill:none;stroke:#FFFFFF;stroke-width:2;stroke-linecap:round;stroke-linejoin:round;stroke-miterlimit:10;" d="
		M159.854,752.272c0.812-1.062-94.186-66.979-150.328-192.677"/>
	<path style="fill:none;stroke:#FFFFFF;stroke-width:2;stroke-linecap:round;stroke-linejoin:round;stroke-miterlimit:10;" d="
		M210.708,808.441c0,0-240.443,18.652-328.117-182.29"/>
	<path style="fill:none;stroke:#FFFFFF;stroke-width:2;stroke-linecap:round;stroke-linejoin:round;stroke-miterlimit:10;" d="
		M198.91,808.867c0,0-177.586-15.263-253.667-133.327"/>
	<path style="fill:none;stroke:#FFFFFF;stroke-width:2;stroke-linecap:round;stroke-linejoin:round;stroke-miterlimit:10;" d="
		M375.68,759.266c0,0,20.342-11.234,22.582-21.196"/>
	<path style="fill:none;stroke:#FFFFFF;stroke-width:2;stroke-linecap:round;stroke-linejoin:round;stroke-miterlimit:10;" d="
		M368.969,748.667c0,0,19.121-7.632,24.818-16.111"/>
	<path style="fill:none;stroke:#FFFFFF;stroke-width:2;stroke-linecap:round;stroke-linejoin:round;stroke-miterlimit:10;" d="
		M360.83,736.585c4.681-3.392,17.088-14.203,17.494-22.255"/>
	<path style="fill:none;stroke:#FFFFFF;stroke-width:2;stroke-linecap:round;stroke-linejoin:round;stroke-miterlimit:10;" d="
		M366.324,699.49c0,0-14.036,18.229-14.036,24.591c0,0,15.256-9.116,17.494-20.349"/>
	<path style="fill:none;stroke:#FFFFFF;stroke-width:2;stroke-linecap:round;stroke-linejoin:round;stroke-miterlimit:10;" d="
		M339.473,706.062c0,0,8.34-16.109,16.069-20.134"/>
	<path style="fill:none;stroke:#FFFFFF;stroke-width:2;stroke-linecap:round;stroke-linejoin:round;stroke-miterlimit:10;" d="
		M348.222,676.598c0,0-14.241,11.66-16.073,19.503"/>
	<path style="fill:none;stroke:#FFFFFF;stroke-width:2;stroke-linecap:round;stroke-linejoin:round;stroke-miterlimit:10;" d="
		M338.253,663.457c0,0-12.41,15.686-14.238,21.408"/>
	
		<line style="fill:none;stroke:#FFFFFF;stroke-width:2;stroke-linecap:round;stroke-linejoin:round;stroke-miterlimit:10;" x1="331.133" y1="653.708" x2="315.264" y2="672.57"/>
	
		<line style="fill:none;stroke:#FFFFFF;stroke-width:2;stroke-linecap:round;stroke-linejoin:round;stroke-miterlimit:10;" x1="322.181" y1="641.202" x2="305.704" y2="659.431"/>
	
		<line style="fill:none;stroke:#FFFFFF;stroke-width:2;stroke-linecap:round;stroke-linejoin:round;stroke-miterlimit:10;" x1="316.894" y1="633.782" x2="300.213" y2="651.799"/>
	<path style="fill:none;stroke:#FFFFFF;stroke-width:2;stroke-linecap:round;stroke-linejoin:round;stroke-miterlimit:10;" d="
		M295.128,644.804c0,0,10.577-16.321,15.866-19.923"/>
	<path style="fill:none;stroke:#FFFFFF;stroke-width:2;stroke-linecap:round;stroke-linejoin:round;stroke-miterlimit:10;" d="
		M286.99,633.782c0,0,9.356-18.229,15.46-22.044"/>
	<path style="fill:none;stroke:#FFFFFF;stroke-width:2;stroke-linecap:round;stroke-linejoin:round;stroke-miterlimit:10;" d="
		M275.397,618.096c0,0,13.83-19.288,17.49-21.408"/>
	<path style="fill:none;stroke:#FFFFFF;stroke-width:2;stroke-linecap:round;stroke-linejoin:round;stroke-miterlimit:10;" d="
		M282.108,577.188c0,0-15.255,21.833-17.089,26.708"/>
	<path style="fill:none;stroke:#FFFFFF;stroke-width:2;stroke-linecap:round;stroke-linejoin:round;stroke-miterlimit:10;" d="
		M255.256,590.541c0,0,7.935-17.594,14.038-22.254"/>
	<path style="fill:none;stroke:#FFFFFF;stroke-width:2;stroke-linecap:round;stroke-linejoin:round;stroke-miterlimit:10;" d="
		M406.398,747.185c0,0-23.596,16.956-27.868,17.165"/>
	<path style="fill:none;stroke:#FFFFFF;stroke-width:2;stroke-linecap:round;stroke-linejoin:round;stroke-miterlimit:10;" d="
		M246.914,579.521c0,0,5.901-16.746,12.41-18.867"/>
	<path style="fill:none;stroke:#FFFFFF;stroke-width:2;stroke-linecap:round;stroke-linejoin:round;stroke-miterlimit:10;" d="
		M181.416,797.845c0,0-162.331-53.627-227.829-227.439"/>
	<path style="fill:none;stroke:#FFFFFF;stroke-width:2;stroke-linecap:round;stroke-linejoin:round;stroke-miterlimit:10;" d="
		M-66.148,590.541c0,0,89.913,158.761,150.939,176.355"/>
	<path style="fill:none;stroke:#FFFFFF;stroke-width:2;stroke-linecap:round;stroke-linejoin:round;stroke-miterlimit:10;" d="
		M235.118,510.207c0,0-172.296-232.738-205.659-306.713c-3.05-6.571-4.679-13.777-4.474-20.984
		c0.203-9.114,3.255-15.898,19.121,14.201c25.224,48.117,190.604,298.872,209.116,312.648"/>
	<path style="fill:none;stroke:#FFFFFF;stroke-width:2;stroke-linecap:round;stroke-linejoin:round;stroke-miterlimit:10;" d="
		M282.108,507.663c0,0-182.263-220.23-225.388-312.648c-0.612-1.271-1.222-2.543-2.034-3.815
		c-5.494-10.386-29.906-58.714-20.75-70.583c0,0,9.153-11.446-1.221-8.69c-7.934,2.119-13.831,9.115-15.054,17.592
		c-1.423,11.022-1.423,29.251,7.12,52.991"/>
	<path style="fill:none;stroke:#FFFFFF;stroke-width:2;stroke-linecap:round;stroke-linejoin:round;stroke-miterlimit:10;" d="
		M37.394,112.35c0,0,11.188-3.18,17.901,0c0,0-24.411,37.306,61.637,154.521c86.046,117.218,183.28,239.522,183.28,239.522"/>
	<path style="fill:none;stroke:#FFFFFF;stroke-width:2;stroke-linecap:round;stroke-linejoin:round;stroke-miterlimit:10;" d="
		M55.498,112.35c0,0,50.652,62.954,57.772,76.308c0,0,121.645,150.282,134.663,168.298
		c13.021,18.018,109.643,138.201,111.678,143.926"/>
	<path style="fill:none;stroke:#FFFFFF;stroke-width:2;stroke-linecap:round;stroke-linejoin:round;stroke-miterlimit:10;" d="
		M52.446,122.736c0,0,9.36,16.744,13.022,22.467"/>
	<path style="fill:none;stroke:#FFFFFF;stroke-width:2;stroke-linecap:round;stroke-linejoin:round;stroke-miterlimit:10;" d="
		M322.181,504.697c0,0-207.487-271.741-216.235-282.338c-8.747-10.598-35.6-40.486-41.498-43.877"/>
	<path style="fill:none;stroke:#FFFFFF;stroke-width:2;stroke-linecap:round;stroke-linejoin:round;stroke-miterlimit:10;" d="
		M84.384,181.45c0,0,244.918,309.469,259.158,321.127"/>
	<path style="fill:none;stroke:#FFFFFF;stroke-width:2;stroke-linecap:round;stroke-linejoin:round;stroke-miterlimit:10;" d="
		M424.908,491.13c-5.288-13.989-140.561-179.533-167.21-212.177c-3.051-3.815-6.308-7.205-9.559-10.81
		c-24.614-25.012-131.206-132.902-147.278-143.289c-18.308-11.658-35.192,0-35.192,0s7.12-27.13-40.685-20.985
		c-32.954,4.24-47.802,54.475-53.906,85.209c-3.051,15.05-3.255,30.736-0.612,45.997c5.494,33.278,19.936,98.14,54.721,158.761
		c49.433,86.057,66.926,118.064,66.926,118.064"/>
	<path style="fill:none;stroke:#FFFFFF;stroke-width:2;stroke-linecap:round;stroke-linejoin:round;stroke-miterlimit:10;" d="
		M84.384,139.691c0,0,28.885,16.747,38.243,25.014"/>
	<path style="fill:none;stroke:#FFFFFF;stroke-width:2;stroke-linecap:round;stroke-linejoin:round;stroke-miterlimit:10;" d="
		M113.27,188.444c0,0,51.262,38.578,65.299,59.774c14.036,21.196,185.924,232.736,192.232,251.177"/>
	<path style="fill:none;stroke:#FFFFFF;stroke-width:2;stroke-linecap:round;stroke-linejoin:round;stroke-miterlimit:10;" d="
		M149.477,218.119c0,0,81.979,65.073,150.736,157.065c68.756,91.993,86.859,122.093,86.859,122.093"/>
	<path style="fill:none;stroke:#FFFFFF;stroke-width:2;stroke-linecap:round;stroke-linejoin:round;stroke-miterlimit:10;" d="
		M259.325,301.421c0,0,138.53,170.843,147.073,192.886"/>
	<path style="fill:none;stroke:#FFFFFF;stroke-width:2;stroke-linecap:round;stroke-linejoin:round;stroke-miterlimit:10;" d="
		M21.528,119.98c0,0-29.903,9.325-14.85,68.676c15.052,59.349,167.211,320.279,174.738,323.668"/>
	<path style="fill:none;stroke:#FFFFFF;stroke-width:2;stroke-linecap:round;stroke-linejoin:round;stroke-miterlimit:10;" d="
		M201.555,511.478c0,0-168.636-251.813-171.89-307.984"/>
	<path style="fill:none;stroke:#FFFFFF;stroke-width:2;stroke-linecap:round;stroke-linejoin:round;stroke-miterlimit:10;" d="
		M163.716,512.752c0,0-147.071-232.95-157.038-276.191c-9.967-43.242-4.271-71.855-4.271-71.855"/>
	<path style="fill:none;stroke:#FFFFFF;stroke-width:2;stroke-linecap:round;stroke-linejoin:round;stroke-miterlimit:10;" d="
		M133.815,513.388c0,0-111.677-193.525-131.41-238.25c-15.459-35.186-27.462-91.144-1.626-116.368"/>
	<path style="fill:none;stroke:#FFFFFF;stroke-width:2;stroke-linecap:round;stroke-linejoin:round;stroke-miterlimit:10;" d="
		M50.412,324.949c0,0,97.235,178.264,106.796,187.166"/>
	<path style="fill:none;stroke:#FFFFFF;stroke-width:2;stroke-linecap:round;stroke-linejoin:round;stroke-miterlimit:10;" d="
		M116.117,512.115c0,0-128.153-197.977-137.715-276.615"/>
	<path style="fill:none;stroke:#FFFFFF;stroke-width:2;stroke-linecap:round;stroke-linejoin:round;stroke-miterlimit:10;" d="
		M64.449,511.902c0,0-86.659-170.208-95.812-214.721c-9.154-44.514-16.681-95.597-6.104-115.522c0,0,10.172-30.734,24.208-41.755"/>
	<path style="fill:none;stroke:#FFFFFF;stroke-width:2;stroke-linecap:round;stroke-linejoin:round;stroke-miterlimit:10;" d="
		M40.852,510.632c0,0-98.047-198.612-98.863-270.467c-0.814-71.857,20.545-109.798,43.531-125.908c0,0,11.189-5.723,22.782-3.391"/>
	<path style="fill:none;stroke:#FFFFFF;stroke-width:2;stroke-linecap:round;stroke-linejoin:round;stroke-miterlimit:10;" d="
		M-31.567,505.543c0,0-63.873-129.087-63.06-196.915"/>
	<path style="fill:none;stroke:#FFFFFF;stroke-width:2;stroke-linecap:round;stroke-linejoin:round;stroke-miterlimit:10;" d="
		M-119.037,254.154c0,0-4.884,172.751,39.873,243.123"/>
	<path style="fill:none;stroke:#FFFFFF;stroke-width:2;stroke-linecap:round;stroke-linejoin:round;stroke-miterlimit:10;" d="
		M-79.164,193.319c0,0-15.054,155.371,64.889,313.708"/>
	<path style="fill:none;stroke:#FFFFFF;stroke-width:2;stroke-linecap:round;stroke-linejoin:round;stroke-miterlimit:10;" d="
		M-66.148,301.421c-1.424,5.087,57.163,198.823,75.47,207.302"/>
	
		<line style="fill:none;stroke:#FFFFFF;stroke-width:2;stroke-linecap:round;stroke-linejoin:round;stroke-miterlimit:10;" x1="223.318" y1="494.308" x2="207.657" y2="510.632"/>
	<path style="fill:none;stroke:#FFFFFF;stroke-width:2;stroke-linecap:round;stroke-linejoin:round;stroke-miterlimit:10;" d="
		M204.808,468.875c0,0-13.834,19.289-14.85,25.432"/>
	<path style="fill:none;stroke:#FFFFFF;stroke-width:2;stroke-linecap:round;stroke-linejoin:round;stroke-miterlimit:10;" d="
		M186.502,443.438c0,0-13.021,16.744-15.054,22.258"/>
	<path style="fill:none;stroke:#FFFFFF;stroke-width:2;stroke-linecap:round;stroke-linejoin:round;stroke-miterlimit:10;" d="
		M177.347,430.509c0,0-13.222,18.229-14.442,21.618"/>
	<path style="fill:none;stroke:#FFFFFF;stroke-width:2;stroke-linecap:round;stroke-linejoin:round;stroke-miterlimit:10;" d="
		M165.55,413.976c0,0-11.189,17.168-13.021,22.044"/>
	<path style="fill:none;stroke:#FFFFFF;stroke-width:2;stroke-linecap:round;stroke-linejoin:round;stroke-miterlimit:10;" d="
		M154.158,397.867c0,0-12.206,14.414-13.833,18.653"/>
	<path style="fill:none;stroke:#FFFFFF;stroke-width:2;stroke-linecap:round;stroke-linejoin:round;stroke-miterlimit:10;" d="
		M145.614,385.785c0,0-12.408,13.352-13.63,17.591"/>
	<path style="fill:none;stroke:#FFFFFF;stroke-width:2;stroke-linecap:round;stroke-linejoin:round;stroke-miterlimit:10;" d="
		M138.901,376.246c0,0-11.597,10.387-14.241,15.262"/>
	<path style="fill:none;stroke:#FFFFFF;stroke-width:2;stroke-linecap:round;stroke-linejoin:round;stroke-miterlimit:10;" d="
		M128.527,361.194c0,0-10.783,12.508-12.411,16.322"/>
	<path style="fill:none;stroke:#FFFFFF;stroke-width:2;stroke-linecap:round;stroke-linejoin:round;stroke-miterlimit:10;" d="
		M126.086,357.805c0,0-13.834,9.75-14.85,11.657"/>
	<path style="fill:none;stroke:#FFFFFF;stroke-width:2;stroke-linecap:round;stroke-linejoin:round;stroke-miterlimit:10;" d="
		M196.671,457.639c0,0-14.644,17.597-15.255,23.316"/>
	<path style="fill:none;stroke:#FFFFFF;stroke-width:2;stroke-linecap:round;stroke-linejoin:round;stroke-miterlimit:10;" d="
		M117.947,345.936c0,0-12.206,8.689-13.22,12.716"/>
	<path style="fill:none;stroke:#FFFFFF;stroke-width:2;stroke-linecap:round;stroke-linejoin:round;stroke-miterlimit:10;" d="
		M106.965,329.613c-0.205-0.212-9.765,5.511-12.816,10.812"/>
	<path style="fill:none;stroke:#FFFFFF;stroke-width:2;stroke-linecap:round;stroke-linejoin:round;stroke-miterlimit:10;" d="
		M97.606,316.047c0,0-10.168,9.114-10.781,11.871"/>
	<path style="fill:none;stroke:#FFFFFF;stroke-width:2;stroke-linecap:round;stroke-linejoin:round;stroke-miterlimit:10;" d="
		M86.825,299.727c-2.44,0.424-9.765,5.3-10.984,8.902"/>
	<path style="fill:none;stroke:#FFFFFF;stroke-width:2;stroke-linecap:round;stroke-linejoin:round;stroke-miterlimit:10;" d="
		M93.945,312.02c0,0-11.189,4.027-12,7.631"/>
	<path style="fill:none;stroke:#FFFFFF;stroke-width:2;stroke-linecap:round;stroke-linejoin:round;stroke-miterlimit:10;" d="
		M71.773,276.834c0,0-7.324,4.238-9.359,7.417"/>
	<path style="fill:none;stroke:#FFFFFF;stroke-width:2;stroke-linecap:round;stroke-linejoin:round;stroke-miterlimit:10;" d="
		M64.449,264.965c0,0-7.935,7.631-7.526,8.479"/>
	
		<line style="fill:none;stroke:#FFFFFF;stroke-width:2;stroke-linecap:round;stroke-linejoin:round;stroke-miterlimit:10;" x1="56.923" y1="252.882" x2="50.412" y2="260.724"/>
	<path style="fill:none;stroke:#FFFFFF;stroke-width:2;stroke-linecap:round;stroke-linejoin:round;stroke-miterlimit:10;" d="
		M104.929,128.035c0,0,35.396-8.268,74.248,11.658c33.973,17.381,130.392,64.013,180.639,108.738
		c50.242,44.726,138.527,166.391,161.923,212.812"/>
	<path style="fill:none;stroke:#FFFFFF;stroke-width:2;stroke-linecap:round;stroke-linejoin:round;stroke-miterlimit:10;" d="
		M353.711,262.844c0,0,124.494,154.098,148.296,207.514c0,0-69.978-146.679-155.618-213.448c-3.05-2.332-6.101-4.663-9.155-6.783"/>
	<path style="fill:none;stroke:#FFFFFF;stroke-width:2;stroke-linecap:round;stroke-linejoin:round;stroke-miterlimit:10;" d="
		M488.579,475.869c0,0-97.032-183.138-213.996-252.662"/>
	<path style="fill:none;stroke:#FFFFFF;stroke-width:2;stroke-linecap:round;stroke-linejoin:round;stroke-miterlimit:10;" d="
		M313.231,250.55c0,0,114.526,125.059,165.582,228.075"/>
	<path style="fill:none;stroke:#FFFFFF;stroke-width:2;stroke-linecap:round;stroke-linejoin:round;stroke-miterlimit:10;" d="
		M255.256,239.952c0,0,156.025,156.641,199.352,244.819"/>
	<path style="fill:none;stroke:#FFFFFF;stroke-width:2;stroke-linecap:round;stroke-linejoin:round;stroke-miterlimit:10;" d="
		M306.314,269.202c0,0,136.698,153.038,161.519,212.39"/>
	<path style="fill:none;stroke:#FFFFFF;stroke-width:2;stroke-linecap:round;stroke-linejoin:round;stroke-miterlimit:10;" d="
		M443.624,487.314c0,0-73.641-109.162-97.845-129.722"/>
	<path style="fill:none;stroke:#FFFFFF;stroke-width:2;stroke-linecap:round;stroke-linejoin:round;stroke-miterlimit:10;" d="
		M165.752,133.97c0,0,70.587-11.233,102.524-4.027c0,0,37.632-5.936,50.445-3.392c0,0,23.802-2.119,32.753-4.875
		c2.235-0.635,3.864-2.544,4.271-4.874c0.815-3.816,0.61-9.963-6.306-13.355"/>
	<path style="fill:none;stroke:#FFFFFF;stroke-width:2;stroke-linecap:round;stroke-linejoin:round;stroke-miterlimit:10;" d="
		M211.319,122.736"/>
	<path style="fill:none;stroke:#FFFFFF;stroke-width:2;stroke-linecap:round;stroke-linejoin:round;stroke-miterlimit:10;" d="
		M67.093,84.581"/>
	<path style="fill:none;stroke:#FFFFFF;stroke-width:2;stroke-linecap:round;stroke-linejoin:round;stroke-miterlimit:10;" d="
		M199.317,131.214"/>
	<path style="fill:none;stroke:#FFFFFF;stroke-width:2;stroke-linecap:round;stroke-linejoin:round;stroke-miterlimit:10;" d="
		M534.147,454.672c0,0-37.634-124.846-127.748-197.762"/>
	<path style="fill:none;stroke:#FFFFFF;stroke-width:2;stroke-linecap:round;stroke-linejoin:round;stroke-miterlimit:10;" d="
		M443.624,264.965c79.335,54.898,108.625,178.474,108.625,178.474s14.646-100.684-13.628-182.715"/>
	<path style="fill:none;stroke:#FFFFFF;stroke-width:2;stroke-linecap:round;stroke-linejoin:round;stroke-miterlimit:10;" d="
		M318.723,126.339c0,0,141.581,44.299,185.928,108.95"/>
	<path style="fill:none;stroke:#FFFFFF;stroke-width:2;stroke-linecap:round;stroke-linejoin:round;stroke-miterlimit:10;" d="
		M268.276,129.943c0,0,177.789,76.307,204.03,110.222"/>
	<path style="fill:none;stroke:#FFFFFF;stroke-width:2;stroke-linecap:round;stroke-linejoin:round;stroke-miterlimit:10;" d="
		M348.222,147.536c0,0,96.012,41.968,109.843,56.169"/>
	<path style="fill:none;stroke:#FFFFFF;stroke-width:2;stroke-linecap:round;stroke-linejoin:round;stroke-miterlimit:10;" d="
		M288.822,161.736c0,0,144.428,54.264,189.992,122.305"/>
	<path style="fill:none;stroke:#FFFFFF;stroke-width:2;stroke-linecap:round;stroke-linejoin:round;stroke-miterlimit:10;" d="
		M488.579,260.724c0,0,41.905,54.053,50.857,91.357"/>
	<path style="fill:none;stroke:#FFFFFF;stroke-width:2;stroke-linecap:round;stroke-linejoin:round;stroke-miterlimit:10;" d="
		M346.387,122.736c0,0,3.865-8.055-2.034-11.87"/>
	<path style="fill:none;stroke:#FFFFFF;stroke-width:2;stroke-linecap:round;stroke-linejoin:round;stroke-miterlimit:10;" d="
		M207.657,116.801c0,0-49.635-11.659-64.892-17.594c-15.461-5.934-57.974-15.261-81.978-12.929"/>
	<path style="fill:none;stroke:#FFFFFF;stroke-width:2;stroke-linecap:round;stroke-linejoin:round;stroke-miterlimit:10;" d="
		M178.365,122.736c0,0-37.634-10.386-55.737-17.594c-18.311-7.208-61.637-15.685-81.775-12.93"/>
	<path style="fill:none;stroke:#FFFFFF;stroke-width:2;stroke-linecap:round;stroke-linejoin:round;stroke-miterlimit:10;" d="
		M139.103,127.398c0,0-55.94-20.772-67.129-24.163"/>
	<path style="fill:none;stroke:#FFFFFF;stroke-width:2;stroke-linecap:round;stroke-linejoin:round;stroke-miterlimit:10;" d="
		M159.647,91.789c0,0,61.434,17.168,75.675,18.652"/>
	<path style="fill:none;stroke:#FFFFFF;stroke-width:2;stroke-linecap:round;stroke-linejoin:round;stroke-miterlimit:10;" d="
		M332.963,103.235c0,0-78.315-29.676-225.998-27.557"/>
	<path style="fill:none;stroke:#FFFFFF;stroke-width:2;stroke-linecap:round;stroke-linejoin:round;stroke-miterlimit:10;" d="
		M193.215,130.366c0,0,49.43,15.473,72.823,34.339"/>
	<path style="fill:none;stroke:#FFFFFF;stroke-width:2;stroke-linecap:round;stroke-linejoin:round;stroke-miterlimit:10;" d="
		M352.289,130.366c0,0,79.74,1.909,129.986,41.121"/>
	<path style="fill:none;stroke:#FFFFFF;stroke-width:2;stroke-linecap:round;stroke-linejoin:round;stroke-miterlimit:10;" d="
		M549.402,611.738c0,0-38.65,147.527-220.507,200.941"/>
</g>
</svg>
