<?xml version="1.0" encoding="iso-8859-1"?>
<!-- Generator: Adobe Illustrator 16.0.0, SVG Export Plug-In . SVG Version: 6.00 Build 0)  -->
<!DOCTYPE svg PUBLIC "-//W3C//DTD SVG 1.1//EN" "http://www.w3.org/Graphics/SVG/1.1/DTD/svg11.dtd">
<svg version="1.1" id="Layer_1" xmlns="http://www.w3.org/2000/svg" xmlns:xlink="http://www.w3.org/1999/xlink" x="0px" y="0px"
	 width="772px" height="1624.445px" viewBox="-222.861 -782.555 772 1624.445"
	 style="enable-background:new -222.861 -782.555 772 1624.445;" xml:space="preserve">
<g id="Cottonball_2">
	<g id="Layer_6">
		<g>
			<path style="fill:none;stroke:#FFFFFF;stroke-width:2;stroke-miterlimit:10;" d="M-135.483,52.691
				c3.693,0.306,9.235,1.228,17.853,3.384l83.117,93.275l-7.081,7.083c-3.696-0.614-11.699-2.155-17.549-3.388
				c-1.539-0.306-4.001-0.306-7.386-0.617c-13.543-0.306-41.251-0.612-45.253-16.619l-0.311-0.306l-0.304-0.312
				c-8.313-15.082-14.778-23.087-18.167-24.009h-0.613l-0.618,0.308c-4.923,0.924-10.157,1.23-13.237,0.614
				c3.696-6.154,13.543-21.242,29.553-28.937l2.768-1.229l-1.229-2.77c-0.31-0.307-4.004-7.696-9.237-14.47
				C-126.865,59.152-131.171,55.152-135.483,52.691 M-144.719,52.074c0,0.617,0,1.232,0,1.232
				c14.16-0.923,28.63,27.396,28.63,27.396c-22.162,10.465-32.629,32.939-32.629,32.939c3.693,3.387,18.159,0.619,18.159,0.619
				c4.008,0.614,16.01,22.468,16.01,22.468c5.54,22.166,47.717,17.855,54.795,19.395c7.387,1.54,19.085,3.693,19.085,3.693
				l10.159-10.156l-85.579-96.047C-140.406,47.149-144.41,50.227-144.719,52.074L-144.719,52.074z"/>
		</g>
		<path style="fill:none;stroke:#FFFFFF;stroke-width:2;stroke-miterlimit:10;" d="M77.543,29.295
			c0,0-37.248-108.362-68.648-123.135C-22.504-108.617-73.3-74.139-73.3-74.139s-27.395-1.849-37.248,44.943
			c0,0-3.694,18.779,10.156,21.549c0,0-20.931,15.394-27.088,44.945c-0.923,4.923,0,9.85,3.387,13.545
			c2.769,3.385,6.157,8.308,5.848,13.235c0,0,3.388,48.021,15.085,52.946c0,0,7.697,14.162,12.623,15.083
			c0,0,16.928,24.935,71.723,17.238l44.638-4.616L77.543,29.295L77.543,29.295z"/>
	</g>
	<g id="Layer_5">
		<g>
			<path style="fill:none;stroke:#FFFFFF;stroke-width:2;stroke-miterlimit:10;" d="M-51.444-54.436l42.175-25.553l11.083-6.772
				c2.155-0.307,4.617-0.307,6.772-0.615l7.697-0.308l-5.545-4.928c-4.613-4.002-14.777-4.31-23.699-3.693
				c16.619-5.234,30.165,7.697,31.088,8.005l0.922,1.232l1.54-0.308c8.312-1.54,20.01,14.159,23.396,20.008l0.31,0.925l1.229,0.308
				C74.465-56.899,74.465-5.49,74.153-4.873v0.92l0.618,0.617c23.089,32.633,29.859,52.638,28.937,58.49
				c-0.306,1.232-0.617,1.845-1.231,1.845c-6.156,3.078-10.157,8.007-11.39,14.776c-0.924,4.929-0.306,9.233,0.308,11.39
				c0,0.312,0,0.619-0.308,1.233c-0.306,2.15-0.616,8.622,10.773,10.775c4.003,0.611,7.082,1.843,9.543,3.385
				c-0.923-0.307-1.846-0.307-2.766,0c-1.235,0.305-2.774,1.234-3.697,4.312l-0.31,2.151l1.542,1.233c0,0,2.465,2.153,1.849,5.539
				c-0.617,2.466-2.464,6.465-8.62,11.394l-1.234,0.615v1.537c0,0.617-1.539,3.696-10.773,5.543h-0.307h-0.31
				c-2.154,0.923-7.696,3.078-10.159,6.771c-0.308,0-0.308-0.307-0.615-0.307l-3.078-3.384l-2.155,4.003
				c-1.539,2.77-7.08,11.082-12.622,11.082c-5.545,0-15.086,1.54-19.395,4.62c-2.461-1.848-7.388-5.235-12.005,0
				c-3.694,4.619-9.852,7.077-14.161,7.695c-5.233,0.617-21.856,8.003-25.856,11.697c-2.771,0.617-14.47,0.923-21.244-3.694
				c-3.08-2.463-4.309-5.542-3.386-9.542c0.925-5.233,16.933-13.237,27.398-16.93l3.079-0.923l-1.232-3.079
				c-1.846-4.002-2.153-8.003-2.461-10.773c0,0,0,0,0.31,0c6.769,5.848,19.086,13.235,19.703,13.852l4.922,3.078l-0.305-6.159
				l-1.233-16.928l-0.307-3.696l-3.694,0.924c-5.233,1.539-11.083,2.153-16.623,2.465c-0.618-0.618-0.618-1.234-0.924-1.234
				c-0.311-3.078-2.46-3.696-3.076-3.696c-3.388-0.306-4.003,3.696-4.312,4.93l0,0c-4.925-0.312-9.852-0.926-13.854-1.849
				c23.396-4.309,41.56-20.01,42.483-20.625l22.167-19.394L8.59,93.946c-1.849,0.923-4.002,1.234-6.155,0
				c-7.083-2.772-13.548-12.932-14.471-17.547c-1.847-7.696-26.475-32.632-31.398-37.25l-0.31-0.307h-0.616
				c-4.923-2.153-8.003-10.775-8.927-13.853l-0.617-1.843l-2.155-0.31c-2.462-0.617-6.463-1.539-7.386-3.385
				c-0.307-0.305-0.307-0.305-0.307-0.616c0,0,0-0.307,0.615-0.921c1.847-3.696,10.157-1.847,13.853-0.619l0.923,0.619h0.925
				c24.936-7.081,32.938,1.232,41.558,14.158c8.928,13.238,36.63,21.855,37.863,22.165l8.003,2.462l-4.308-7.08
				c0,0-1.539-2.771-2.157-9.236c0-0.923-0.31-1.847-0.617-2.772c0.923,1.232,1.848,2.462,2.155,3.694l1.54,2.464l2.769-1.229
				c3.388-1.852,5.851-5.851,7.08-11.698c1.541-8.313,0.31-18.166,0.31-18.472v-0.922l-0.617-0.616
				C44.295,8.679,3.046-43.963-18.814-50.733c-13.543-4.311-24.625,2.152-31.397,9.232L-51.444-54.436 M-54.828-55.976l0.923,23.7
				c0,0,12.009-22.162,32.941-15.699C-0.033-41.509,42.449,12.36,42.449,12.36s1.232,9.542-0.307,17.549
				c-0.924,4.307-2.463,8.001-5.542,9.541c0,0-11.392-19.703-20.314-12.62c0,0,12.31,6.462,13.236,14.158
				c0.922,7.387,3.076,10.463,3.076,10.463S5.199,43.144-3.421,30.521C-12.04,17.9-20.964,7.435-48.364,15.132
				c0,0-13.544-5.234-17.545,1.845c-0.312,0.617-0.617,1.234-0.617,1.846c-1.234,5.85,10.465,7.389,10.465,7.389
				s3.387,12.62,10.467,16.006c0,0,28.937,28.94,30.785,36.021c1.848,7.079,14.776,25.239,25.547,19.393
				c0,0-27.396,24.013-57.565,20.623c0,0,14.163,6.774,33.56,7.389c0.308-0.922,0-1.844,0.308-2.77
				c0.616-2.461,1.23-3.076,1.23-1.227c0,0.921,1.229,2.459,2.768,3.999c5.85,0,12.008-0.922,18.778-2.768l1.233,16.93
				c0,0-14.16-8.312-19.703-14.162c-1.539,0-2.768,0-4.307,0c-0.308,3.696,0,9.543,2.765,15.086c0,0-27.397,10.155-29.243,19.393
				c0,0,0,0,0,0.308c-3.078,19.397,28.014,18.474,29.859,16.007c1.85-2.462,18.777-10.465,24.012-11.083
				c5.542-0.614,12.316-4,16.01-8.923c4.001-4.93,9.541,4,9.851,1.846c0.308-2.157,9.849-5.236,18.469-5.236
				c8.617,0,15.702-12.62,15.702-12.62s3.692,4.618,5.231,0.922c1.23-3.384,9.234-6.772,9.234-6.772
				c11.393-2.463,12.93-6.771,13.236-8.003c0-0.306,0-0.306,0-0.306c6.468-5.235,8.93-9.853,9.546-13.546
				c1.228-5.849-3.076-8.62-3.076-8.62c2.149-8.003,10.462,7.695,12.003,2.461c0-0.306,0-0.306,0-0.612
				c0.925-5.545-6.462-11.393-17.855-13.546c-8.31-1.541-8.616-5.235-8.31-7.387c0.309-0.926,0.615-1.538,0.615-1.538
				s-1.54-5.235-0.308-11.088c0.924-4.617,3.384-9.232,9.542-12.62c1.848-0.923,2.771-2.46,3.078-3.999
				c2.771-15.088-29.553-60.954-29.553-60.954s0.618-54.178-30.784-64.337c0,0-14.16-23.396-26.475-21.552
				c0,0-23.702-22.778-47.711-0.615c0,0,28.628-6.156,36.32,0.615c0,0-24.625,1.538-26.474,5.848c0,0.309,0,0.618,0,0.618
				c-0.615,3.385,7.697,1.231,7.697,1.231L-54.828-55.976L-54.828-55.976z"/>
		</g>
	</g>
</g>
<g id="Bottom_part">
	<g id="Layer_3">
		<path style="fill:none;stroke:#FFFFFF;stroke-width:2;stroke-miterlimit:10;" d="M303.491,278.335
			c0,0-11.082-12.316-15.698-12.627c-4.621-0.306-4.621-20.315-14.159-18.775c-9.854,1.232-13.549-3.696-17.238-0.618
			c-4.004,3.389,0-17.854-16.627-7.387c0,0-20.007,6.465-30.472,6.776c-10.467,0.304-12.008,14.774-12.008,14.774
			s-18.471,4.618-22.782,11.696c0,0-6.15-16.005-34.78-4.618c0,0-20.625,16.932-26.783,15.394c0,0-9.236-1.542-10.775,4.002
			c0,0-23.084,2.462-34.476,18.162c0,0-5.851,16.929-12.62,24.933c-6.772,7.391-16.625,16.627-12.622,25.553l-3.694,18.778
			l21.24,34.171l125.598,84.655l68.341-14.466l55.721-60.644l10.465-86.199L303.491,278.335z"/>
	</g>
	<g id="Layer_2">
		<g>
			<path style="fill:none;stroke:#FFFFFF;stroke-width:2;stroke-miterlimit:10;" d="M53.53,374.07
				c2.464-2.154,5.542-1.539,9.851,1.232L53.53,374.07 M47.987,390.388c1.849,2.151,3.696,4.619,6.155,7.08
				c7.391,8.001,14.778,14.157,14.778,14.47l10.469,8.619l-5.542-12.319c-3.389-8.001,0-18.16,2.461-23.392
				c3.387,5.233,6.157,15.391,7.387,22.161l0.31,2.154l2.156,0.31c2.459,1.229,12.314,12.622,20.315,22.779l0.616,0.924h1.231
				c6.771,1.233,18.47,9.544,24.01,13.853l0.31,0.308l0,0l2.77-3.386l1.537-1.23c-1.846-2.152-4.307-16.624-6.156-28.627v-0.311
				v-0.306c-5.54-13.237-2.156-21.853,1.849-26.785c1.846-2.458,3.692-3.383,3.692-3.383l3.387-2.154l-3.078-2.464l-5.235-4.923
				l1.542-4.619c0.306-0.308,0-0.614,0.306-0.922c0.311-0.617,0.925-0.617,1.542-0.924c0.922-0.31,1.849,0,2.77,0.307
				c2.464,1.539,3.696,5.848,4.002,7.08l0.617,2.464l2.155,0.304c5.848,0.616,9.236,3.078,10.773,7.694
				c1.542,3.697,0.927,7.083,0.927,7.083h-0.311l0.311,0.615l2.463,9.541l0,0l0,0c9.541,25.551,28.627,33.865,36.633,36.327
				c3.076,0.921,5.846,2.772,7.383,4.617c3.388,4.004,4.005,9.235,2.158,15.086c-1.542,4.31-4.003,8.001-4.31,8.309
				c-0.31,0.616-0.926,0.926-1.232,1.541c-2.463,3.075-2.771,4.925-2.771,5.537l-0.306,1.852l1.537,0.924
				c20.317,12.618,40.632,0,42.174-1.233c3.077-1.846,6.156-4.621,9.235-8.62c14.775-18.472,27.089-55.407,27.4-56.947l0,0l0,0
				c4.615-17.547,0.308-32.324-4.31-41.562c2.768,4.001,4.922,8.621,5.847,11.084c0.615,2.464,4.616,16.008,13.239,16.625
				c3.69,0.305,8.001-2.157,12.311-7.389c2.467-2.767,3.695-5.543,4.312-6.468c9.852-13.541,9.539-31.09-0.308-50.482
				c-6.466-12.314-15.391-22.163-17.855-24.626c-1.847-6.468-2.771-13.24-2.15-15.391c1.536-1.232,7.998-4.313,13.852-6.771
				l11.081,6.461l-1.846,4.925l-1.849,4.311l4.925-0.305c1.849,0,6.156,3.694,8.928,7.082l5.541,7.386l0.307-8.618
				c5.85,15.7,5.236,33.245,5.545,33.245v1.541l1.23,0.922c12.004,11.391,6.771,32.325-0.309,47.718
				c-7.695,17.543-18.778,32.32-18.778,32.32l-1.537,1.849l1.841,1.844c1.542,1.541-0.304,11.083-3.692,19.091l-0.618,1.228
				l0.312,0.923l7.386,21.241l-32.319,10.464l-7.698-14.156l-1.539-2.768l-2.772,1.54c-0.308,0.303-2.768,1.537-4.925,3.999
				c-3.079,3.696-1.847,6.77-1.233,8.312c0,0.616-0.922,3.073-4.617,7.39c-1.23,1.539-2.152,2.771-2.152,2.771l-1.85,1.846
				l1.539,1.537c0,0.924-0.614,3.696-4.003,8.62c-0.304,0.615-0.919,0.923-1.23,1.536c-4.927,6.161-6.77,5.853-10.466,5.236
				c-0.309,0-0.614,0-0.614-0.309c-0.307-0.922,0-4.311,2.771-9.235c2.151-3.382,1.846-6.158,0.617-7.691
				c-1.851-4.007-7.698-4.619-8.927-4.619l-1.849-0.31l-0.926,1.539l-6.154,10.156l-0.308,0.308l-0.307,0.309
				c0,0-2.77,8.313-8.928,15.696c-2.157,2.772-4.31,4.929-7.08,6.776c-2.462,2.156-4.925,2.156-7.697,0.922
				c-5.846-2.462-10.775-10.775-11.082-12.62c0-4.928-6.158-9.542-8.313-10.775l-1.843-1.235l-1.851,1.235
				c-6.462,4.31-15.082,3.079-16.927,2.771c-2.158-0.927-19.706-8.007-34.787-13.854c-14.161-4.931-19.394-12.312-20.933-14.471
				c0,0-0.307-0.307-0.307-0.612c-5.233-9.544-10.466-16.315-15.392-20.316c-7.391-5.85-13.853-18.475-14.16-18.782l-0.926-1.538
				l-1.23-0.307c-10.467-1.849-14.776-16.93-15.086-17.241v-0.922l-0.614-0.613C55.993,403.93,51.064,396.85,47.987,390.388
				 M41.218,357.138c-1.541,1.85-1.232,6.159-0.923,8.927l7.081-8.927C43.678,355.292,42.14,355.91,41.218,357.138L41.218,357.138z
				 M39.983,365.758c0,0-6.464,20.629,21.855,48.024c0,0,4.618,17.239,17.241,19.395c0,0,7.081,13.236,15.083,19.699
				c8.001,6.47,14.774,19.396,15.08,20.628c0.618,0.925,5.547,9.541,22.167,15.699c16.316,6.156,35.092,13.854,35.092,13.854
				s11.083,2.459,19.397-3.386c0,0,6.77,4.617,6.77,8.312c0,3.385,12.008,22.779,24.014,13.848c2.766-2.149,5.539-4.616,7.384-7.078
				c6.465-8.003,9.542-16.619,9.542-16.619l6.158-10.159c0,0,9.851,0.613,5.541,7.695c-4.311,6.771-4.923,13.547,0,14.161
				c4.621,0.923,7.39,1.229,13.548-6.463c0.306-0.615,0.921-0.928,1.228-1.54c6.773-8.929,4.311-12.314,4.311-12.314
				s0.924-1.23,2.462-2.771c2.772-3.385,6.155-8.619,4.619-11.081c-1.229-1.542-0.616-3.081,0.618-4.619
				c1.536-1.844,3.999-3.385,3.999-3.385l8.619,16.006l37.865-12.008l-8.311-24.625c0,0,7.389-17.547,3.076-22.474
				c0,0,44.944-59.406,18.776-84.345c0,0,1.851-52.024-31.398-61.566c0,0-15.696-4.62-19.392-3.386l-0.305,0.306
				c-1.233,1.54,39.402,10.156,39.402,31.091c0,0-6.77-8.619-11.698-8.619l3.078-7.08l-14.466-8.619c0,0-14.473,5.543-16.627,8.312
				l0,0c-2.154,2.768,1.85,18.469,1.85,18.469s40.942,41.562,18.158,71.728c0,0-1.535,3.078-4.308,6.157
				c-2.77,3.387-6.158,6.463-9.544,6.463c-6.771-0.614-10.463-14.466-10.463-14.466s-5.851-19.396-17.853-18.781
				c0,0,18.467,20.315,10.773,49.564c0,0-12.009,37.864-26.783,56.027c-2.769,3.387-5.85,6.152-8.618,7.694
				c0,0-19.396,13.236-39.096,1.23c0,0,0-1.539,2.153-4.309c0.31-0.616,0.923-0.925,1.232-1.542c0,0,12.314-15.697,2.156-27.705
				c-2.156-2.461-5.543-4.31-8.928-5.54c-7.388-2.152-25.553-10.465-34.478-34.785l-2.463-9.544c0,0,2.157-16.006-14.468-18.163
				c0,0-2.461-12.006-10.464-10.158c-0.926,0.31-2.463,0.925-3.079,1.846c-0.309,0.615-0.922,1.232-1.23,1.845l-1.845,5.237
				c-0.312,0.921,0,1.847,0.616,2.46l5.229,5.235c0,0-2.153,1.541-4.307,4.311c-4.004,4.926-9.235,15.083-2.463,30.167
				c0,0,3.693,27.401,7.08,30.479l0,0l0,0c-1.539-1.234-16.01-12.933-25.551-14.776c0,0-18.165-23.086-21.855-23.706
				c0,0-4.006-22.471-11.087-26.782c0,0-10.465,16.933-4.617,29.859c0,0-28.937-24.316-30.166-39.403
				C40.601,368.532,40.601,367.3,39.983,365.758L39.983,365.758z M50.143,373.455c-0.925,0.922-1.539,1.846-2.155,3.079
				l27.089,3.076C68.614,375.61,57.838,363.913,50.143,373.455L50.143,373.455z"/>
		</g>
		<g>
			<path style="fill:none;stroke:#FFFFFF;stroke-width:2;stroke-miterlimit:10;" d="M216.684,523.988
				c0.922-0.922,1.844-1.846,2.767-2.463c0.925-0.615,2.157-1.538,3.08-2.769c-2.77,19.085-9.542,60.026-13.543,79.422
				c-1.541,7.08,1.536,14.161,7.385,18.162c6.772,4.62,12.314,7.696,17.236,8.618c1.849,0.31,5.236,1.537,9.234,3.077
				c16.932,5.542,48.023,16.626,68.958,10.156c3.077-0.92,6.156-3.077,8.002-5.54c1.849-2.459,3.075-4.923,3.694-8
				c0.617-3.385,1.23-4.314,0.923-4.619c0.615-1.539,1.23-3.078-38.787-133.296c-1.23-3.695-0.307-8.313,2.154-11.387
				c1.847-2.158,4.314-3.695,7.079-4.619c2.773-0.616,5.852-1.233,8.007-2.158c3.079-0.921,6.77-0.921,9.543,0.621
				c3.076,1.537,4.923,3.998,6.153,7.386l50.486,157.61c3.383,11.082,8.004,21.854,13.545,31.706l67.109,125.904
				c1.228,2.774,1.846,5.544,1.228,8.312c-2.767,12.622-5.847,21.857-8.618,25.863c-0.307,0.308-0.307,0.308-0.307,0.615
				c-0.922,1.231-2.154,2.15-3.697,2.461c-5.229,2.155-11.39-0.618-14.469-5.849l-75.726-135.451
				c-0.309-0.613-0.615-0.923-0.924-1.538c-5.233-7.386-22.471-31.397-37.556-29.243c-12.622,1.848-92.351-7.695-121.904-22.473
				c-5.233-2.462-8.001-8.311-6.156-13.853c0.923-3.076,2.771-6.773,5.235-10.773c0.306-0.616,8.001-12.314,13.853-24.013
				c0.617-1.23,0.923-2.153,1.229-3.694l12.314-54.183C214.836,526.759,215.758,525.219,216.684,523.988L216.684,523.988
				 M214.529,521.83c-1.539,1.852-2.461,4.004-3.08,6.158l-12.312,54.183c0,1.233-0.617,2.154-0.923,3.075
				c-5.543,11.394-13.546,23.396-13.546,23.396c-3.076,4.621-4.617,8.619-5.542,11.698c-1.845,6.774,1.54,14.163,7.697,17.237
				c30.167,15.089,109.899,24.63,123.751,22.784c13.851-1.851,31.705,23.701,34.781,27.699c0.311,0.312,0.619,0.93,0.619,0.93
				l75.729,135.446c3.383,6.462,11.39,9.538,18.161,7.078c1.85-0.92,3.385-1.846,4.926-3.691c0.309-0.312,0.309-0.617,0.614-0.617
				c4.003-5.849,7.39-19.396,9.235-27.091c0.617-3.386,0.31-7.39-1.537-10.465l-65.877-125.292
				c-5.234-10.154-9.85-20.624-13.239-31.706l-50.482-157.61c-2.771-8.314-11.699-12.622-19.704-9.851
				c-2.458,0.92-4.923,1.536-7.697,2.152c-3.693,0.617-7.077,2.772-8.924,5.233c-3.076,3.697-4.308,9.237-2.771,14.163
				c12.316,39.094,39.714,128.98,38.789,131.137c-0.308,0.924-0.921,3.079-1.232,4.925c-0.308,2.463-1.54,4.619-3.076,6.772
				c-1.847,2.155-4.002,4.004-7.081,4.62c-25.553,8.002-67.724-11.084-76.96-13.238c-5.233-1.23-11.391-4.926-16.316-8.312
				c-4.615-3.385-7.385-9.54-6.156-15.39c4.619-24.319,16.314-92.967,14.158-90.505c-0.919,1.228-3.075,4.618-5.229,7.385
				c-1.234,1.541-2.155,2.773-3.389,3.079C216.684,519.367,215.451,520.601,214.529,521.83L214.529,521.83z"/>
		</g>
	</g>
</g>
<g id="Top_stick">
	<g>
		<path style="fill:none;stroke:#FFFFFF;stroke-width:2;stroke-miterlimit:10;" d="M-201.668-695.354
			c12.62-2.463,29.552-3.386,32.632,2.154c3.999,7.695,17.544,128.061,26.164,207.176c-0.615,7.388,4.001,20.008,9.235,34.169
			c2.154,5.541,4.311,11.698,6.156,18.164c7.083,21.24,108.055,185.01,112.359,192.091l2.773,3.999l2.769-4.309l0.31-0.308
			c1.231-1.54,5.541-0.923,6.156-0.309l1.847,0.617l1.54-1.231c2.461-2.155,4.923-5.234,7.39-8.313
			c29.553-36.323,48.02-111.128,51.1-124.365l8.927-2.156l-0.925,7.081v0.616l0.925,0.922c2.155,8.005-26.783,81.575-55.412,147.145
			l-0.615,1.233l0.615,1.23l9.545,20.01v0.31l0.307,0.309c10.157,11.389,7.081,16.623,6.156,17.854l-0.923,0.615v1.232
			c-0.309,11.697,30.476,72.343,34.168,79.115l176.391,352.781l-18.778,4.312l-19.395-2.462L54.759-44.276L8.892-141.553l0,0
			l-0.308-0.308c-56.333-93.275-165.001-274.589-169.927-293.675l-0.308-0.308l-0.308-0.31c0-0.309-15.7-41.557-12.623-66.184
			C-170.885-525.43-197.358-671.959-201.668-695.354 M-205.054-697.51c0,0,31.705,170.542,28.016,196.093
			c-3.389,25.859,12.62,67.725,12.62,67.725c6.156,25.245,170.231,294.905,170.231,294.905l45.87,97.279l145.605,300.14l21.858,2.46
			l23.084-4.922L64.306-100.306c0,0-34.174-66.493-34.174-77.879c0,0,0.312-0.311,0.312-0.619c1.228-1.54,5.233-8.312-6.16-21.548
			l-9.54-20.009c0,0,60.333-138.528,55.409-149.61l1.54-11.7l-15.395,3.695c0,0-19.083,85.89-50.792,124.984
			c-2.464,2.771-4.927,5.542-7.389,8.004c0,0-6.771-2.462-9.85,1.539c-0.311,0.309-0.311,0.309-0.311,0.617
			c0,0-104.971-170.233-112.05-191.474c-7.08-21.241-16.313-41.867-15.392-51.41c0,0-20.317-197.939-26.473-208.713
			C-172.114-705.513-205.054-697.51-205.054-697.51L-205.054-697.51z"/>
	</g>
	<path style="fill:none;stroke:#FFFFFF;stroke-width:2;stroke-miterlimit:10;" d="M183.127,138.267l29.863,16.008
		c0,0,4.311,35.092-0.616,41.867c-4.926,6.768,20.009,40.02,20.009,40.02s19.396-68.033,11.701-99.434
		c0,0,9.538-12.926-2.156-17.235c-12.005-4.314-9.852,7.385-9.852,7.385s-12.926,9.545-58.489-8.002"/>
	<path style="fill:none;stroke:#FFFFFF;stroke-width:3;stroke-miterlimit:10;" d="M124.639,109.639c0,0-35.093-16.315-38.171-22.164
		c-3.078-5.54,0.921-8.003,0.921-8.003l8.313-0.923c0,0,12.005,7.695,19.394,11.391"/>
</g>
<g id="ANIMERA_Cottonball">
	<path style="fill:none;stroke:#FFFFFF;stroke-width:2;stroke-miterlimit:10;" d="M253.316-395.829c0,0,12.928-13.238,20.933-13.853
		c8-0.306,29.242-13.851,19.086-44.021c-7.387-21.547-7.699-37.861-7.083-45.251c0.31-2.769-0.617-5.541-2.462-7.695
		c-1.232-1.539-2.461-3.695-2.156-4.927c0.924-2.46-20.317-20.931-24.625-24.625c-0.311-0.307-0.926-0.615-1.539-0.922
		c-3.696-2.157-20.01-12.623-21.55-18.473c-1.847-6.773-27.396-19.394-53.254,0c0,0-28.32-20.931-30.476-29.553
		c-2.155-8.928-10.158-4.003-10.158-4.003s-1.231-8.927-10.775-9.235c-9.542-0.309,6.773-8.312-20.013-5.232
		c0,0-8.307,1.23-3.998-4.925c4.31-6.159-12.006,0-12.006,0s-41.249-12.007-49.56,18.47c0,0-4.004,14.775-8.929,15.084
		c-4.926,0.308-34.171-3.695-26.166,40.635c0,0-12.625,29.553-1.232,42.175c11.082,12.312,103.43,126.211,103.43,126.211
		l81.886,10.774L253.316-395.829z"/>
	<g>
		<path style="fill:none;stroke:#FFFFFF;stroke-width:2;stroke-miterlimit:10;" d="M176.665-560.216l-0.307,1.848l3.385,0.309
			c5.234,0.616,13.237,2.155,17.545,4.618c-0.616-0.309-1.23-0.309-1.845-0.309h-0.617h-0.309
			c-14.467,2.462-32.016,7.081-32.939,14.162c-0.923,6.159-7.081,26.166-12.005,31.091l-0.924,0.925v1.23l-3.08,29.555
			c-7.387,8.311-36.016,41.251-35.709,53.255l-0.924,30.475v3.694l3.696-0.308c0,0,0.618,0,1.229,0c1.233,0,4.311,0.308,5.852,1.847
			c0.922,1.232,1.229,3.08,0.616,5.85l-0.616,2.461l2.155,0.924l30.167,13.236l0.612,0.308h0.619h6.461l4.007,3.078l0.305,0.308
			h0.618c0.616,0,12.003,3.696,23.698,3.696c9.542,0,16.932-2.465,21.551-7.082c4.926-4.311,18.778-15.085,25.243-16.624
			c5.235-1.23,7.08-5.542,8.313-8.311c0-0.31,0.309-0.615,0.309-0.924c0.612,0.31,1.23,0.924,2.15,2.153l2.465,2.772l2.154-2.772
			l0.308-0.306v0.306v1.848l1.539,0.925l6.771,4.002l-12.623,8.31l-0.309-0.308l-0.308,0.308c0,0-5.232,7.081-11.388,7.081
			c-1.847,0-3.692-0.616-5.54-1.849l-2.156-1.846l-1.85,2.154c0,0.307-15.082,17.239-36.015,17.239
			c-4.311,0-8.618-0.617-12.931-2.156l-2.77-0.923l-1.229,2.771c-0.305,0.308-4.62,10.773-23.396,10.773
			c-6.772,0-14.468-1.229-23.089-4.002l-0.923-0.311l-0.924,0.311l-13.236,4.002l-1.844,0.617l-0.31,1.848
			c-0.925,4.001-1.848,8.618-2.77,11.697c-3.388-5.231-8.005-11.697-13.544-11.697c-0.309,0-0.309,0-0.617,0
			c-2.772,0.309-5.231,0.617-6.771,0.925v-4.004v-1.538l-1.233-0.925l-10.158-7.08l-0.923-0.616H71.38l-5.85,0.308
			c-1.847-4.619-5.237-12.007-7.697-14.16c-3.387-2.772-14.16-16.313-12.316-22.472l0.927-3.077l-3.078-0.924
			c-3.078-0.614-6.156-2.154-7.08-3.08c-0.311-1.536-1.849-2.769-3.696-2.769c-3.694,0-13.237,6.464-21.244,12.315
			c-1.229-0.309-3.69-0.923-5.539-3.695c-3.383-5.233-6.771-19.699,9.236-59.719l0.312-0.923l-0.312-0.925
			c0-0.31-1.54-6.157-4.31-12.93c-4.004-9.233-8.927-15.084-14.469-16.93c-0.308,0-0.308,0-0.308,0l0,0c0,0-0.311-0.619,0.308-2.464
			c3.695-10.773,24.628-31.093,30.784-33.861l1.539-0.614l0.309-1.849c1.232-8.311,2.77-17.237,4-24.009
			c0.31,0.923,0.617,1.54,0.923,2.155c0.926,1.23,2.157,1.847,3.695,1.847c1.538,0,3.383-0.617,4.924-1.54
			c7.082,36.326,8.623,36.326,11.389,36.326h1.54l0.924-0.922c0.927-1.231,1.233-2.463,1.233-6.772
			c-0.308-5.232,4-23.087,7.079-24.936c5.235-1.23,21.24-5.233,24.627-8.004l0,0l0,0c0.307-0.306,6.156-6.157,16.931-6.157
			c3.692,0,7.387,0.616,11.081,1.847l1.23,0.308l1.234-0.617c3.694-1.846,8.926-4.619,14.469-7.695
			c-0.926,0.924-1.849,1.847-3.08,2.769l-3.692,3.385l4.923,1.847c3.696,1.23,15.7,5.54,19.392,5.54c0.618,0,1.232,0,1.849-0.305
			c0.614-0.309,1.538-0.925,2.768-1.847c2.772-2.157,7.391-6.155,12.314-6.464h1.228l0.924-0.925
			C173.276-556.519,175.122-558.675,176.665-560.216 M163.122-575.606c-4.929,0-8.929,2.769-10.471,4.31
			c-2.151,2.155-33.552,18.471-33.552,18.471c-4.616-1.541-8.62-2.154-12.006-2.154c-12.312,0-19.088,7.078-19.088,7.078
			c-3.075,2.771-23.395,7.389-23.395,7.389c-5.85,2.156-9.542,24.012-9.235,28.014c0,3.079,0,4.615-0.307,4.615
			c-1.848,0-9.235-38.17-9.235-38.17s-4.617,3.694-7.081,3.694c-0.616,0-0.926-0.306-1.23-0.615
			c-1.847-2.154-2.771-15.085-2.771-15.085c-2.77,3.078-8.003,38.478-8.003,38.478c-9.238,4.003-42.174,38.172-30.476,42.173
			c11.698,4.001,16.931,27.396,16.931,27.396c-26.783,66.493-1.852,67.726,0,67.726l0,0c0,0,16.622-12.315,20.315-12.315
			c0.308,0,0.619,0,0.619,0.308c0.306,3.079,9.235,5.234,9.235,5.234c-2.772,8.311,10.771,23.396,13.236,25.552
			c2.769,2.154,7.388,15.083,7.388,15.083l8.002-0.306l10.159,7.079v8.001c0,0,4.004-1.229,10.158-1.846h0.308
			c6.158,0,12.929,14.775,14.469,15.083l0,0c1.231,0,4.926-17.545,4.926-17.545l13.236-4.002c9.543,3.077,17.55,4.002,24.012,4.002
			c21.24,0,26.161-12.622,26.161-12.622c4.932,1.541,9.546,2.462,13.854,2.462c22.471,0,38.481-18.163,38.481-18.163
			c2.463,1.847,4.925,2.464,7.387,2.464c8.005,0,13.852-8.313,13.852-8.313l16.933-11.082l-11.084-6.771v-8.927l-5.85,7.079
			c-2.462-2.77-4-3.693-4.923-3.693c-3.081,0-2.464,8.618-8.621,9.85c-8.312,1.846-26.472,17.237-26.472,17.237
			c-4.618,4.618-12.01,6.158-19.396,6.158c-11.392,0-22.778-3.385-22.778-3.385l-4.927-3.695h-7.388l-30.167-13.237
			c2.156-10.465-6.158-11.699-9.541-11.699c-0.928,0-1.539,0-1.539,0l0.923-30.474c-0.923-11.393,35.398-51.719,35.398-51.719
			l3.077-30.476c5.85-5.847,12.009-26.473,12.93-32.938c0.923-6.156,30.476-11.391,30.476-11.391
			c7.079,0.925,4.001,15.084,4.001,15.084s1.847-3.693,4.001-13.237c2.155-9.85-23.083-12.005-23.083-12.005
			c0.612-3.079,0-4.31-0.924-4.31c-2.77,0-10.16,9.236-10.16,9.236c-7.388,0.923-14.16,8.003-16.005,8.927c0,0-0.308,0-0.616,0
			c-3.385,0-18.47-5.542-18.47-5.542c23.393-21.239,34.167-21.855,35.091-21.855l0,0
			C166.815-575.298,164.965-575.606,163.122-575.606L163.122-575.606z"/>
	</g>
</g>
</svg>
