<?xml version="1.0" encoding="utf-8"?>
<!-- Generator: Adobe Illustrator 16.0.0, SVG Export Plug-In . SVG Version: 6.00 Build 0)  -->
<!DOCTYPE svg PUBLIC "-//W3C//DTD SVG 1.1//EN" "http://www.w3.org/Graphics/SVG/1.1/DTD/svg11.dtd">
<svg version="1.1" id="Layer_1" xmlns="http://www.w3.org/2000/svg" xmlns:xlink="http://www.w3.org/1999/xlink" x="0px" y="0px"
	 width="554px" height="540px" viewBox="0 0 554 540" enable-background="new 0 0 554 540" xml:space="preserve">
<circle fill="none" stroke="#FFFFFF" stroke-width="5" stroke-miterlimit="10" cx="271.26" cy="268.095" r="260.192"/>
<g id="XMLID_2_">
	<g>
		<path fill="none" stroke="#FFFFFF" stroke-width="3" stroke-miterlimit="10" d="M531.66,288.333
			C531.66,288.229,531.66,288.229,531.66,288.333c0.104-1.661,0.311-3.632,0.413-5.293c0.208-2.49,0.312-5.085,0.312-7.575
			c0.104-2.492,0.104-4.983,0.104-7.474c0-85.001-42.345-160.039-107.003-205.393l-0.104-0.104
			c-10.275,8.511,7.161,30.721,7.161,30.721c9.754,32.484-39.024,15.88-39.024,15.88c-6.851-37.467-6.746,3.113-6.746,3.113h-8.51
			c2.282,9.134-23.768,20.653-23.768,20.653c-19.095-3.839-13.803,6.85-13.803,6.85l9.963,12.246l-0.727,15.258l-30.616-0.728
			l0.726,38.299c22.211,8.407,36.741-6.124,36.741-6.124v-9.134c6.85-3.114,20.652-19.926,20.652-19.926l26.051-1.557
			c32.174,41.308,27.503,22.937,27.503,22.937s-31.343-32.174-16.086-27.503c15.256,4.566,31.342,38.298,37.467,47.431
			c6.123,9.133,3.839-9.133,3.839-9.133c-3.839-16.087,6.853-5.397,6.853-5.397l9.133,20.654l21.483,1.557
			c3.008,17.644-6.125,22.937-6.125,22.937c-13.802,3.84-38.296-7.681-38.296-7.681c-0.726,3.84-11.521,9.964-11.521,9.964
			c-9.963-8.408-32.382-16.814-32.382-16.814v-18.371c0,0-33.419,0-43.382,0c-4.566,11.521-26.05,5.397-26.05,5.397l-19.927,18.37
			c3.839,16.812-14.53,19.096-14.53,19.096c-58.12,75.763,13.803,115.512,19.927,118.626c6.123,3.114,35.184-6.85,42.863-11.521
			c7.679-4.566,19.096,8.406,19.096,8.406c6.851-4.563,15.983,0,15.983,0c3.01,2.284-6.02,26.053-6.02,26.053
			c17.645,17.643,10.689,29.06,10.689,39.023c-13.804,15.256-3.113,27.503-3.113,27.503v28.853l0,0
			c21.276-11.52,40.787-26.05,57.809-43.071l0,0c0.415-0.414,0.83-0.829,1.245-1.243"/>
		<path fill="none" stroke="#FFFFFF" stroke-width="3" stroke-miterlimit="10" d="M458.906,445.257
			c0.311-0.829,7.577-22.002,20.342-36.221c0,0,13.804-41.307,36.74-81.057c0,0-12.248-0.727-6.123-9.134
			c5.188-7.16,18.266-22.729,21.796-30.409c0-0.104,0.104-0.104,0.104-0.208"/>
		<path fill="none" stroke="#FFFFFF" stroke-width="3" stroke-miterlimit="10" d="M495.334,288.126c0,0-19.927-68.395,6.85-5.085
			C506.025,299.543,516.61,334.623,495.334,288.126z"/>
	</g>
</g>
<path fill="none" stroke="#FFFFFF" stroke-width="3" stroke-miterlimit="10" d="M132.913,485.839
	c-67.875-40.892-89.879-100.258-89.879-100.258l0,0l-2.076-46.185c7.991-23.249,25.22,0,25.22,0h8.407l19.096,18.162
	c21.381,0.727,34.457,34.457,34.457,34.457c16.813-0.727,58.639,25.22,58.639,25.22c4.256,12.974-15.049,22.937-15.049,22.937
	c4.566,19.927-7.68,29.787-7.68,29.787c-8.408-3.84-18.268,3.113-18.268,3.113C149.727,486.668,133.432,485.839,132.913,485.839
	L132.913,485.839"/>
<path fill="none" stroke="#FFFFFF" stroke-width="3" stroke-miterlimit="10" d="M378.158,31.774c0,0-5.709,15.982-19.511,16.709
	c0,0,5.396,42.864,15.256,20.653c0,0,13.805,0.727,12.974,19.927c8.406,0,14.529,4.566,14.529-15.256c0,0-8.51-18.889,1.454-28.126
	C402.965,45.681,393.727,38.729,378.158,31.774z"/>
<path fill="none" stroke="#FFFFFF" stroke-width="3" stroke-miterlimit="10" d="M240.332,45.266c0,0,7.679,13.284,14.529,10.898
	c6.851-2.386,25.221-8.51,15.257-14.635C252.579,41.426,240.332,45.266,240.332,45.266z"/>
<path fill="none" stroke="#FFFFFF" stroke-width="3" stroke-miterlimit="10" d="M148.793,43.19c0,0-6.435,34.665,14.218,23.144
	c8.407-10.482,12.974-23.767,27.503-29.891c14.531-6.122,17.645-11.521,21.38-12.246c3.841-0.727,17.645-8.926,17.645-8.926
	S178.683,23.783,148.793,43.19z"/>
<path fill="none" stroke="#FFFFFF" stroke-width="3" stroke-miterlimit="10" d="M13.145,246.508L13.145,246.508
	c7.058-4.67,12.143,11.002,12.143,11.002c-0.83-15.153,2.284-20.03,2.284-20.03c15.255-22.21,10.69-27.504,10.69-27.504
	l12.973-20.652c-0.727-10.691,17.539-14.531,17.539-14.531c14.531-4.567,0-24.391,0-24.391
	c-0.726-6.746,24.909-16.191,24.909-16.191l-2.387,15.257c27.192,4.567,11.105-9.963,11.105-9.963v-19.097l-8.407-9.134
	c3.113-19.926-13.805-13.802-13.805-13.802l0,0C80.294,97.472,23.73,143.448,13.145,246.508z"/>
</svg>
