<?xml version="1.0" encoding="utf-8"?>
<!-- Generator: Adobe Illustrator 21.1.0, SVG Export Plug-In . SVG Version: 6.00 Build 0)  -->
<svg version="1.1" id="Layer_1" xmlns="http://www.w3.org/2000/svg" xmlns:xlink="http://www.w3.org/1999/xlink" x="0px" y="0px"
	 viewBox="0 0 595.3 841.9" style="enable-background:new 0 0 595.3 841.9;" xml:space="preserve">
<style type="text/css">
	.st0{fill:none;stroke:#FFFFFF;stroke-width:5;stroke-miterlimit:10;}
	.st1{fill:none;stroke:#FFFFFF;stroke-width:3;stroke-miterlimit:10;}
</style>
<circle class="st0" cx="293.8" cy="420.6" r="250.7"/>
<g id="XMLID_2_">
	<g>
		<path class="st1" d="M544.7,440.1C544.7,440,544.7,440,544.7,440.1c0.1-1.6,0.3-3.5,0.4-5.1c0.2-2.4,0.3-4.9,0.3-7.3
			c0.1-2.4,0.1-4.8,0.1-7.2c0-81.9-40.8-154.2-103.1-197.9l-0.1-0.1c-9.9,8.2,6.9,29.6,6.9,29.6c9.4,31.3-37.6,15.3-37.6,15.3
			c-6.6-36.1-6.5,3-6.5,3l-8.2,0c2.2,8.8-22.9,19.9-22.9,19.9c-18.4-3.7-13.3,6.6-13.3,6.6l9.6,11.8l-0.7,14.7l-29.5-0.7l0.7,36.9
			c21.4,8.1,35.4-5.9,35.4-5.9l0-8.8c6.6-3,19.9-19.2,19.9-19.2l25.1-1.5c31,39.8,26.5,22.1,26.5,22.1s-30.2-31-15.5-26.5
			c14.7,4.4,30.2,36.9,36.1,45.7c5.9,8.8,3.7-8.8,3.7-8.8c-3.7-15.5,6.6-5.2,6.6-5.2l8.8,19.9l20.7,1.5c2.9,17-5.9,22.1-5.9,22.1
			c-13.3,3.7-36.9-7.4-36.9-7.4c-0.7,3.7-11.1,9.6-11.1,9.6c-9.6-8.1-31.2-16.2-31.2-16.2l0-17.7c0,0-32.2,0-41.8,0
			c-4.4,11.1-25.1,5.2-25.1,5.2l-19.2,17.7c3.7,16.2-14,18.4-14,18.4c-56,73,13.3,111.3,19.2,114.3c5.9,3,33.9-6.6,41.3-11.1
			c7.4-4.4,18.4,8.1,18.4,8.1c6.6-4.4,15.4,0,15.4,0c2.9,2.2-5.8,25.1-5.8,25.1c17,17,10.3,28,10.3,37.6c-13.3,14.7-3,26.5-3,26.5
			l0,27.8l0,0c20.5-11.1,39.3-25.1,55.7-41.5l0,0c0.4-0.4,0.8-0.8,1.2-1.2"/>
		<path class="st1" d="M474.6,591.3c0.3-0.8,7.3-21.2,19.6-34.9c0,0,13.3-39.8,35.4-78.1c0,0-11.8-0.7-5.9-8.8
			c5-6.9,17.6-21.9,21-29.3c0-0.1,0.1-0.1,0.1-0.2"/>
		<path class="st1" d="M509.7,439.9c0,0-19.2-65.9,6.6-4.9C520,450.9,530.2,484.7,509.7,439.9z"/>
	</g>
</g>
<path class="st1" d="M160.5,630.4c-65.4-39.4-86.6-96.6-86.6-96.6l0,0l-2-44.5c7.7-22.4,24.3,0,24.3,0l8.1,0l18.4,17.5
	c20.6,0.7,33.2,33.2,33.2,33.2c16.2-0.7,56.5,24.3,56.5,24.3c4.1,12.5-14.5,22.1-14.5,22.1c4.4,19.2-7.4,28.7-7.4,28.7
	c-8.1-3.7-17.6,3-17.6,3C176.7,631.2,161,630.4,160.5,630.4L160.5,630.4"/>
<path class="st1" d="M396.8,192.9c0,0-5.5,15.4-18.8,16.1c0,0,5.2,41.3,14.7,19.9c0,0,13.3,0.7,12.5,19.2c8.1,0,14,4.4,14-14.7
	c0,0-8.2-18.2,1.4-27.1C420.7,206.3,411.8,199.6,396.8,192.9z"/>
<path class="st1" d="M264,205.9c0,0,7.4,12.8,14,10.5c6.6-2.3,24.3-8.2,14.7-14.1C275.8,202.2,264,205.9,264,205.9z"/>
<path class="st1" d="M175.8,203.9c0,0-6.2,33.4,13.7,22.3c8.1-10.1,12.5-22.9,26.5-28.8c14-5.9,17-11.1,20.6-11.8
	c3.7-0.7,17-8.6,17-8.6S204.6,185.2,175.8,203.9z"/>
<path class="st1" d="M45.1,399.8L45.1,399.8c6.8-4.5,11.7,10.6,11.7,10.6C56,395.8,59,391.1,59,391.1c14.7-21.4,10.3-26.5,10.3-26.5
	l12.5-19.9c-0.7-10.3,16.9-14,16.9-14c14-4.4,0-23.5,0-23.5c-0.7-6.5,24-15.6,24-15.6l-2.3,14.7c26.2,4.4,10.7-9.6,10.7-9.6l0-18.4
	l-8.1-8.8c3-19.2-13.3-13.3-13.3-13.3l0,0C109.8,256.2,55.3,300.5,45.1,399.8z"/>
</svg>
