<?xml version="1.0" encoding="utf-8"?>
<!-- Generator: Adobe Illustrator 16.0.0, SVG Export Plug-In . SVG Version: 6.00 Build 0)  -->
<!DOCTYPE svg PUBLIC "-//W3C//DTD SVG 1.1//EN" "http://www.w3.org/Graphics/SVG/1.1/DTD/svg11.dtd">
<svg version="1.1" id="Layer_1" xmlns="http://www.w3.org/2000/svg" xmlns:xlink="http://www.w3.org/1999/xlink" x="0px" y="0px"
	 width="595.279px" height="263px" viewBox="0 0 595.279 263" enable-background="new 0 0 595.279 263" xml:space="preserve">
<g id="Layer_1_1_" display="none">
	<g id="fKTA7L.tif" display="inline">
	</g>
</g>
<g id="Layer_2">
	<path fill="none" stroke="#FFFFFF" stroke-width="3" stroke-linecap="round" stroke-linejoin="round" stroke-miterlimit="10" d="
		M9.433,119.367c0,0,147.522-15.514,168.598-23.547c21.076-8.033,30.1-10.012,30.1-10.012s17.985-6.058,19.593-6.552
		c1.668-0.493,7.23-4.079,7.849-4.325c0.619-0.246,4.759-5.191,5.315-5.994c0.618-0.805,11.187-10.816,18.354-12.237
		c0,0,23.855-10.013,27.317-10.013c3.46,0,21.938-8.098,21.938-8.098s8.653-3.273,12.424-4.572c1.422-0.496,2.843-1.052,4.264-1.67
		c6.428-2.906,22.559-10.074,24.722-10.199c0,0,11.806-8.649,18.294-6.055c0,0,9.147,2.904,11.002,9.579
		c0,0,21.632,3.337,21.197,14.771c0,0-1.669,7.046-4.759,8.962"/>
	<path fill="none" stroke="#FFFFFF" stroke-width="3" stroke-linecap="round" stroke-linejoin="round" stroke-miterlimit="10" d="
		M393.107,50.086c12.608-1.359,31.952,1.174,36.218,1.793c0.618,0.061,1.174,0.123,1.793,0.123c3.771,0.062,17.552,0.309,21.507,0
		c0,0,27.317-2.658,30.407-2.288c0,0,27.872-2.534,34.92-2.409c0.864,0,1.793,0,2.657-0.123l45.857-5.81"/>
	<path fill="none" stroke="#FFFFFF" stroke-width="3" stroke-linecap="round" stroke-linejoin="round" stroke-miterlimit="10" d="
		M395.765,49.407c0,0-21.755,4.018-25.524,2.595c0,0-8.653,6.057-16.503,6.613c0,0-5.748,6.427-7.787,6.736
		c0,0-1.545,2.78-2.595,2.967c0,0,1.36,3.646,0,5.871c0,0,10.383,3.275,10.754,8.838c0,0,6.428,2.781,7.603,5.746
		c0,0,6.241,2.598,6.735,4.513c0,0,5.562,0.864,5.748,2.103"/>
	<path fill="none" stroke="#FFFFFF" stroke-width="3" stroke-linecap="round" stroke-linejoin="round" stroke-miterlimit="10" d="
		M374.195,92.234c0.557,3.339,3.771,8.283,4.39,8.654c0,0-12.918,10.196-22.621,13.41c-9.702,3.214-20.024,11.866-20.024,11.866
		l-20.456,17.243c-1.297,1.111-2.409,2.348-3.213,3.832c-0.619,1.052-1.112,2.286-1.175,3.337c0,0-1.916,1.854-1.545,3.709
		c0.37,1.854,9.022,14.154,10.876,14.587c1.669,0.37,12.919-4.018,18.604-10.261c0.863-0.988,0.863-2.471-0.124-3.397
		c-2.719-2.597-8.157-8.158-10.507-13.782c-0.988-2.41-17.366,9.208-17.366,9.208"/>
	<path fill="none" stroke="#FFFFFF" stroke-width="3" stroke-linecap="round" stroke-linejoin="round" stroke-miterlimit="10" d="
		M322.774,168.378c0,0,6.799,2.534,18.357-2.349c0,0,18.974-7.046,25.276-14.646c0,0,9.766-4.512,11.558-7.292
		c0,0,12.299-7.728,32.693-9.333c0,0,9.519,1.174,10.507,2.163c1.051,1.052,8.097,1.545,10.63,1.298c0,0,21.014,1.051,26.945-1.545
		c0,0,7.416,4.141,9.642,4.449c2.164,0.31,10.136,3.771,15.142,2.164c0,0,15.391,2.534,25.279-7.169c0,0,12.051-0.866,14.274-2.781
		c0,0,15.266,0.989,22.372-0.864c0,0,31.026,6.057,37.206,6.797"/>
	<path fill="none" stroke="#FFFFFF" stroke-width="3" stroke-linecap="round" stroke-linejoin="round" stroke-miterlimit="10" d="
		M487.233,143.595c0,0-9.146,13.845-17.984,17.984c-8.775,4.141-15.636,7.23-15.636,7.23s-9.086,3.397-15.512,1.916
		c0,0,0.864,12.669-4.141,15.635c0,0-4.574,4.267-10.756,4.883c-0.492,0.062-0.927,0.062-1.422,0
		c-3.273-0.186-17.058-0.926-21.196-2.472l-5.132,5.377c-0.926,0.987-2.161,1.606-3.521,1.792
		c-3.895,0.557-14.771,1.176-24.165-0.371c-0.865-0.122-1.669,0.371-1.854,1.236c-0.432,1.669-1.482,4.327-3.894,6.489
		c-0.741,0.679-1.607,1.175-2.535,1.607c-3.15,1.423-12.357,5.686-13.534,5.933c-1.297,0.249-7.54,0.063-10.69,0
		c-0.741,0-1.482,0-2.226,0.124c-3.77,0.433-17.057,1.792-21.631,0c-5.376-2.039-17.428-4.326-17.428-4.326
		s-16.378-3.15-21.879-5.377c0,0-15.514-3.397-28.924-10.013c0,0-11.494-3.709-15.82-7.603c0,0-4.143-2.656-9.209,0.618
		c0,0-4.944,5.935-29.358,6.675c0,0-7.478,1.483-8.774,2.41c-1.359,0.865-17.862,4.76-20.827,4.636c0,0-5.5,1.176-8.035,2.226
		c0,0-96.969,34.425-141.591,43.818"/>
	<path fill="none" stroke="#FFFFFF" stroke-width="3" stroke-linecap="round" stroke-linejoin="round" stroke-miterlimit="10" d="
		M243.11,191.307c0,0-8.219,11.062-1.979,15.204c6.984,4.637,10.26,4.142,12.793,3.338c2.535-0.74,9.024-6.922,11.002-10.442"/>
	<path fill="none" stroke="#FFFFFF" stroke-width="3" stroke-linecap="round" stroke-linejoin="round" stroke-miterlimit="10" d="
		M269.563,226.597c-0.371-0.187-2.843-0.62-4.019-3.833c-1.175-3.275,2.039-8.527,2.039-8.527"/>
	<path fill="none" stroke="#FFFFFF" stroke-width="3" stroke-linecap="round" stroke-linejoin="round" stroke-miterlimit="10" d="
		M314.493,211.578c0,0-11.31,15.08-17.922,11.31c-0.68-0.37-1.297-0.74-1.793-1.111c-2.534-1.668-3.832-4.637-3.399-7.602
		c0.372-2.595,1.112-5.748,2.474-7.602c0,0-8.714,14.895-12.114,19.097c-3.338,4.203-7.478,2.349-11.434,1.175
		c-3.954-1.175-4.265-6.799-4.018-9.271c0.248-2.286,6.86-15.883,6.86-15.883"/>
	<path fill="none" stroke="#FFFFFF" stroke-width="3" stroke-linecap="round" stroke-linejoin="round" stroke-miterlimit="10" d="
		M298.487,223.506c0,0-6.181-0.309-8.282-3.894c-2.101-3.585,2.103-9.519,2.103-9.519"/>
	<path fill="none" stroke="#FFFFFF" stroke-width="3" stroke-linecap="round" stroke-linejoin="round" stroke-miterlimit="10" d="
		M353.802,22.46c0,0,9.951,2.286,13.844,10.567"/>
	<path fill="none" stroke="#FFFFFF" stroke-width="3" stroke-linecap="round" stroke-linejoin="round" stroke-miterlimit="10" d="
		M360.722,20.234c0,0,7.107,2.41,8.405,5.935"/>
	<path fill="none" stroke="#FFFFFF" stroke-width="3" stroke-linecap="round" stroke-linejoin="round" stroke-miterlimit="10" d="
		M370.177,52.002c0,0,3.77-2.658,4.573-4.08"/>
	<path fill="none" stroke="#FFFFFF" stroke-width="3" stroke-linecap="round" stroke-linejoin="round" stroke-miterlimit="10" d="
		M345.889,65.352c0,0,0.434-0.494,0.062-2.41"/>
	<path fill="none" stroke="#FFFFFF" stroke-width="3" stroke-linecap="round" stroke-linejoin="round" stroke-miterlimit="10" d="
		M343.295,68.318c0,0-0.741-1.854-2.162-3.461"/>
	<path fill="none" stroke="#FFFFFF" stroke-width="3" stroke-linecap="round" stroke-linejoin="round" stroke-miterlimit="10" d="
		M343.295,74.189c0,0-14.151-2.35-21.323-1.793"/>
	<path fill="none" stroke="#FFFFFF" stroke-width="3" stroke-linecap="round" stroke-linejoin="round" stroke-miterlimit="10" d="
		M354.049,83.027c0,0-2.904-0.557-3.895-0.494"/>
	<path fill="none" stroke="#FFFFFF" stroke-width="3" stroke-linecap="round" stroke-linejoin="round" stroke-miterlimit="10" d="
		M361.713,88.773"/>
	<path fill="none" stroke="#FFFFFF" stroke-width="3" stroke-linecap="round" stroke-linejoin="round" stroke-miterlimit="10" d="
		M368.447,93.286c-0.679,0.062-1.545,0-1.545,0"/>
	<path fill="none" stroke="#FFFFFF" stroke-width="3" stroke-linecap="round" stroke-linejoin="round" stroke-miterlimit="10" d="
		M378.585,100.95c0,0,7.105-7.787,11.123-8.652"/>
	<path fill="none" stroke="#FFFFFF" stroke-width="3" stroke-linecap="round" stroke-linejoin="round" stroke-miterlimit="10" d="
		M385.01,94.895c0,0,0.865-1.236,0.865-2.66"/>
	<path fill="none" stroke="#FFFFFF" stroke-width="3" stroke-linecap="round" stroke-linejoin="round" stroke-miterlimit="10" d="
		M360.351,139.948c0,0-7.229-11.248-10.197-13.351"/>
	<path fill="none" stroke="#FFFFFF" stroke-width="3" stroke-linecap="round" stroke-linejoin="round" stroke-miterlimit="10" d="
		M360.351,129.133c0,0-2.781-5.934-5.067-7.415"/>
	<path fill="none" stroke="#FFFFFF" stroke-width="3" stroke-linecap="round" stroke-linejoin="round" stroke-miterlimit="10" d="
		M327.472,145.511c0,0,2.225,6.86,6.798,8.22"/>
	<path fill="none" stroke="#FFFFFF" stroke-width="3" stroke-linecap="round" stroke-linejoin="round" stroke-miterlimit="10" d="
		M410.596,134.757c0,0,12.052-3.214,15.205-7.17"/>
	<path fill="none" stroke="#FFFFFF" stroke-width="3" stroke-linecap="round" stroke-linejoin="round" stroke-miterlimit="10" d="
		M424.442,136.055c0,0,12.855-4.883,15.389-10.631"/>
	<path fill="none" stroke="#FFFFFF" stroke-width="3" stroke-linecap="round" stroke-linejoin="round" stroke-miterlimit="10" d="
		M458.681,136.673c0,0,15.265-3.585,21.074-9.086"/>
	<path fill="none" stroke="#FFFFFF" stroke-width="3" stroke-linecap="round" stroke-linejoin="round" stroke-miterlimit="10" d="
		M487.233,125.424c0,0,8.097-2.408,10.878-5.129"/>
	<path fill="none" stroke="#FFFFFF" stroke-width="3" stroke-linecap="round" stroke-linejoin="round" stroke-miterlimit="10" d="
		M438.101,170.727c0,0-25.094-11.373-34.92-17.613c0,0-5.44-0.249-7.107-4.203"/>
	<path fill="none" stroke="#FFFFFF" stroke-width="3" stroke-linecap="round" stroke-linejoin="round" stroke-miterlimit="10" d="
		M447.619,167.574c0,0,4.76-6.306,4.078-14.896"/>
	<path fill="none" stroke="#FFFFFF" stroke-width="3" stroke-linecap="round" stroke-linejoin="round" stroke-miterlimit="10" d="
		M442.982,164.979c0,0,2.967-5.067,3.399-6.799"/>
	
		<line fill="none" stroke="#FFFFFF" stroke-width="3" stroke-linecap="round" stroke-linejoin="round" stroke-miterlimit="10" x1="439.151" y1="162.383" x2="441.747" y2="157.5"/>
	<path fill="none" stroke="#FFFFFF" stroke-width="3" stroke-linecap="round" stroke-linejoin="round" stroke-miterlimit="10" d="
		M435.257,160.652c0,0,1.483-3.709,2.844-4.39"/>
	<path fill="none" stroke="#FFFFFF" stroke-width="3" stroke-linecap="round" stroke-linejoin="round" stroke-miterlimit="10" d="
		M461.587,138.218c-2.781,0.247-4.884,0.804-6.182,1.174c-1.111,0.371-2.286,0.434-3.397,0.187
		c-2.352-0.494-6.366-1.174-8.099-1.174"/>
	<path fill="none" stroke="#FFFFFF" stroke-width="3" stroke-linecap="round" stroke-linejoin="round" stroke-miterlimit="10" d="
		M396.074,151.752c0,0,0.122,5.068,3.276,5.748"/>
	<path fill="none" stroke="#FFFFFF" stroke-width="3" stroke-linecap="round" stroke-linejoin="round" stroke-miterlimit="10" d="
		M400.524,188.773c0,0-12.608-5.07-17.121-8.529"/>
	<path fill="none" stroke="#FFFFFF" stroke-width="3" stroke-linecap="round" stroke-linejoin="round" stroke-miterlimit="10" d="
		M376.481,180.182c0,0,5.996,0.681,6.922,1.483"/>
	<path fill="none" stroke="#FFFFFF" stroke-width="3" stroke-linecap="round" stroke-linejoin="round" stroke-miterlimit="10" d="
		M330.872,207.931c0,0,11.372-0.246,16.625-7.105"/>
	<path fill="none" stroke="#FFFFFF" stroke-width="3" stroke-linecap="round" stroke-linejoin="round" stroke-miterlimit="10" d="
		M380.932,28.146c0,0,2.41,3.15,4.51,3.832c2.104,0.68,10.631,3.522,10.631,3.522"/>
	<path fill="none" stroke="#FFFFFF" stroke-width="3" stroke-linecap="round" stroke-linejoin="round" stroke-miterlimit="10" d="
		M453.552,139.701c0,0,1.297,0.432,2.473,1.358"/>
	<path fill="none" stroke="#FFFFFF" stroke-width="3" stroke-linecap="round" stroke-linejoin="round" stroke-miterlimit="10" d="
		M431.053,180.182c0,0-3.522,6.366-6.181,7.479"/>
</g>
</svg>
