<?xml version="1.0" encoding="utf-8"?>
<!-- Generator: Adobe Illustrator 16.0.0, SVG Export Plug-In . SVG Version: 6.00 Build 0)  -->
<!DOCTYPE svg PUBLIC "-//W3C//DTD SVG 1.1//EN" "http://www.w3.org/Graphics/SVG/1.1/DTD/svg11.dtd">
<svg version="1.1" id="Layer_1" xmlns="http://www.w3.org/2000/svg" xmlns:xlink="http://www.w3.org/1999/xlink" x="0px" y="0px"
	 width="457px" height="168px" viewBox="-8.5 -21 457 168" enable-background="new -8.5 -21 457 168" xml:space="preserve">
<g>
	<g>
		<g>
			<path fill="#FFFFFF" d="M27.453,135.41c-7.938-0.057-13.728-0.108-17.362-0.223c-3.639-0.108-6.118-0.221-7.496-0.385
				c-1.379-0.166-1.875-0.332-1.544-0.496c0.331-0.166,0.496-0.387,0.496-0.553c8.983-0.221,20.284-0.387,33.896-0.496
				c13.67-0.107,28.553-0.221,44.812-0.273c16.261-0.057,33.127-0.11,50.765-0.11c17.583,0,34.671,0,51.263,0
				c16.591,0,31.912,0,46.077,0c14.166,0,25.905,0,35.222-0.056c28.662-0.109,50.931-0.221,66.805-0.273
				c15.874-0.109,26.73-0.222,32.63-0.273c10.363,0,18.575,0.107,24.583,0.22c6.009,0.11,10.969,0.276,14.771,0.44
				c3.805,0.166,7.057,0.387,9.865,0.604c2.757,0.221,6.009,0.438,9.866,0.717c-2.095,0.165-2.536,0.388-1.268,0.717
				c1.212,0.274,4.407,0.496,9.59,0.661c-4.135,0.057-7.275,0.166-9.314,0.389c-2.095,0.22-2.26,0.33-0.496,0.438
				c-8.651,0.059-17.855,0.109-27.725,0.165c-9.866,0-19.567,0.058-29.271,0.058c-9.646,0-18.795,0.055-27.446,0.108
				c-8.602,0.057-16.205,0.108-22.767,0.274c-26.564,0-54.348,0-83.395,0c-28.992,0-56.11,0.056-81.3,0.056
				c-8.984-0.109-19.567-0.165-31.858-0.165c-12.233,0-24.36-0.057-36.269-0.108c-11.905-0.057-22.765-0.223-32.63-0.388
				C38.091,136.127,31.256,135.852,27.453,135.41z"/>
		</g>
		<g>
			<path fill="#FFFFFF" d="M7.5,12c0.055-2.537,0.165-4.354,0.273-5.513c0.11-1.157,0.332-1.929,0.496-2.37
				c0.224-0.441,0.44-0.605,0.661-0.496c0.222,0.11,0.496,0.166,0.718,0.166c0.274,2.866,0.553,6.449,0.719,10.803
				c0.165,4.354,0.272,9.095,0.386,14.275c0.055,5.182,0.108,10.583,0.165,16.15c0,5.622,0,11.079,0,16.314
				c0,5.291,0,10.196,0,14.661c0,4.521,0,8.269,0.056,11.244c0.109,9.148,0.275,16.203,0.387,21.273
				c0.11,5.07,0.274,8.545,0.388,10.418c0,3.309-0.11,5.896-0.275,7.826c-0.166,1.93-0.387,3.473-0.604,4.686
				c-0.224,1.215-0.496,2.262-0.827,3.144c-0.331,0.883-0.606,1.933-0.938,3.144c-0.221-0.66-0.552-0.826-0.938-0.387
				c-0.388,0.387-0.718,1.378-0.882,3.031c-0.058-1.322-0.224-2.312-0.496-2.979c-0.275-0.662-0.496-0.717-0.606-0.166
				c-0.108-2.756-0.165-5.676-0.221-8.816c0-3.143-0.057-6.229-0.057-9.312c0-3.087-0.056-6.01-0.108-8.767
				c-0.056-2.756-0.165-5.183-0.331-7.272c0-8.488,0-17.311,0-26.567c0-9.258-0.056-17.857-0.11-25.906
				c0.109-2.865,0.223-6.228,0.223-10.142c0-3.913,0.107-7.771,0.165-11.575c0.108-3.803,0.273-7.275,0.495-10.417
				C6.508,15.361,6.948,13.211,7.5,12z"/>
		</g>
		<g>
			<path fill="#FFFFFF" d="M420.724,131.938c-0.056,2.535-0.166,4.354-0.276,5.513c-0.106,1.157-0.329,1.931-0.495,2.37
				c-0.221,0.44-0.438,0.604-0.659,0.496c-0.224-0.11-0.496-0.166-0.719-0.166c-0.273-2.865-0.552-6.448-0.717-10.803
				c-0.166-4.354-0.275-9.098-0.386-14.275c-0.056-5.182-0.11-10.583-0.166-16.148c0-5.621,0-11.078,0-16.314
				c0-5.235,0-10.196,0-14.66c0-4.521,0-8.269-0.055-11.244c-0.11-9.149-0.275-16.204-0.388-21.276
				c-0.108-5.07-0.273-8.543-0.387-10.416c0-3.307,0.11-5.897,0.275-7.827c0.165-1.931,0.386-3.474,0.604-4.685
				c0.221-1.213,0.496-2.261,0.826-3.143c0.331-0.882,0.605-1.93,0.938-3.143c0.223,0.662,0.553,0.828,0.938,0.387
				c0.386-0.387,0.717-1.378,0.882-3.031c0.057,1.323,0.222,2.314,0.496,2.977c0.276,0.662,0.496,0.717,0.605,0.166
				c0.108,2.756,0.165,5.677,0.222,8.818c0,3.143,0.055,6.229,0.055,9.314c0,3.087,0.059,6.009,0.11,8.765
				c0.056,2.756,0.166,5.181,0.331,7.276c0,8.487,0,17.307,0,26.566c0,9.261,0.055,17.857,0.108,25.904
				c-0.108,2.865-0.222,6.229-0.222,10.143c0,3.914-0.109,7.771-0.165,11.575c-0.109,3.804-0.275,7.274-0.496,10.417
				C421.771,128.575,421.328,130.725,420.724,131.938z"/>
		</g>
		<g>
			<path fill="#FFFFFF" d="M407.99,10.842c7.938,0.055,13.727,0.109,17.361,0.221c3.636,0.112,6.118,0.221,7.496,0.386
				c1.378,0.166,1.874,0.331,1.543,0.496c-0.331,0.166-0.496,0.386-0.496,0.552c-8.983,0.219-20.283,0.385-33.896,0.495
				c-13.671,0.11-28.554,0.22-44.812,0.275c-16.26,0.055-33.126,0.11-50.765,0.11c-17.583,0-34.669,0-51.261,0s-31.913,0-46.078,0
				s-25.905,0-35.223,0.055c-28.661,0.109-50.931,0.221-66.805,0.275c-15.874,0.109-26.73,0.221-32.63,0.275
				c-10.361,0-18.575-0.109-24.583-0.221c-6.008-0.11-10.969-0.275-14.771-0.441c-3.806-0.165-7.058-0.386-9.865-0.605
				c-2.757-0.221-6.01-0.439-9.866-0.717c2.094-0.166,2.535-0.386,1.269-0.716c-1.213-0.276-4.409-0.496-9.592-0.661
				c4.135-0.056,7.275-0.166,9.315-0.387c2.094-0.221,2.26-0.331,0.496-0.441c8.651-0.055,17.855-0.109,27.725-0.166
				c9.866,0,19.566-0.055,29.27-0.055c9.646,0,18.796-0.055,27.447-0.109c8.602-0.056,16.204-0.11,22.767-0.275
				c26.564,0,54.347,0,83.395,0c28.992,0,56.11-0.055,81.301-0.055c8.983,0.109,19.565,0.166,31.857,0.166
				c12.234,0,24.36,0.055,36.268,0.109c11.905,0.055,22.765,0.221,32.63,0.387C397.354,9.961,404.188,10.4,407.99,10.842z"/>
		</g>
	</g>
	<g>
		<path fill="#FFFFFF" d="M81.184,100.148l3.475-45.196h8.269L89.84,93.427h21.107l-0.494,6.724L81.184,100.148L81.184,100.148z"/>
		<path fill="#FFFFFF" d="M153.279,100.148l-3.748-10.582h-21.99l-5.349,10.582h-8.433l23.921-45.196h6.725l16.866,45.196H153.279z
			 M130.736,83.229h16.535l-6.725-19.347L130.736,83.229z M132.333,42.495h7.661l-0.554,7.276h-7.661L132.333,42.495z
			 M144.073,42.495h7.662l-0.552,7.276h-7.661L144.073,42.495z"/>
		<path fill="#FFFFFF" d="M174.279,99.378c-3.029-0.882-5.729-2.26-8.047-4.022l3.196-5.953c2.314,1.709,4.686,2.924,7.109,3.693
			c2.427,0.771,5.017,1.156,7.883,1.156c3.143,0,5.513-0.551,7.166-1.6c1.65-1.047,2.479-2.534,2.479-4.521
			c0-1.269-0.438-2.313-1.321-3.143c-0.884-0.829-1.983-1.488-3.309-2.039c-1.323-0.554-3.143-1.104-5.4-1.765
			c-3.144-0.938-5.679-1.818-7.661-2.701c-1.983-0.883-3.64-2.148-5.07-3.857c-1.434-1.709-2.149-3.969-2.149-6.669
			s0.719-5.07,2.205-7.109c1.488-2.04,3.583-3.639,6.283-4.74c2.701-1.103,5.896-1.709,9.535-1.709c3.196,0,6.284,0.496,9.149,1.433
			c2.864,0.938,5.234,2.262,7.056,3.97l-3.196,5.953c-1.93-1.544-4.022-2.757-6.339-3.639c-2.26-0.827-4.575-1.268-6.891-1.268
			c-3.087,0-5.457,0.551-7.166,1.708c-1.708,1.158-2.534,2.701-2.534,4.739c0,1.379,0.438,2.48,1.378,3.362
			c0.882,0.882,2.039,1.6,3.417,2.148c1.378,0.551,3.252,1.157,5.622,1.817c3.087,0.883,5.564,1.765,7.497,2.592
			c1.929,0.825,3.582,2.095,4.96,3.691c1.378,1.599,2.04,3.748,2.04,6.339c0,4.189-1.602,7.441-4.797,9.812
			c-3.195,2.368-7.605,3.524-13.282,3.524C180.617,100.701,177.311,100.26,174.279,99.378z"/>
		<path fill="#FFFFFF" d="M270.846,54.952h6.504l-3.527,45.196h-7.221l2.149-27.726l-14.166,27.726h-5.4l-9.812-27.668
			l-2.204,27.668h-7.223l3.475-45.196h6.56l12.68,35.606L270.846,54.952z"/>
		<path fill="#FFFFFF" d="M318.798,61.457h-22.213l-0.991,12.513h20.942l-0.551,6.447h-20.89l-0.992,13.284h22.157l-0.496,6.447
			h-30.147l3.472-45.196h30.148L318.798,61.457z"/>
		<path fill="#FFFFFF" d="M355.838,82.348c0.825,0.938,1.486,2.312,2.039,4.021l4.301,13.779h-8.654l-4.574-15.047
			c-0.439-1.379-1.156-2.371-2.205-2.922c-1.047-0.554-2.479-0.826-4.242-0.826h-7.826l-1.436,18.795h-8.103l3.473-45.197h20.062
			c4.631,0,8.269,1.104,10.804,3.309c2.535,2.205,3.857,5.181,3.857,8.983c0,3.474-0.884,6.339-2.593,8.543
			c-1.708,2.26-4.354,3.748-7.825,4.521C354.02,80.748,355.012,81.409,355.838,82.348z M346.633,75.016
			c5.896,0,8.874-2.425,8.874-7.273c0-4.244-2.592-6.394-7.825-6.394h-11.522l-1.103,13.725h11.575L346.633,75.016L346.633,75.016z"
			/>
	</g>
</g>
</svg>
