<?xml version="1.0" encoding="utf-8"?>
<!-- Generator: Adobe Illustrator 16.0.0, SVG Export Plug-In . SVG Version: 6.00 Build 0)  -->
<!DOCTYPE svg PUBLIC "-//W3C//DTD SVG 1.1//EN" "http://www.w3.org/Graphics/SVG/1.1/DTD/svg11.dtd">
<svg version="1.1" id="Layer_1" xmlns="http://www.w3.org/2000/svg" xmlns:xlink="http://www.w3.org/1999/xlink" x="0px" y="0px"
	 width="451.315px" height="148.688px" viewBox="0 0 451.315 148.688" enable-background="new 0 0 451.315 148.688"
	 xml:space="preserve">
<g>
	<g>
		<path fill="#FFFFFF" d="M33.294,138.726c-7.938-0.056-13.727-0.108-17.362-0.222c-3.639-0.109-6.118-0.221-7.496-0.385
			c-1.379-0.166-1.875-0.332-1.544-0.496c0.331-0.166,0.496-0.387,0.496-0.553c8.984-0.221,20.284-0.387,33.897-0.496
			c13.67-0.108,28.552-0.221,44.812-0.274c16.261-0.056,33.127-0.11,50.765-0.11c17.583,0,34.671,0,51.262,0s31.913,0,46.078,0
			c14.166,0,25.905,0,35.221-0.055c28.662-0.11,50.931-0.221,66.805-0.274c15.874-0.11,26.731-0.222,32.63-0.274
			c10.363,0,18.575,0.108,24.583,0.22c6.009,0.11,10.969,0.276,14.771,0.44c3.804,0.166,7.056,0.387,9.865,0.605
			c2.757,0.221,6.009,0.439,9.866,0.717c-2.095,0.165-2.536,0.387-1.268,0.717c1.212,0.274,4.408,0.496,9.59,0.661
			c-4.134,0.056-7.275,0.166-9.314,0.388c-2.095,0.22-2.26,0.33-0.496,0.438c-8.652,0.058-17.856,0.11-27.725,0.165
			c-9.866,0-19.567,0.057-29.27,0.057c-9.646,0-18.795,0.055-27.447,0.109c-8.601,0.057-16.205,0.109-22.766,0.275
			c-26.565,0-54.348,0-83.395,0c-28.992,0-56.11,0.055-81.3,0.055c-8.984-0.109-19.567-0.165-31.858-0.165
			c-12.234,0-24.361-0.056-36.269-0.108c-11.905-0.057-22.764-0.223-32.63-0.388C43.932,139.443,37.097,139.167,33.294,138.726z"/>
	</g>
	<g>
		<path fill="#FFFFFF" d="M13.341,15.316c0.055-2.537,0.165-4.354,0.274-5.513c0.109-1.157,0.331-1.929,0.495-2.37
			c0.223-0.441,0.44-0.605,0.661-0.496c0.222,0.11,0.496,0.166,0.718,0.166c0.274,2.866,0.552,6.449,0.718,10.803
			c0.165,4.354,0.273,9.095,0.386,14.275c0.055,5.182,0.109,10.583,0.165,16.15c0,5.622,0,11.079,0,16.314
			c0,5.291,0,10.196,0,14.661c0,4.521,0,8.269,0.056,11.244c0.109,9.149,0.275,16.204,0.387,21.274
			c0.11,5.07,0.274,8.545,0.387,10.418c0,3.308-0.11,5.896-0.275,7.826c-0.166,1.93-0.387,3.473-0.604,4.686
			c-0.223,1.214-0.496,2.261-0.827,3.143c-0.331,0.883-0.606,1.932-0.938,3.143c-0.221-0.66-0.552-0.826-0.938-0.386
			c-0.387,0.386-0.718,1.378-0.882,3.031c-0.057-1.322-0.223-2.313-0.496-2.978c-0.275-0.662-0.496-0.717-0.606-0.166
			c-0.109-2.756-0.165-5.676-0.221-8.817c0-3.142-0.056-6.229-0.056-9.313c0-3.086-0.056-6.009-0.109-8.766
			c-0.056-2.756-0.165-5.182-0.331-7.273c0-8.488,0-17.31,0-26.567c0-9.258-0.056-17.857-0.11-25.906
			c0.109-2.865,0.222-6.228,0.222-10.142c0-3.913,0.108-7.771,0.165-11.575c0.109-3.803,0.274-7.275,0.496-10.417
			C12.349,18.677,12.789,16.527,13.341,15.316z"/>
	</g>
	<g>
		<path fill="#FFFFFF" d="M426.564,135.252c-0.056,2.535-0.166,4.354-0.276,5.513c-0.107,1.157-0.329,1.931-0.495,2.37
			c-0.221,0.441-0.439,0.605-0.66,0.496c-0.223-0.11-0.496-0.165-0.718-0.165c-0.274-2.866-0.552-6.449-0.717-10.804
			c-0.166-4.354-0.275-9.097-0.386-14.275c-0.056-5.182-0.11-10.583-0.166-16.148c0-5.621,0-11.078,0-16.314s0-10.197,0-14.661
			c0-4.521,0-8.269-0.055-11.244c-0.11-9.149-0.275-16.204-0.387-21.276c-0.109-5.07-0.274-8.543-0.387-10.416
			c0-3.307,0.11-5.897,0.275-7.827c0.165-1.931,0.386-3.474,0.604-4.685c0.221-1.213,0.496-2.261,0.826-3.143
			c0.331-0.882,0.606-1.93,0.938-3.143c0.222,0.662,0.552,0.828,0.938,0.387c0.386-0.387,0.717-1.378,0.882-3.031
			c0.057,1.323,0.222,2.314,0.496,2.977c0.276,0.662,0.496,0.717,0.606,0.166c0.108,2.756,0.165,5.677,0.221,8.818
			c0,3.143,0.055,6.229,0.055,9.314c0,3.087,0.058,6.009,0.11,8.765c0.056,2.756,0.166,5.181,0.331,7.276c0,8.487,0,17.307,0,26.566
			c0,9.261,0.055,17.858,0.109,25.905c-0.109,2.865-0.222,6.229-0.222,10.142c0,3.914-0.109,7.771-0.165,11.575
			c-0.109,3.804-0.275,7.275-0.496,10.417C427.611,131.891,427.17,134.04,426.564,135.252z"/>
	</g>
	<g>
		<path fill="#FFFFFF" d="M413.831,14.158c7.938,0.055,13.726,0.109,17.361,0.221c3.636,0.112,6.118,0.221,7.496,0.386
			c1.378,0.166,1.874,0.331,1.543,0.496c-0.331,0.166-0.496,0.386-0.496,0.552c-8.983,0.219-20.283,0.385-33.896,0.495
			c-13.671,0.11-28.554,0.22-44.812,0.275c-16.26,0.055-33.126,0.11-50.765,0.11c-17.583,0-34.669,0-51.261,0
			c-16.591,0-31.913,0-46.078,0s-25.905,0-35.222,0.055c-28.661,0.109-50.931,0.221-66.805,0.275
			c-15.874,0.109-26.73,0.221-32.63,0.275c-10.361,0-18.575-0.109-24.583-0.221c-6.008-0.11-10.969-0.275-14.771-0.441
			c-3.806-0.165-7.058-0.386-9.866-0.605c-2.756-0.221-6.009-0.439-9.866-0.717c2.094-0.166,2.535-0.386,1.269-0.716
			c-1.213-0.276-4.409-0.496-9.592-0.661c4.135-0.056,7.275-0.166,9.315-0.387c2.094-0.221,2.26-0.331,0.496-0.441
			c8.652-0.055,17.856-0.109,27.725-0.166c9.866,0,19.566-0.055,29.27-0.055c9.646,0,18.795-0.055,27.447-0.109
			c8.601-0.056,16.204-0.11,22.766-0.275c26.565,0,54.347,0,83.395,0c28.992,0,56.11-0.055,81.301-0.055
			c8.983,0.109,19.565,0.166,31.857,0.166c12.235,0,24.361,0.055,36.268,0.109c11.905,0.055,22.765,0.221,32.63,0.387
			C403.194,13.277,410.028,13.716,413.831,14.158z"/>
	</g>
</g>
<g>
	<path fill="#FFFFFF" d="M87.024,103.464l3.474-45.196h8.269L95.68,96.743h21.108l-0.495,6.724L87.024,103.464L87.024,103.464z"/>
	<path fill="#FFFFFF" d="M159.119,103.464l-3.748-10.582H133.38l-5.348,10.582H119.6l23.921-45.196h6.725l16.866,45.196H159.119z
		 M136.576,86.544h16.535l-6.725-19.347L136.576,86.544z M138.174,45.811h7.661l-0.553,7.276h-7.661L138.174,45.811z
		 M149.913,45.811h7.662l-0.552,7.276h-7.661L149.913,45.811z"/>
	<path fill="#FFFFFF" d="M180.119,102.694c-3.03-0.882-5.73-2.26-8.047-4.022l3.196-5.953c2.314,1.709,4.686,2.923,7.109,3.693
		c2.427,0.771,5.017,1.156,7.883,1.156c3.143,0,5.513-0.551,7.166-1.6c1.651-1.047,2.479-2.534,2.479-4.52
		c0-1.269-0.439-2.314-1.322-3.143s-1.983-1.488-3.308-2.039c-1.323-0.553-3.143-1.104-5.401-1.764
		c-3.143-0.938-5.678-1.819-7.661-2.701c-1.983-0.883-3.639-2.149-5.07-3.858c-1.434-1.709-2.149-3.969-2.149-6.669
		s0.718-5.07,2.205-7.109c1.488-2.04,3.583-3.639,6.283-4.74c2.701-1.103,5.896-1.709,9.535-1.709c3.196,0,6.284,0.496,9.149,1.433
		c2.865,0.938,5.235,2.262,7.056,3.97l-3.196,5.953c-1.93-1.544-4.023-2.757-6.339-3.639c-2.26-0.827-4.575-1.268-6.891-1.268
		c-3.087,0-5.457,0.551-7.166,1.708c-1.708,1.158-2.534,2.701-2.534,4.739c0,1.379,0.439,2.48,1.378,3.362
		c0.882,0.882,2.039,1.6,3.417,2.149c1.378,0.551,3.252,1.157,5.622,1.817c3.087,0.883,5.565,1.765,7.497,2.592
		c1.929,0.825,3.582,2.095,4.96,3.691c1.378,1.599,2.04,3.748,2.04,6.339c0,4.189-1.601,7.441-4.797,9.812
		c-3.195,2.369-7.605,3.525-13.282,3.525C186.458,104.017,183.151,103.576,180.119,102.694z"/>
	<path fill="#FFFFFF" d="M276.687,58.268h6.504l-3.527,45.196h-7.221l2.149-27.725l-14.166,27.725h-5.4l-9.812-27.668l-2.204,27.668
		h-7.222l3.474-45.196h6.56L258.5,93.875L276.687,58.268z"/>
	<path fill="#FFFFFF" d="M324.639,64.773h-22.213l-0.991,12.513h20.943l-0.551,6.447h-20.89l-0.992,13.284h22.157l-0.496,6.447
		h-30.148l3.472-45.196h30.149L324.639,64.773z"/>
	<path fill="#FFFFFF" d="M361.679,85.664c0.826,0.937,1.487,2.312,2.039,4.021l4.301,13.779h-8.654l-4.574-15.047
		c-0.44-1.379-1.157-2.371-2.205-2.922c-1.047-0.553-2.479-0.826-4.243-0.826h-7.826l-1.435,18.795h-8.103l3.473-45.197h20.062
		c4.631,0,8.269,1.104,10.804,3.309c2.535,2.205,3.857,5.181,3.857,8.983c0,3.474-0.883,6.339-2.592,8.543
		c-1.708,2.26-4.354,3.748-7.825,4.521C359.86,84.064,360.853,84.725,361.679,85.664z M352.474,78.332
		c5.896,0,8.874-2.425,8.874-7.274c0-4.244-2.591-6.394-7.825-6.394h-11.521l-1.103,13.725h11.575V78.332L352.474,78.332z"/>
</g>
</svg>
