<?xml version="1.0" encoding="utf-8"?>
<!-- Generator: Adobe Illustrator 21.1.0, SVG Export Plug-In . SVG Version: 6.00 Build 0)  -->
<svg version="1.1" id="Layer_1" xmlns="http://www.w3.org/2000/svg" xmlns:xlink="http://www.w3.org/1999/xlink" x="0px" y="0px"
	 viewBox="0 0 300 300" style="enable-background:new 0 0 300 300;" xml:space="preserve">
<style type="text/css">
	.st0{fill:#333333;}
	.st1{fill:none;stroke:#333333;stroke-width:8.6388;stroke-linecap:round;stroke-linejoin:round;stroke-miterlimit:10;}
</style>
<g>
	<g>
		<path class="st0" d="M212.6,132.6c5.8,0,10.5,4.7,10.5,10.5v66.8c0,5.8-4.7,10.5-10.5,10.5H87.4c-5.8,0-10.5-4.7-10.5-10.5V143
			c0-5.8,4.7-10.5,10.5-10.5H212.6 M212.6,123.9H87.4c-10.6,0-19.1,8.6-19.1,19.1v66.8c0,10.6,8.6,19.1,19.1,19.1h125.3
			c10.6,0,19.1-8.6,19.1-19.1V143C231.7,132.5,223.2,123.9,212.6,123.9L212.6,123.9z"/>
	</g>
	<path class="st1" d="M93,126.1c0-30.4,25.5-55,57-55s57,24.6,57,55"/>
</g>
</svg>
