<?xml version="1.0" encoding="utf-8"?>
<!-- Generator: Adobe Illustrator 16.0.0, SVG Export Plug-In . SVG Version: 6.00 Build 0)  -->
<!DOCTYPE svg PUBLIC "-//W3C//DTD SVG 1.1//EN" "http://www.w3.org/Graphics/SVG/1.1/DTD/svg11.dtd">
<svg version="1.1" id="Layer_1" xmlns="http://www.w3.org/2000/svg" xmlns:xlink="http://www.w3.org/1999/xlink" x="0px" y="0px"
	 width="491px" height="191px" viewBox="53.14 325.445 491 191" enable-background="new 53.14 325.445 491 191"
	 xml:space="preserve">
<g>
	<path fill="#FFFFFF" d="M185.198,387.378c0.11-0.496,0.165-0.882,0.165-1.158c0.056-0.275-0.055-0.606-0.331-0.992
		c0.11-0.496,0.221-0.882,0.331-1.157c0.056-0.276,0.11-0.662,0-1.158c0.275-0.827,0.717-1.543,1.323-2.094s1.212-1.047,1.929-1.433
		s1.434-0.717,2.205-0.992s1.488-0.496,2.149-0.662c0-0.11-0.055-0.165-0.165-0.165s-0.166-0.055-0.11-0.221
		c1.709-0.331,3.417-0.771,5.126-1.378c1.709-0.606,3.473-1.157,5.291-1.598c1.819-0.441,3.638-0.772,5.567-0.882
		c1.929-0.11,3.858,0.11,5.952,0.717c0.11,0.386,0.276,0.716,0.496,1.103c0.221,0.331,0.441,0.661,0.662,0.992
		c0.221,0.331,0.44,0.662,0.661,0.992c0.165,0.331,0.275,0.662,0.331,0.992c0.386,0.331,0.661,0.717,0.937,1.103
		s0.275,0.937,0.11,1.598c-0.331,0.276-0.717,0.496-1.103,0.772c-0.386,0.275-0.771,0.496-1.157,0.716
		c-1.433-0.331-2.866-0.496-4.244-0.386s-2.701,0.221-3.858,0.331c-0.331-0.386-0.771-0.551-1.213-0.551
		c-0.496,0-0.992,0.11-1.488,0.22c-0.495,0.166-1.047,0.276-1.543,0.441c-0.496,0.166-0.992,0.166-1.433,0.11
		c-0.331,0.331-0.827,0.551-1.378,0.661c-0.552,0.11-1.158,0.221-1.819,0.276c-0.055,0.166,0,0.275,0.11,0.331
		s0.11,0.166,0.055,0.386c0.221,0.276,0.496,0.496,0.882,0.606c0.387,0.11,0.772,0.221,1.158,0.331
		c0.386,0.11,0.771,0.221,1.047,0.386c0.331,0.165,0.496,0.441,0.606,0.827c0.551,0.055,1.047,0.166,1.488,0.441
		c0.386,0.275,0.771,0.606,1.047,0.992s0.496,0.771,0.606,1.212s0.165,0.827,0.165,1.158c0.11,0.331,0.276,0.441,0.387,0.386
		c0.165-0.055,0.33,0,0.496,0.221c0.109,0.496,0.44,0.992,0.882,1.488c0.44,0.496,0.826,1.103,1.047,1.709
		c0.055,0.937,0.11,1.819,0.165,2.535c0.056,0.772-0.11,1.489-0.386,2.205c-0.551,1.378-1.322,2.646-2.314,3.748
		c-0.992,1.103-2.15,2.095-3.418,2.922c-1.268,0.826-2.646,1.543-4.023,2.204c-1.433,0.606-2.811,1.103-4.188,1.544
		c-0.11-0.056-0.276-0.056-0.441,0c-0.165,0.055-0.221-0.056-0.11-0.275c-0.275,0.275-0.606,0.386-0.992,0.496
		c-0.386,0.109-0.771,0.109-1.157,0.055c-0.441,0-0.827-0.055-1.268-0.055c-0.441,0-0.827,0-1.268,0.055
		c-0.276-0.275-0.496-0.496-0.662-0.771c-0.165-0.275-0.386-0.552-0.496-0.882c-0.165-0.056-0.22-0.11-0.22-0.331
		c0-0.165-0.056-0.275-0.221-0.275c0-0.11,0-0.221,0.055-0.275c0.056-0.056,0.056-0.11,0.11-0.166c0.11-0.11,0.165-0.165,0.165-0.22
		c0-0.056-0.055-0.11-0.165-0.166c-0.055-0.055-0.165-0.11-0.221-0.165c-0.055-0.055-0.11-0.165-0.055-0.221
		c0.165-0.275,0.221-0.606,0.165-0.992c-0.055-0.386-0.11-0.771-0.11-1.213c-0.055-0.386,0-0.771,0.11-1.157
		s0.386-0.661,0.827-0.937c1.268,0.11,2.535,0.055,3.692-0.166c1.158-0.275,2.261-0.605,3.252-1.047
		c1.048-0.441,1.984-0.938,2.922-1.433c0.937-0.496,1.818-0.992,2.7-1.434c0.11-0.331,0.221-0.606,0.441-0.827
		c0.221-0.221,0.441-0.441,0.661-0.662c0.221-0.22,0.441-0.441,0.606-0.661c0.166-0.221,0.331-0.551,0.441-0.882
		c0.055-0.11,0.055-0.221,0-0.276c-0.056-0.055-0.056-0.11-0.166-0.166c-0.055-0.055-0.11-0.11-0.165-0.165s-0.11-0.166-0.11-0.276
		c-0.11-0.055-0.165-0.055-0.275-0.11c-0.055-0.055-0.165-0.055-0.221-0.055c-0.826-0.386-1.708-0.772-2.591-1.047
		c-0.937-0.275-1.708-0.606-2.314-0.937c-0.386,0.275-0.771,0.331-1.157,0.166c-0.386-0.11-0.827-0.276-1.378-0.386
		c-1.323-0.055-2.591-0.165-3.748-0.386c-1.158-0.165-2.315-0.496-3.418-0.992c-0.055-0.165-0.165-0.331-0.221-0.496
		c-0.109-0.165-0.33-0.165-0.661-0.11c-0.221-0.331-0.44-0.606-0.661-0.882C185.584,388.039,185.364,387.708,185.198,387.378z"/>
	<path fill="#FFFFFF" d="M231.553,382.031c-0.055-0.275-0.11-0.496-0.165-0.661c-0.056-0.221-0.166-0.441-0.276-0.662
		c-0.165-0.386-0.275-0.771-0.44-1.212c-0.165-0.441-0.165-0.937-0.165-1.543c0.055-0.331,0.165-0.551,0.22-0.662
		c0.11-0.165,0.166-0.275,0.276-0.331l0.165-0.827h0.717c0.275,0.055,0.496,0.055,0.771,0.055s0.551,0,0.771,0
		c1.213,0,2.425-0.055,3.693-0.166c1.268-0.11,2.535-0.221,3.857-0.331c1.434-0.166,3.032-0.331,4.686-0.441
		c0.165-0.331,0.275-0.551,0.331-0.662c0.055-0.11,0.11-0.22,0.165-0.331l0.496-0.276c0.717-0.055,1.213,0.055,1.543,0.276
		c0.276,0.22,0.496,0.386,0.662,0.606c0.826-0.055,1.653-0.165,2.535-0.275c0.827-0.11,1.764-0.22,2.646-0.331
		c1.268-0.166,2.535-0.331,3.858-0.496c1.268-0.166,2.535-0.221,3.803-0.221c0.552,0,1.048,0,1.544,0.055s0.937,0.055,1.378,0.166
		l0.551,0.441c0.11,0.22,0.275,0.441,0.496,0.606c0.221,0.165,0.386,0.386,0.662,0.551c0.495,0.386,0.937,0.827,1.378,1.433
		c0.44,0.606,0.605,1.378,0.496,2.536l-0.221,0.496c-0.11,0.11-0.275,0.275-0.496,0.386l-0.496,0.606h-0.496
		c-0.331,0-0.552,0-0.717,0.055s-0.331,0.11-0.551,0.22c-0.11,0.055-0.276,0.11-0.441,0.166s-0.33,0.11-0.496,0.165
		c-0.33-0.055-0.606-0.055-0.826-0.055c-0.166,0-0.387,0-0.662,0c-0.937,0-1.984,0.055-3.086,0.165
		c-1.103,0.11-2.205,0.276-3.197,0.441c-0.771,0.11-1.488,0.166-2.205,0.276c-0.716,0.055-1.322,0.165-1.874,0.22
		c-0.33,0.827-0.606,1.543-0.826,2.205c-0.276,0.606-0.496,1.268-0.827,1.874c-0.275,0.606-0.551,1.268-0.827,1.929
		c-0.275,0.662-0.496,1.378-0.716,2.15c-0.386,0.551-0.717,1.103-0.938,1.653c-0.221,0.551-0.44,1.103-0.606,1.764
		c-0.496,0.551-0.826,1.102-0.992,1.764c-0.22,0.606-0.386,1.158-0.551,1.598l-0.165,0.717c-0.221,0.221-0.331,0.386-0.386,0.496
		c-0.056,0.11-0.11,0.275-0.276,0.44c-0.11,0.387-0.22,0.827-0.386,1.158c-0.055,0.165-0.11,0.33-0.165,0.496
		c-0.055,0.165-0.055,0.33-0.055,0.386c-0.056,0.33-0.166,0.606-0.276,0.826c0,0.166,0,0.386-0.055,0.552
		c-0.056,0.165-0.056,0.386-0.11,0.551c-0.055,0.221-0.11,0.441-0.165,0.606c-0.056,0.165,0,0.331,0.055,0.496
		c0.11,0.11,0.165,0.275,0.275,0.386s0.166,0.275,0.221,0.496c0.056,0.056,0.165,0.11,0.221,0.165
		c0.11,0.056,0.165,0.056,0.221,0.166c0.275,0.221,0.496,0.33,0.716,0.386l0.496,0.551c0.166,1.158,0,2.04-0.496,2.646
		c-0.551,0.717-1.543,1.103-2.866,1.103l-0.661-0.055c-0.221-0.221-0.331-0.386-0.386-0.441c-0.275-0.11-0.496-0.22-0.717-0.33
		c-0.165-0.056-0.386-0.221-0.496-0.441c-0.055-0.055-0.165-0.11-0.22-0.11c-0.11,0-0.166-0.055-0.221-0.11
		c-0.331-0.109-0.552-0.22-0.771-0.33l-0.496-0.275c0.055-0.331,0.055-0.552,0.055-0.662c-0.275-0.33-0.44-0.716-0.606-1.157
		c-0.165-0.386-0.275-0.827-0.33-1.268c-0.11-0.331-0.166-0.661-0.276-0.938c-0.11-0.275-0.22-0.551-0.33-0.771
		c-0.056-2.204,0.165-4.079,0.606-5.566c0.496-1.489,0.991-2.977,1.543-4.41c0.331-0.772,0.606-1.543,0.882-2.315
		c0.275-0.771,0.551-1.598,0.771-2.425l0.496-0.496c0.221-0.166,0.386-0.276,0.441-0.331c0-0.386,0.055-0.827,0.22-1.212
		c0.166-0.386,0.331-0.771,0.496-1.213c0.11-0.275,0.221-0.496,0.331-0.771c0.11-0.275,0.165-0.496,0.221-0.661
		c-0.221,0-0.441,0-0.606,0s-0.331,0.055-0.552,0.055c-0.386,0.11-0.826,0.166-1.157,0.166c-0.275,0-0.496,0-0.606-0.055
		c-0.275,0.11-0.496,0.221-0.716,0.221c-0.221,0-0.441,0-0.662,0h-0.551h-0.551c-0.387,0-0.662,0.055-0.883,0.165
		c-0.44,0-0.716,0-0.826,0s-0.275,0-0.441,0h-0.551h-0.552c-0.275,0-0.551,0-0.826-0.055c-0.331-0.055-0.661-0.165-0.992-0.331
		l-0.331-0.386c-0.165-0.331-0.386-0.551-0.496-0.551l-0.496-0.166v-0.771H231.553z"/>
	<path fill="#FFFFFF" d="M276.696,404.244l0.605-0.496l0.056-0.992c0.771-1.929,1.599-3.748,2.425-5.566
		c0.827-1.764,1.709-3.583,2.646-5.457c0.276-0.606,0.552-1.213,0.882-1.819c0.276-0.606,0.606-1.213,0.883-1.875
		c-0.056-0.11-0.056-0.275-0.056-0.386c0-0.165,0.056-0.331,0.11-0.496c0.441-0.606,0.771-1.212,1.047-1.708
		c0.276-0.496,0.552-1.047,0.772-1.543c0.275-0.606,0.605-1.268,0.937-1.874c0.331-0.606,0.771-1.268,1.268-1.874l0.331-0.496
		l0.496,0.055c0.11-0.055,0.275-0.11,0.386-0.165c0.165-0.055,0.331-0.055,0.551-0.055l0.827,0.165
		c1.047-0.496,1.984-1.157,2.756-2.039s1.599-1.984,2.425-3.252l0.552-0.827l0.771,0.496c0.165,0.11,0.386,0.166,0.771,0.276
		c0.386,0.11,0.717,0.22,1.103,0.331c0.661,0.166,1.323,0.331,1.93,0.551c0.605,0.22,1.102,0.496,1.487,0.827l0.221,0.441
		c0.056,0.331,0.11,0.662,0.166,0.937c0.055,0.276,0.109,0.551,0.165,0.827c0.11,0.662,0.221,1.323,0.331,1.984
		c0.109,0.662,0.165,1.378,0.165,2.15c0.165,0.606,0.33,1.268,0.44,1.929c0.166,0.662,0.276,1.268,0.386,1.929
		c0.166,0.937,0.331,1.819,0.496,2.646c0.166,0.827,0.441,1.653,0.772,2.37c0.33,0,0.496,0,0.551,0.055
		c0.386-0.166,0.826-0.276,1.322-0.276l0.606-0.055l0.166,0.551c0.055,0.11,0.165,0.166,0.22,0.276
		c0.11,0.11,0.221,0.165,0.331,0.275c0.496,0.055,0.882,0.11,1.103,0.331c0.221,0.166,0.44,0.331,0.606,0.496
		c0.055,0.055,0.165,0.11,0.22,0.221c0.11,0.055,0.166,0.11,0.221,0.165l0.827,0.331l-0.496,0.882
		c-0.331,0.661-0.882,1.323-1.599,1.929c-0.717,0.606-1.488,1.158-2.37,1.543c0.055,0.22,0.11,0.44,0.11,0.606
		c0,0.165,0.055,0.386,0.11,0.661c0.11,0.606,0.221,1.268,0.33,1.984c0.11,0.717,0.056,1.378,0,2.095
		c-0.33,0.826-0.661,1.543-1.102,2.204c-0.441,0.661-0.938,1.213-1.543,1.764c-0.606,0.552-1.213,0.938-1.984,1.268
		c-0.771,0.331-1.488,0.496-2.26,0.552c-0.441-0.11-0.772-0.221-0.992-0.331c-0.221-0.11-0.386-0.275-0.552-0.386
		c-0.275-0.165-0.44-0.331-0.606-0.386l-0.605-0.275l0.165-0.717c0.11-0.275,0.11-0.496,0-0.661
		c-0.11-0.166-0.331-0.441-0.661-0.771c-0.11-0.11-0.221-0.221-0.331-0.331s-0.221-0.221-0.331-0.331l-0.937-1.103l1.543-0.44
		c0.938-0.275,1.599-0.552,1.874-0.992c0.331-0.386,0.441-1.103,0.386-2.095c-0.771-0.165-1.433-0.165-1.929-0.055
		s-0.992,0.221-1.544,0.33c-0.716,0.166-1.433,0.331-2.149,0.496c-0.716,0.166-1.433,0.221-2.26,0.221
		c-0.551,0-1.103-0.055-1.709-0.165l-0.496-0.056l-0.165-0.496c0-0.055-0.055-0.109-0.11-0.22c-0.055-0.11-0.165-0.166-0.22-0.221
		c-0.166-0.165-0.331-0.441-0.552-0.771c-0.221-0.331-0.275-0.717-0.165-1.158c-0.221-0.33-0.331-0.716-0.386-1.102
		c-0.11,0.275-0.221,0.496-0.331,0.716c-0.11,0.221-0.165,0.441-0.221,0.662l-0.165,0.606l-0.606,0.109
		c-0.055,0.056-0.11,0.166-0.165,0.276c-0.056,0.109-0.056,0.22,0,0.275l0.165,0.496l-0.496,0.44
		c-0.055,0.11-0.165,0.166-0.221,0.221c-0.11,0.056-0.165,0.11-0.22,0.165c-0.056,0.331-0.166,0.662-0.276,0.992
		c-0.11,0.331-0.22,0.606-0.33,0.938c-0.166,0.496-0.331,0.992-0.441,1.488s-0.221,0.937-0.221,1.433l-0.165,0.606
		c-0.165,0.275-0.331,0.441-0.606,0.551c-0.221,0.11-0.44,0.221-0.661,0.331c-0.331,0.11-0.551,0.275-0.661,0.386l-0.166,0.606
		l-0.716,0.11c-0.386,0.11-0.717,0.165-0.882,0.165c-0.166,0.056-0.387,0.056-0.606,0.056l-0.606-0.056
		c-0.386-0.386-0.661-0.661-0.938-0.882c-0.22-0.221-0.496-0.386-0.826-0.551l-0.276-0.386c-0.109-0.275-0.22-0.496-0.22-0.662
		c-0.056-0.22-0.056-0.44-0.166-0.661c-0.055-0.386-0.165-0.717-0.275-0.826L276.696,404.244z M291.797,391.897
		c-0.44,0.606-0.882,1.268-1.268,1.984c0.221-0.055,0.441-0.055,0.662-0.055c0.22,0,0.44,0,0.661-0.055
		c1.103-0.055,2.149-0.165,3.087-0.22c0.937-0.055,1.983-0.276,3.086-0.496c-0.275-1.158-0.551-2.37-0.826-3.583
		c-0.276-1.212-0.606-2.425-0.992-3.693l-0.221,0.496c-0.771,0.827-1.543,1.764-2.26,2.756
		C292.9,390.079,292.293,391.016,291.797,391.897L291.797,391.897z"/>
	<path fill="#FFFFFF" d="M331.262,404.686c-0.165,0.055-0.275-0.11-0.44-0.331c-0.11-0.275-0.276-0.552-0.441-0.771h0.496
		c-0.221-0.717-0.275-1.323-0.165-1.93s0.221-1.157,0.386-1.708c0.165-0.552,0.275-1.103,0.386-1.599s0.055-1.048-0.165-1.654
		c0.165,0.11,0.275,0.055,0.33-0.11c0.056-0.165,0.166-0.386,0.166-0.661c0.055-0.276,0.055-0.551,0.055-0.827
		c0-0.275-0.055-0.551-0.055-0.716c0.386-0.992,0.716-1.984,0.992-3.032c0.22-1.047,0.44-2.094,0.661-3.086
		c0.165-1.047,0.386-2.04,0.661-2.977c0.221-0.937,0.552-1.874,0.938-2.701c0.44-0.055,0.882,0,1.378,0.166
		c0.496,0.165,0.826,0.386,0.992,0.661c0.992-0.771,1.874-1.653,2.59-2.756c0.772-1.047,1.544-2.149,2.315-3.142
		c0.771-1.047,1.653-1.929,2.646-2.701c0.992-0.772,2.205-1.268,3.638-1.433c0.772,0.551,1.599,1.102,2.536,1.708
		c0.937,0.606,1.708,1.378,2.314,2.315c0.275,0.166,0.496,0.331,0.717,0.496s0.496,0.331,0.717,0.496v0.716
		c0.44,0.386,0.826,0.882,1.102,1.433c0.276,0.551,0.552,1.158,0.827,1.764c0.221,0.606,0.441,1.212,0.661,1.874
		c0.221,0.606,0.496,1.212,0.772,1.764c-0.056,0.166-0.11,0.331-0.056,0.496c0.056,0.166,0.056,0.275,0.11,0.441
		s0.11,0.275,0.11,0.496c0.055,0.165,0.055,0.386,0.055,0.661c-0.11,1.654-0.661,3.032-1.653,4.024
		c-0.937,1.047-2.149,1.874-3.527,2.536c-1.378,0.661-2.812,1.212-4.409,1.653c-1.544,0.441-2.977,0.938-4.189,1.488
		c0,0.11,0.055,0.165,0.221,0.165c0.165,0,0.165,0.11,0.11,0.275c0.937,0.552,1.708,1.048,2.204,1.378
		c0.496,0.331,0.992,0.662,1.488,0.883c0.441,0.22,0.938,0.44,1.544,0.605c0.551,0.166,1.322,0.331,2.314,0.552
		s1.764,0.386,2.315,0.551c0.551,0.166,1.047,0.275,1.488,0.331c0.44,0.055,0.937,0.165,1.433,0.221
		c0.496,0.055,1.157,0.165,2.039,0.22c0.331,0.331,0.606,0.772,0.827,1.213c0.221,0.441,0.386,0.938,0.496,1.434
		s0.11,0.937,0.055,1.322c-0.055,0.441-0.165,0.771-0.386,0.992c0.056,0.11,0.11,0.165,0.276,0.165c0.165,0,0.275,0,0.44,0
		c-0.221,0.166-0.386,0.331-0.551,0.552c-0.166,0.221-0.331,0.44-0.496,0.661c-0.166,0.221-0.331,0.441-0.552,0.606
		s-0.44,0.275-0.771,0.331c-1.157,0.44-2.591,0.44-4.354,0.055s-4.023-1.157-6.779-2.205c-1.378-0.496-2.48-0.937-3.308-1.378
		c-0.826-0.386-1.598-0.826-2.204-1.212s-1.213-0.827-1.764-1.268c-0.552-0.441-1.158-0.992-1.874-1.654
		c-0.11,0.056-0.166,0.11-0.166,0.166c0,0.109-0.055,0.165-0.165,0.165c-0.165,1.268-0.386,2.314-0.717,3.087
		c-0.33,0.771-0.826,1.598-1.433,2.425c-0.496-0.11-0.827-0.055-0.992,0.165c-0.165,0.221-0.386,0.386-0.661,0.496
		c-0.331,0.056-0.552,0.056-0.717,0c-0.165-0.055-0.275-0.165-0.441-0.275c-0.11-0.11-0.275-0.165-0.44-0.275
		c-0.166-0.11-0.386-0.11-0.771-0.11c-0.11-0.275-0.166-0.551-0.276-0.827c-0.11-0.275-0.33-0.386-0.771-0.33
		c0.11-0.275,0.11-0.552,0.11-0.717c-0.055-0.221-0.055-0.386-0.165-0.551c-0.056-0.166-0.11-0.331-0.166-0.552
		C331.152,405.126,331.152,404.905,331.262,404.686z M347.081,383.023c-0.386,0.606-0.882,1.158-1.378,1.654
		s-0.992,0.992-1.488,1.543c-0.496,0.496-0.938,1.103-1.323,1.709c-0.386,0.606-0.661,1.323-0.826,2.205
		c1.322-0.166,2.7-0.551,4.188-1.103c1.434-0.606,2.812-1.157,4.134-1.708c-0.165-1.158-0.551-2.095-1.212-2.811
		C348.514,383.74,347.798,383.244,347.081,383.023z"/>
	<path fill="#FFFFFF" d="M380.318,382.031c-0.055-0.275-0.11-0.496-0.165-0.661c-0.056-0.221-0.166-0.441-0.275-0.662
		c-0.166-0.386-0.276-0.771-0.441-1.212c-0.11-0.441-0.165-0.937-0.165-1.543c0.055-0.331,0.165-0.551,0.22-0.662
		c0.11-0.165,0.166-0.275,0.276-0.331l0.165-0.827h0.717c0.275,0.055,0.496,0.055,0.771,0.055s0.551,0,0.771,0
		c1.213,0,2.426-0.055,3.693-0.166s2.535-0.221,3.858-0.331c1.433-0.166,3.031-0.331,4.685-0.441
		c0.165-0.331,0.275-0.551,0.331-0.662c0.055-0.11,0.11-0.22,0.165-0.331l0.496-0.276c0.717-0.055,1.213,0.055,1.543,0.276
		c0.331,0.22,0.496,0.386,0.662,0.606c0.826-0.055,1.653-0.165,2.535-0.275s1.764-0.22,2.646-0.331
		c1.268-0.166,2.535-0.331,3.858-0.496c1.268-0.166,2.535-0.221,3.804-0.221c0.551,0,1.047,0,1.543,0.055s0.937,0.055,1.378,0.166
		l0.551,0.441c0.11,0.22,0.276,0.441,0.496,0.606c0.221,0.165,0.386,0.386,0.662,0.551c0.496,0.386,0.937,0.827,1.378,1.433
		c0.44,0.551,0.606,1.378,0.496,2.536l-0.221,0.496c-0.11,0.11-0.275,0.275-0.496,0.386l-0.496,0.606h-0.496
		c-0.331,0-0.551,0-0.717,0.055c-0.165,0.055-0.33,0.11-0.551,0.22c-0.11,0.055-0.275,0.11-0.441,0.166
		c-0.165,0.055-0.33,0.11-0.496,0.165c-0.33-0.055-0.606-0.055-0.826-0.055c-0.221,0-0.386,0-0.662,0
		c-0.937,0-1.984,0.055-3.086,0.165c-1.103,0.11-2.205,0.276-3.197,0.441c-0.771,0.11-1.488,0.166-2.205,0.276
		c-0.716,0.055-1.322,0.165-1.874,0.22c-0.33,0.827-0.605,1.543-0.826,2.205c-0.275,0.606-0.496,1.268-0.827,1.874
		c-0.275,0.606-0.551,1.268-0.827,1.929c-0.275,0.662-0.495,1.378-0.716,2.15c-0.386,0.551-0.717,1.103-0.938,1.653
		c-0.275,0.496-0.44,1.103-0.606,1.764c-0.496,0.551-0.826,1.102-0.992,1.764c-0.22,0.606-0.386,1.158-0.551,1.598l-0.165,0.717
		c-0.221,0.221-0.331,0.386-0.386,0.496c-0.056,0.11-0.11,0.275-0.276,0.44c-0.109,0.387-0.22,0.827-0.386,1.158
		c-0.055,0.165-0.11,0.33-0.165,0.496c-0.055,0.165-0.055,0.33-0.055,0.386c-0.056,0.33-0.166,0.606-0.276,0.826
		c0,0.166,0,0.386-0.055,0.552c-0.055,0.165-0.055,0.386-0.11,0.551c-0.055,0.221-0.11,0.441-0.165,0.606
		c-0.056,0.165,0,0.331,0.055,0.496c0.11,0.11,0.166,0.275,0.275,0.386c0.11,0.11,0.166,0.275,0.221,0.496
		c0.056,0.056,0.166,0.11,0.221,0.165c0.11,0.056,0.165,0.056,0.221,0.166c0.275,0.221,0.496,0.33,0.716,0.386l0.496,0.551
		c0.166,1.158,0,2.04-0.496,2.646c-0.551,0.717-1.543,1.103-2.865,1.103l-0.662-0.055c-0.221-0.221-0.33-0.386-0.386-0.441
		c-0.275-0.11-0.496-0.22-0.717-0.33c-0.165-0.056-0.386-0.221-0.496-0.441c-0.055-0.055-0.165-0.11-0.22-0.11
		c-0.11,0-0.166-0.055-0.221-0.11c-0.331-0.109-0.552-0.22-0.771-0.33l-0.496-0.275c0.055-0.331,0.055-0.552,0.055-0.662
		c-0.275-0.33-0.44-0.716-0.606-1.157c-0.165-0.441-0.275-0.827-0.33-1.268c-0.11-0.331-0.166-0.661-0.276-0.938
		c-0.109-0.275-0.22-0.551-0.33-0.771c-0.056-2.204,0.165-4.079,0.606-5.566c0.496-1.489,0.992-2.977,1.543-4.41
		c0.331-0.772,0.606-1.543,0.882-2.315c0.275-0.771,0.551-1.598,0.771-2.425l0.496-0.496c0.221-0.166,0.386-0.276,0.441-0.331
		c0-0.386,0.055-0.827,0.22-1.212c0.166-0.386,0.331-0.771,0.496-1.213c0.11-0.275,0.221-0.496,0.331-0.771
		c0.11-0.275,0.165-0.496,0.221-0.661c-0.221,0-0.441,0-0.606,0s-0.331,0.055-0.551,0.055c-0.386,0.11-0.827,0.166-1.158,0.166
		c-0.275,0-0.496,0-0.605-0.055c-0.276,0.11-0.496,0.221-0.717,0.221s-0.441,0-0.662,0h-0.551h-0.551
		c-0.386,0-0.662,0.055-0.882,0.165c-0.441,0-0.717,0-0.827,0s-0.275,0-0.441,0h-0.551h-0.551c-0.276,0-0.552,0-0.827-0.055
		c-0.331-0.055-0.661-0.165-0.992-0.331l-0.331-0.386c-0.165-0.331-0.386-0.551-0.496-0.551l-0.496-0.166v-0.771H380.318z"/>
	<path fill="#FFFFFF" d="M112.662,440.236c-0.056-0.275-0.11-0.496-0.165-0.661c-0.056-0.221-0.166-0.441-0.276-0.661
		c-0.165-0.386-0.275-0.772-0.44-1.213c-0.11-0.441-0.165-0.938-0.165-1.543c0.055-0.331,0.165-0.552,0.22-0.662
		c0.11-0.165,0.166-0.275,0.276-0.33l0.165-0.827h0.717c0.275,0.055,0.496,0.055,0.771,0.055s0.551,0,0.771,0
		c1.213,0,2.425-0.055,3.693-0.165c1.268-0.11,2.535-0.221,3.857-0.331c1.434-0.165,3.032-0.33,4.686-0.44
		c0.165-0.331,0.275-0.551,0.331-0.661c0.055-0.11,0.109-0.221,0.165-0.331l0.496-0.275c0.717-0.056,1.213,0.055,1.543,0.275
		c0.275,0.221,0.496,0.386,0.662,0.606c0.826-0.056,1.653-0.165,2.535-0.275c0.826-0.11,1.764-0.221,2.646-0.331
		c1.268-0.165,2.535-0.331,3.858-0.496c1.268-0.165,2.535-0.221,3.803-0.221c0.552,0,1.048,0,1.544,0.056
		c0.496,0.055,0.937,0.055,1.378,0.165l0.551,0.441c0.11,0.22,0.275,0.44,0.496,0.605c0.165,0.166,0.386,0.386,0.661,0.552
		c0.496,0.386,0.938,0.826,1.378,1.433c0.441,0.552,0.606,1.378,0.496,2.536l-0.22,0.495c-0.11,0.11-0.276,0.276-0.496,0.387
		l-0.496,0.605h-0.496c-0.331,0-0.552,0-0.717,0.056c-0.165,0.055-0.331,0.11-0.551,0.221c-0.11,0.055-0.276,0.11-0.441,0.165
		s-0.331,0.11-0.496,0.165c-0.331-0.055-0.606-0.055-0.826-0.055c-0.166,0-0.387,0-0.662,0c-0.937,0-1.984,0.055-3.087,0.165
		c-1.102,0.11-2.204,0.275-3.196,0.441c-0.771,0.11-1.488,0.165-2.205,0.275c-0.717,0.055-1.322,0.165-1.874,0.221
		c-0.33,0.826-0.606,1.543-0.826,2.204c-0.276,0.606-0.496,1.269-0.827,1.874c-0.331,0.606-0.551,1.268-0.827,1.93
		c-0.275,0.661-0.496,1.378-0.716,2.149c-0.386,0.551-0.717,1.103-0.938,1.653c-0.275,0.496-0.44,1.103-0.606,1.764
		c-0.496,0.552-0.826,1.103-0.992,1.765c-0.22,0.605-0.386,1.157-0.551,1.598l-0.165,0.717c-0.221,0.221-0.331,0.386-0.387,0.496
		c-0.055,0.11-0.109,0.275-0.275,0.441c-0.11,0.386-0.22,0.826-0.386,1.157c-0.055,0.165-0.11,0.33-0.165,0.496
		c-0.056,0.165-0.056,0.33-0.056,0.386c-0.055,0.331-0.165,0.606-0.275,0.827c0,0.165,0,0.386-0.055,0.551
		c-0.056,0.165-0.056,0.386-0.11,0.551c-0.056,0.221-0.11,0.441-0.165,0.606c-0.056,0.166,0,0.331,0.055,0.496
		c0.11,0.11,0.165,0.275,0.275,0.386s0.166,0.276,0.221,0.496c0.055,0.056,0.165,0.11,0.221,0.166
		c0.11,0.055,0.165,0.055,0.221,0.165c0.275,0.221,0.495,0.331,0.716,0.386l0.496,0.551c0.166,1.158,0,2.04-0.496,2.646
		c-0.551,0.716-1.543,1.102-2.866,1.102l-0.661-0.055c-0.221-0.221-0.331-0.386-0.386-0.441c-0.275-0.109-0.496-0.22-0.717-0.33
		c-0.165-0.056-0.386-0.221-0.496-0.441c-0.055-0.055-0.165-0.11-0.221-0.11c-0.109,0-0.165-0.055-0.22-0.109
		c-0.331-0.11-0.552-0.221-0.771-0.331l-0.496-0.275c0.055-0.331,0.055-0.552,0.055-0.662c-0.275-0.33-0.441-0.716-0.606-1.157
		c-0.165-0.386-0.275-0.826-0.331-1.268c-0.109-0.331-0.165-0.661-0.275-0.937c-0.055-0.276-0.22-0.552-0.33-0.772
		c-0.056-2.204,0.165-4.078,0.605-5.566c0.496-1.488,0.992-2.977,1.544-4.41c0.33-0.771,0.606-1.543,0.882-2.314
		s0.551-1.599,0.771-2.426l0.496-0.496c0.221-0.165,0.386-0.275,0.441-0.33c0-0.386,0.055-0.827,0.22-1.213
		c0.166-0.386,0.331-0.771,0.496-1.213c0.11-0.275,0.221-0.496,0.331-0.771s0.165-0.496,0.221-0.661c-0.221,0-0.441,0-0.606,0
		S123.686,442,123.465,442c-0.386,0.11-0.826,0.166-1.157,0.166c-0.275,0-0.496,0-0.606-0.056c-0.275,0.11-0.496,0.221-0.716,0.221
		c-0.221,0-0.441,0-0.662,0h-0.551h-0.552c-0.386,0-0.661,0.055-0.882,0.165c-0.44,0-0.716,0-0.826,0s-0.275,0-0.441,0h-0.551
		h-0.552c-0.275,0-0.551,0-0.826-0.055c-0.275-0.056-0.662-0.165-0.992-0.331l-0.331-0.386c-0.165-0.33-0.386-0.551-0.496-0.551
		l-0.496-0.166v-0.771H112.662z"/>
	<path fill="#FFFFFF" d="M159.734,465.371c-0.11,0.055-0.165,0-0.165-0.11s-0.056-0.166,0-0.276c0-0.109,0.055-0.165,0.165-0.22
		c0.055-0.056,0.165-0.056,0.331,0c-0.387-0.496-0.662-0.938-0.772-1.378c-0.11-0.387-0.33-0.938-0.661-1.544
		c0.11-0.11,0.165-0.221,0.165-0.386s0.056-0.33,0.11-0.496c0.056-0.165,0.11-0.275,0.166-0.33c0.055-0.056,0.165-0.056,0.33,0.055
		c-0.055-0.331-0.055-0.606,0-0.827c0.056-0.22,0.11-0.44,0.221-0.606c0.055-0.165,0.11-0.386,0.165-0.551
		c0.056-0.165,0-0.386-0.165-0.661c0.606-0.827,0.992-1.709,1.157-2.701c0.166-0.937,0.275-1.818,0.331-2.646
		c0.275-0.275,0.551-0.661,0.717-1.157c0.22-0.496,0.33-0.938,0.44-1.488c0.11-0.496,0.165-0.992,0.165-1.488
		s-0.055-0.882-0.165-1.157c0.056-0.11,0.11-0.221,0.221-0.221s0.221,0,0.386,0c0.221-1.268,0.386-2.646,0.441-4.189
		c0.055-1.543,0.22-3.031,0.496-4.464c0.275-1.434,0.605-2.701,1.157-3.804c0.551-1.103,1.378-1.818,2.535-2.095
		c0.221,0.772,0.496,1.488,0.882,2.095s0.771,1.157,1.157,1.764c0.441,0.552,0.883,1.157,1.323,1.709
		c0.441,0.551,0.827,1.213,1.213,1.874c-0.056,0.717-0.11,1.543-0.221,2.535c-0.11,0.938-0.275,1.93-0.441,2.866
		c-0.165,0.992-0.33,1.93-0.496,2.866c-0.165,0.938-0.33,1.709-0.495,2.315c0.055,0.165,0.165,0.275,0.33,0.33
		c0.165,0.056,0.221,0.221,0.11,0.552c0.938-0.221,1.874-0.441,2.866-0.662c0.992-0.22,1.984-0.386,2.921-0.605
		c0.938-0.221,1.93-0.441,2.866-0.717c0.938-0.275,1.819-0.606,2.646-1.048c0.165-1.543,0.44-3.031,0.716-4.52
		s0.331-2.977,0.11-4.52c0.165-0.165,0.331-0.331,0.496-0.551c0.11-0.221,0.331-0.387,0.552-0.441
		c-0.166-0.717-0.276-1.488-0.221-2.314c0.055-0.827,0.165-1.544,0.386-2.261c0.221-0.716,0.606-1.322,1.047-1.818
		c0.496-0.496,1.048-0.882,1.764-0.992c0.386,0.606,0.772,1.268,1.103,1.929c0.331,0.717,0.606,1.378,0.938,2.095
		c0.33,0.717,0.661,1.378,0.992,2.04c0.386,0.605,0.826,1.157,1.378,1.598c0.11,1.103,0.165,2.26,0.22,3.362
		c0.056,1.157,0.11,2.37,0.166,3.583c-0.275,1.433-0.606,2.811-0.992,4.134s-0.606,2.756-0.771,4.299
		c-0.276,0.276-0.441,0.606-0.606,0.992c-0.166,0.386-0.331,0.772-0.441,1.158c-0.165,0.386-0.33,0.771-0.496,1.157
		c-0.165,0.386-0.44,0.717-0.716,0.937c0.109,0.441,0.165,0.882,0.055,1.269c-0.055,0.386,0,0.882,0.331,1.378
		c0.055,0.991-0.056,1.818-0.331,2.425c-0.275,0.661-0.717,1.213-1.213,1.653c-0.496,0.441-1.103,0.827-1.818,1.103
		c-0.717,0.275-1.323,0.496-2.04,0.717c-0.33-0.166-0.605-0.386-0.882-0.606c-0.275-0.221-0.606-0.331-0.992-0.441l0.221-0.44
		c-0.606-0.606-1.157-1.323-1.653-2.039c-0.441-0.717-0.661-1.544-0.661-2.426c0-0.055,0.055-0.221,0.11-0.661
		c0.055-0.386,0.109-0.827,0.22-1.268c0.056-0.441,0.166-0.882,0.221-1.268c0.055-0.387,0.11-0.606,0.11-0.662
		c-0.882,0.11-1.819,0.275-2.756,0.606c-0.938,0.331-1.874,0.661-2.756,1.047c-0.882,0.387-1.764,0.827-2.536,1.213
		c-0.771,0.441-1.378,0.771-1.874,1.048c0,0.11-0.055,0.386-0.22,0.826c-0.166,0.441-0.331,0.882-0.552,1.378
		c-0.22,0.496-0.44,0.938-0.716,1.323c-0.276,0.386-0.552,0.551-0.827,0.496c0.055,0.165,0.11,0.275,0.165,0.331
		c0.056,0.055,0.056,0.22,0,0.44c-0.551,0.165-0.992,0.386-1.433,0.606c-0.441,0.221-0.882,0.44-1.323,0.661
		c-0.44,0.165-0.937,0.275-1.433,0.221c-0.496,0-1.158-0.221-1.874-0.606c0-0.221-0.11-0.44-0.275-0.606
		c-0.166-0.165-0.387-0.33-0.606-0.44c-0.221-0.11-0.386-0.221-0.552-0.331C159.788,465.536,159.734,465.426,159.734,465.371z"/>
	<path fill="#FFFFFF" d="M212.041,462.891c-0.166,0.055-0.275-0.11-0.441-0.331c-0.11-0.275-0.275-0.551-0.44-0.771h0.496
		c-0.221-0.717-0.276-1.323-0.166-1.93s0.221-1.157,0.386-1.708c0.166-0.552,0.276-1.103,0.387-1.599
		c0.109-0.496,0.055-1.048-0.166-1.653c0.166,0.11,0.275,0.055,0.331-0.11c0.055-0.166,0.165-0.386,0.165-0.662
		c0.056-0.275,0.056-0.551,0.056-0.826s-0.056-0.552-0.056-0.717c0.386-0.992,0.717-1.984,0.992-3.031
		c0.275-1.048,0.441-2.095,0.661-3.087c0.166-1.047,0.387-2.039,0.662-2.977c0.275-0.937,0.551-1.874,0.937-2.7
		c0.441-0.056,0.882,0,1.378,0.165s0.827,0.386,0.992,0.661c0.992-0.771,1.874-1.653,2.591-2.756s1.543-2.149,2.315-3.142
		c0.771-0.992,1.653-1.929,2.646-2.701c0.992-0.771,2.204-1.268,3.638-1.433c0.771,0.551,1.599,1.103,2.535,1.709
		c0.938,0.605,1.709,1.378,2.315,2.314c0.275,0.165,0.496,0.331,0.716,0.496c0.221,0.165,0.496,0.331,0.717,0.496v0.717
		c0.441,0.386,0.827,0.882,1.103,1.433c0.275,0.552,0.551,1.158,0.827,1.764c0.275,0.606,0.44,1.213,0.661,1.874
		c0.221,0.662,0.496,1.213,0.771,1.765c-0.055,0.165-0.11,0.33-0.055,0.496c0.055,0.165,0.055,0.275,0.11,0.44
		c0.055,0.165,0.109,0.275,0.109,0.496c0.056,0.165,0.056,0.386,0.056,0.661c-0.11,1.654-0.661,3.032-1.653,4.024
		c-0.938,1.047-2.15,1.874-3.528,2.535s-2.811,1.213-4.409,1.653c-1.543,0.441-2.977,0.938-4.188,1.488
		c0,0.11,0.055,0.165,0.22,0.165c0.166,0,0.166,0.11,0.11,0.276c0.938,0.551,1.709,1.047,2.205,1.378
		c0.496,0.33,0.992,0.661,1.488,0.882c0.44,0.22,0.937,0.44,1.543,0.605c0.552,0.166,1.323,0.331,2.315,0.552
		s1.764,0.386,2.314,0.551c0.552,0.166,1.048,0.276,1.488,0.331c0.441,0.055,0.938,0.165,1.434,0.221
		c0.496,0.055,1.157,0.165,2.039,0.221c0.331,0.33,0.606,0.771,0.827,1.212c0.22,0.496,0.386,0.938,0.496,1.434
		c0.109,0.496,0.109,0.937,0.055,1.322c-0.055,0.441-0.165,0.771-0.386,0.992c0.055,0.11,0.11,0.166,0.275,0.166s0.275,0,0.441,0
		c-0.221,0.165-0.386,0.33-0.552,0.551c-0.165,0.221-0.33,0.44-0.496,0.661c-0.165,0.221-0.33,0.441-0.551,0.606
		s-0.441,0.275-0.771,0.331c-1.158,0.44-2.591,0.44-4.354,0.055s-4.023-1.157-6.78-2.205c-1.378-0.495-2.479-0.937-3.307-1.378
		c-0.827-0.386-1.599-0.826-2.205-1.212s-1.212-0.827-1.764-1.268c-0.551-0.441-1.157-0.992-1.874-1.654
		c-0.11,0.056-0.165,0.11-0.165,0.166c0,0.11-0.056,0.165-0.165,0.165c-0.166,1.268-0.387,2.315-0.717,3.087
		c-0.331,0.771-0.827,1.599-1.434,2.425c-0.496-0.11-0.826-0.055-0.992,0.165c-0.165,0.166-0.386,0.387-0.661,0.496
		c-0.331,0.056-0.551,0.056-0.717,0c-0.165-0.055-0.275-0.165-0.44-0.275c-0.11-0.11-0.275-0.165-0.441-0.275
		c-0.165-0.11-0.386-0.11-0.771-0.11c-0.11-0.275-0.165-0.551-0.275-0.826c-0.11-0.276-0.331-0.387-0.771-0.331
		c0.11-0.275,0.11-0.552,0.11-0.717c-0.056-0.221-0.056-0.386-0.166-0.551c-0.055-0.166-0.11-0.331-0.165-0.552
		C211.931,463.387,211.931,463.166,212.041,462.891z M227.86,441.229c-0.386,0.606-0.882,1.157-1.378,1.653
		s-0.992,0.992-1.488,1.544c-0.495,0.496-0.937,1.103-1.322,1.708c-0.386,0.606-0.661,1.323-0.827,2.205
		c1.323-0.165,2.701-0.551,4.189-1.103c1.488-0.551,2.811-1.157,4.134-1.708c-0.165-1.158-0.551-2.095-1.213-2.812
		C229.293,442,228.576,441.504,227.86,441.229z"/>
	<path fill="#FFFFFF" d="M260.821,467.521c-0.44-0.276-0.771-0.662-1.047-1.103c-0.275-0.441-0.496-0.938-0.661-1.434
		c-0.166-0.496-0.331-1.047-0.441-1.598c-0.11-0.552-0.221-1.103-0.33-1.599c0-0.441,0.109-0.771,0.275-0.992
		c0.165-0.221,0.386-0.386,0.606-0.606c0.771-0.055,1.433-0.11,2.039-0.165c0.606-0.11,1.157-0.166,1.764-0.276
		c0.551-0.109,1.157-0.165,1.709-0.275c0.551-0.055,1.157-0.11,1.874-0.11c0.496-0.992,0.937-1.929,1.322-2.811
		s0.827-1.764,1.158-2.591c0.165-0.771,0.44-1.543,0.716-2.205c0.276-0.661,0.606-1.322,0.882-1.929
		c0.276-0.606,0.552-1.213,0.772-1.874c0.22-0.606,0.386-1.268,0.44-1.984c0.386-1.103,0.717-2.149,0.992-3.031
		c0.275-0.938,0.551-2.039,0.661-3.362c-1.212,0.165-2.149,0.386-2.866,0.551c-0.716,0.166-1.268,0.331-1.543,0.496
		c-0.606-0.055-1.103-0.165-1.488-0.386s-0.661-0.496-0.882-0.826c-0.221-0.331-0.386-0.662-0.551-1.103
		c-0.166-0.386-0.331-0.827-0.552-1.268c0.11-0.276,0.166-0.717,0.11-1.268c-0.055-0.552-0.275-0.938-0.551-1.213
		c0.275-0.056,0.44-0.275,0.551-0.661c0.11-0.387,0.165-0.662,0.056-0.827c0.551-0.165,1.102-0.275,1.708-0.331
		c0.606-0.055,1.213-0.11,1.764-0.165c0.606-0.056,1.158-0.11,1.709-0.165c0.551-0.056,0.992-0.221,1.378-0.496
		c1.653-0.056,3.362-0.11,5.126-0.166c1.764-0.055,3.418-0.165,4.961-0.22c0.551,0.165,1.213,0.275,1.984,0.275
		s1.488,0.055,2.204,0.165c0.717,0.11,1.378,0.275,1.984,0.606s0.992,0.882,1.213,1.653c0.496,0.056,0.827,0.165,1.047,0.386
		c0.221,0.166,0.386,0.441,0.441,0.662c0.055,0.275,0.11,0.551,0.055,0.882c0,0.33,0,0.661,0,0.992
		c-0.496,0.386-1.157,0.661-1.929,0.937c-0.771,0.221-1.599,0.441-2.535,0.551c-0.938,0.11-1.874,0.221-2.866,0.276
		c-0.992,0.055-1.984,0.11-2.922,0.11c-0.165,1.047-0.44,2.26-0.826,3.692c-0.386,1.378-0.772,2.756-1.213,4.134
		c-0.386,1.323-0.771,2.536-1.047,3.583c-0.276,1.047-0.441,1.764-0.387,2.039c-0.33,0.717-0.551,1.323-0.771,1.874
		c-0.221,0.496-0.386,0.992-0.551,1.434c-0.165,0.44-0.331,0.882-0.496,1.322c-0.165,0.441-0.386,0.882-0.661,1.434h3.196
		c0.056,0.33,0.221,0.606,0.441,0.717c0.22,0.109,0.44,0.22,0.716,0.33c0.276,0.11,0.496,0.221,0.662,0.331
		c0.22,0.165,0.33,0.386,0.33,0.661c0.606,0.165,0.992,0.386,1.158,0.717c0.165,0.33,0.22,0.661,0.11,0.992
		c-0.056,0.386-0.221,0.717-0.496,1.103c-0.276,0.386-0.441,0.716-0.662,0.992c-0.275-0.056-0.551,0-0.826,0.22
		c-0.276,0.221-0.496,0.441-0.717,0.662c-0.938-0.11-1.819-0.166-2.701-0.056s-1.708,0.166-2.48,0.221
		c-0.165,0.055-0.22,0.11-0.165,0.275c0.056,0.166,0,0.221-0.11,0.331c-0.992-0.331-1.984-0.441-3.031-0.386
		c-1.047,0.055-2.095,0.221-3.142,0.44c-1.048,0.221-2.149,0.496-3.252,0.771C263.136,467.135,261.979,467.521,260.821,467.521z"/>
	<path fill="#FFFFFF" d="M306.735,449.166c-0.166-0.882-0.221-1.819-0.166-2.756c0.056-0.938,0.11-1.874,0.11-2.756
		c0-0.827-0.055-1.765-0.165-2.701c-0.11-0.938-0.22-1.874-0.275-2.756c-0.055-0.882-0.11-1.709-0.11-2.426
		c0-0.716,0.11-1.322,0.331-1.708c0.275-0.496,0.551-0.827,0.937-1.103s0.717-0.551,1.103-0.938
		c0.386,0.056,0.771,0.166,1.103,0.331c0.33,0.165,0.606,0.386,0.826,0.661c0.221,0.276,0.386,0.552,0.496,0.827
		s0.11,0.551,0.056,0.827c0.771,0.496,1.433,1.102,1.929,1.929s0.882,1.709,1.158,2.646c0.275,0.938,0.44,1.984,0.551,3.032
		c0.11,1.047,0.221,2.149,0.275,3.196c0.056,1.048,0.165,2.039,0.221,2.977c0.055,0.938,0.221,1.764,0.44,2.425
		c1.378-2.039,2.591-3.803,3.528-5.401c0.937-1.543,1.929-3.087,2.921-4.52c0.992-1.434,2.095-2.921,3.308-4.409
		c1.212-1.488,2.756-3.142,4.685-5.017c0.386,0.056,0.717,0.166,0.938,0.221c0.22,0.11,0.44,0.166,0.661,0.275
		c0.221,0.11,0.44,0.166,0.717,0.221c0.275,0.056,0.605,0.056,1.047,0c0.165,0.386,0.275,0.662,0.331,0.827
		c0.055,0.165,0.165,0.331,0.22,0.496c0.056,0.165,0.166,0.386,0.221,0.606c0.056,0.22,0.221,0.606,0.441,1.157
		c0.11,0.11,0.11,0.275,0.11,0.496s-0.056,0.386-0.056,0.551c-0.055,0.166-0.055,0.276,0,0.386c0,0.11,0.11,0.11,0.331,0
		c-0.11,0.552-0.331,0.992-0.606,1.434c-0.275,0.44-0.386,0.937-0.386,1.543c-0.827,1.158-1.819,2.315-2.866,3.528
		c-1.047,1.212-2.095,2.479-3.142,3.748c-1.048,1.322-2.04,2.646-3.031,4.078c-0.938,1.378-1.765,2.922-2.426,4.465
		c-0.165,0-0.331,0.055-0.44,0.165c-0.11,0.11-0.166,0.221-0.276,0.331c-0.055,0.11-0.165,0.275-0.22,0.386
		c-0.056,0.11-0.221,0.165-0.387,0.165c-0.055,0.992-0.44,1.984-1.102,2.866c-0.662,0.882-1.378,1.654-2.04,2.315
		c0.056,0.275,0.11,0.44,0.11,0.606c0,0.165,0,0.33-0.055,0.496c-0.056,0.165-0.056,0.33-0.056,0.496c0,0.165,0,0.386,0,0.661
		c-0.275,0.771-0.661,1.378-1.102,1.874c-0.441,0.496-0.938,0.882-1.488,1.157c-0.552,0.275-1.103,0.331-1.654,0.331
		c-0.551-0.056-1.102-0.221-1.598-0.606c-0.221-0.11-0.387-0.275-0.552-0.496s-0.331-0.44-0.496-0.661s-0.331-0.386-0.496-0.552
		c-0.165-0.165-0.386-0.275-0.661-0.33c0.055-0.331,0.055-0.662,0-0.992c-0.056-0.331-0.11-0.662-0.221-0.938
		s-0.221-0.496-0.331-0.716c-0.109-0.166-0.275-0.276-0.386-0.276c-0.11-0.771-0.275-1.653-0.496-2.59
		c-0.22-0.938-0.386-1.874-0.605-2.757c-0.221-0.937-0.387-1.818-0.496-2.7c-0.11-0.882-0.166-1.709-0.166-2.48
		c0.056-0.386-0.055-0.717-0.221-0.992C306.9,449.938,306.789,449.552,306.735,449.166z"/>
	<path fill="#FFFFFF" d="M350.113,467.521c-0.44-0.276-0.771-0.662-1.047-1.103c-0.275-0.441-0.496-0.938-0.661-1.434
		c-0.166-0.496-0.331-1.047-0.441-1.598c-0.11-0.552-0.221-1.103-0.331-1.599c0-0.441,0.11-0.771,0.276-0.992
		c0.165-0.221,0.386-0.386,0.605-0.606c0.772-0.055,1.434-0.11,2.04-0.165c0.606-0.11,1.157-0.166,1.764-0.276
		c0.551-0.109,1.157-0.165,1.709-0.275c0.551-0.055,1.157-0.11,1.874-0.11c0.496-0.992,0.937-1.929,1.322-2.811
		s0.827-1.764,1.157-2.591c0.166-0.771,0.441-1.543,0.717-2.205c0.275-0.661,0.606-1.322,0.882-1.929s0.552-1.213,0.771-1.874
		c0.221-0.606,0.386-1.268,0.441-1.984c0.386-1.103,0.717-2.149,0.992-3.031s0.551-2.039,0.661-3.362
		c-1.213,0.165-2.149,0.386-2.866,0.551c-0.717,0.166-1.268,0.331-1.543,0.496c-0.606-0.055-1.103-0.165-1.488-0.386
		s-0.661-0.496-0.882-0.826c-0.221-0.331-0.386-0.662-0.552-1.103c-0.165-0.386-0.33-0.827-0.551-1.268
		c0.11-0.276,0.165-0.717,0.11-1.268c-0.056-0.552-0.275-0.938-0.552-1.213c0.276-0.056,0.441-0.275,0.552-0.661
		c0.11-0.387,0.165-0.662,0.055-0.827c0.552-0.165,1.103-0.275,1.709-0.331c0.606-0.055,1.213-0.11,1.764-0.165
		c0.606-0.056,1.157-0.11,1.709-0.165c0.551-0.056,0.992-0.221,1.378-0.496c1.653-0.056,3.362-0.11,5.126-0.166
		c1.764-0.055,3.417-0.165,4.961-0.22c0.551,0.165,1.212,0.275,1.983,0.275c0.772,0,1.488,0.055,2.205,0.165
		s1.378,0.275,1.984,0.606s0.992,0.882,1.213,1.653c0.496,0.056,0.826,0.165,1.047,0.386c0.221,0.166,0.386,0.441,0.441,0.662
		c0.055,0.275,0.11,0.551,0.055,0.882c0,0.33,0,0.661,0,0.992c-0.496,0.386-1.157,0.661-1.929,0.937
		c-0.772,0.221-1.599,0.441-2.536,0.551c-0.937,0.166-1.874,0.221-2.866,0.276c-0.992,0.055-1.983,0.11-2.921,0.11
		c-0.165,1.047-0.441,2.26-0.827,3.692c-0.386,1.378-0.771,2.756-1.212,4.134c-0.386,1.323-0.771,2.536-1.048,3.583
		c-0.275,1.047-0.44,1.764-0.386,2.039c-0.33,0.717-0.551,1.323-0.771,1.874c-0.221,0.496-0.386,0.992-0.551,1.434
		c-0.166,0.44-0.331,0.882-0.496,1.322c-0.166,0.441-0.387,0.882-0.662,1.434h3.197c0.055,0.33,0.221,0.606,0.44,0.717
		c0.221,0.109,0.441,0.22,0.717,0.33s0.496,0.221,0.661,0.331c0.221,0.165,0.331,0.386,0.331,0.661
		c0.606,0.165,0.992,0.386,1.157,0.717c0.166,0.33,0.221,0.661,0.11,0.992c-0.11,0.33-0.221,0.717-0.496,1.103
		c-0.221,0.386-0.44,0.716-0.661,0.992c-0.275-0.056-0.551,0-0.827,0.22c-0.275,0.221-0.496,0.441-0.716,0.662
		c-0.938-0.11-1.819-0.166-2.701-0.056s-1.709,0.166-2.48,0.221c-0.165,0.055-0.221,0.11-0.165,0.275
		c0.055,0.166,0,0.221-0.11,0.331c-0.992-0.331-1.984-0.441-3.031-0.386c-1.048,0.055-2.095,0.221-3.143,0.44
		c-1.047,0.221-2.149,0.496-3.252,0.771C352.428,467.135,351.215,467.521,350.113,467.521z"/>
	<path fill="#FFFFFF" d="M400.822,462.505c-0.33,0.275-0.496,0.551-0.551,0.991c-0.056,0.387-0.165,0.772-0.221,1.158
		c-0.11,0.386-0.275,0.717-0.496,0.992s-0.661,0.386-1.268,0.33c-0.11,0.166-0.165,0.276-0.055,0.276c0.109,0,0.165,0.165,0.22,0.44
		c-0.44-0.055-0.771-0.055-0.937,0.11c-0.166,0.11-0.441,0.221-0.717,0.275c-0.717-0.221-1.323-0.606-1.819-1.213
		c-0.495-0.605-0.937-1.212-1.268-1.929c-0.33-0.717-0.661-1.378-0.937-2.149c-0.275-0.717-0.552-1.378-0.827-1.874
		c0-0.11,0.056-0.166,0.166-0.166c0.109,0,0.22,0,0.33,0c-0.165-0.33-0.275-0.661-0.33-1.047c-0.056-0.386-0.221-0.717-0.441-0.992
		c0.938-1.984,1.874-4.023,2.921-6.118c1.048-2.095,2.095-4.299,3.143-6.504c1.047-2.205,2.094-4.409,3.196-6.614
		c1.048-2.205,2.095-4.409,3.031-6.559c0.883,0.33,1.765,0.661,2.591,1.102c0.827,0.441,1.599,0.938,2.315,1.488
		c0.716,0.552,1.268,1.213,1.764,1.984c0.496,0.717,0.826,1.599,0.992,2.535c-0.056,0.166-0.166,0.276-0.221,0.166
		s-0.165-0.056-0.221,0.11c0.166,0.165,0.221,0.33,0.275,0.386c0,0.055,0,0.165,0,0.221c-0.055,0.055-0.055,0.165-0.055,0.33
		c0,0.11,0.055,0.275,0.221,0.496c-0.166-0.055-0.275,0-0.331,0.056c-0.055,0.055-0.165,0.109-0.33,0
		c0.165,0.44,0.22,0.771,0.165,1.047c-0.056,0.275-0.165,0.496-0.275,0.661c-0.11,0.221-0.221,0.441-0.331,0.662
		c-0.055,0.22-0.055,0.551,0.055,0.992c-0.109,0-0.22,0-0.275,0.055c-0.055,0.055-0.11,0.11-0.11,0.165
		c-0.055,0.056-0.055,0.11-0.11,0.166c-0.055,0.055-0.109,0.055-0.275,0c0.11,0.826,0.11,1.653,0.11,2.479
		c0,0.827-0.055,1.709-0.11,2.536c-0.055,0.882-0.055,1.764,0,2.7c0.056,0.938,0.166,1.874,0.386,2.866
		c1.378-0.771,2.48-1.818,3.308-3.086c0.826-1.269,1.488-2.646,1.984-4.189s0.882-3.196,1.157-4.961
		c0.275-1.764,0.551-3.582,0.827-5.401c0.33-0.33,0.605-0.771,0.826-1.268s0.386-1.047,0.496-1.543s0.275-1.103,0.441-1.654
		c0.165-0.551,0.33-1.047,0.606-1.488c0.551,0.056,1.047,0.221,1.433,0.496c0.386,0.276,0.771,0.552,1.103,0.883
		c0.33,0.33,0.717,0.661,1.103,0.937s0.826,0.496,1.433,0.551c0.441,0.606,0.827,1.213,1.213,1.819s0.606,1.213,0.771,1.984
		c-0.165,0.33-0.331,0.661-0.44,1.047c-0.11,0.386-0.221,0.771-0.331,1.158c-0.11,0.386-0.275,0.716-0.441,1.047
		c-0.165,0.331-0.44,0.606-0.826,0.827c-0.11,0.937-0.221,1.818-0.441,2.646c-0.165,0.826-0.386,1.653-0.496,2.425
		c-0.165,0.771-0.275,1.599-0.44,2.48c-0.11,0.827-0.166,1.764-0.166,2.812c-0.275,0.937-0.605,1.874-0.937,2.811
		c-0.331,0.938-0.606,1.874-0.771,2.701c-0.606,0.496-1.048,1.047-1.434,1.764c-0.33,0.717-0.717,1.378-1.103,2.095
		c-0.165,0.109-0.275,0.165-0.275,0.055c-0.055-0.055-0.165-0.11-0.44-0.165c0.055,0.275,0,0.44-0.166,0.551
		c-0.165,0.11-0.11,0.331,0,0.661c-0.551,0.276-0.992,0.606-1.433,0.992c-0.441,0.386-0.882,0.772-1.323,1.158
		c-0.496,0.33-1.047,0.551-1.708,0.661c-0.662,0.11-1.488,0-2.536-0.386c-1.543-1.157-2.921-2.426-4.188-3.914
		c-1.213-1.487-2.205-3.252-2.922-5.235c-0.33,0.109-0.551,0.275-0.716,0.605c-0.166,0.331-0.276,0.662-0.441,0.992
		c-0.11,0.331-0.275,0.662-0.386,0.938s-0.331,0.44-0.551,0.44c-0.056,0.276-0.166,0.552-0.331,0.772
		c-0.165,0.22-0.331,0.496-0.496,0.716c-0.165,0.221-0.275,0.496-0.331,0.771C400.656,461.843,400.656,462.174,400.822,462.505z"/>
	<path fill="#FFFFFF" d="M443.428,455.725c0-0.33,0.056-0.661,0.166-0.937s0.11-0.662,0.055-1.103
		c0.992-2.095,2.095-4.023,3.362-5.787c1.268-1.765,2.756-3.362,4.465-4.74c0.275-0.221,0.496-0.441,0.661-0.662
		c0.165-0.22,0.331-0.44,0.496-0.661c0.166-0.221,0.386-0.44,0.606-0.606c0.221-0.165,0.496-0.275,0.827-0.33
		c0.771-0.938,1.764-1.765,2.866-2.536c1.102-0.771,2.26-1.488,3.472-2.204c1.213-0.717,2.426-1.378,3.639-2.15
		c1.212-0.771,2.314-1.543,3.307-2.37c0.331,0.221,0.606,0.276,0.827,0.221c0.22-0.055,0.44-0.11,0.661,0
		c0.275,0.606,0.661,0.992,1.103,1.268c0.44,0.221,0.937,0.496,1.433,0.717s0.938,0.496,1.378,0.827
		c0.441,0.33,0.771,0.771,0.992,1.322c-0.221,0-0.33,0.056-0.33,0.221s0.055,0.331,0.109,0.496c0.056,0.165,0.11,0.386,0.11,0.496
		c0,0.165-0.165,0.221-0.44,0.221c0,0.221,0.11,0.33,0.33,0.33c0.221,0,0.331,0.11,0.331,0.331c0,0.165-0.055,0.331-0.11,0.441
		c-0.055,0.11-0.11,0.275,0,0.551c-0.771,0.496-1.599,0.992-2.535,1.433c-0.938,0.441-1.93,0.938-2.922,1.434
		c-1.047,0.496-2.094,1.047-3.142,1.653c-1.047,0.606-2.094,1.268-3.142,2.04c-1.047,0.771-2.095,1.598-3.142,2.535
		c-1.047,0.937-2.095,1.874-3.031,2.921c-0.992,1.048-1.874,2.095-2.756,3.197c-0.827,1.103-1.599,2.149-2.205,3.196
		c0.055,0.166,0.165,0.276,0.275,0.441c0.11,0.11,0.221,0.275,0.275,0.44c1.213,0.056,2.315,0.056,3.362,0
		c1.048-0.055,2.095,0,3.142,0.221c0.11-0.11,0.221-0.221,0.221-0.386c0.056-0.165,0.11-0.275,0.275-0.331
		c2.15-0.22,4.135-0.551,6.009-1.047s3.748-0.992,5.677-1.488c-0.551-0.221-1.047-0.386-1.543-0.496
		c-0.166-0.165-0.166-0.33,0-0.496c0.22-0.165,0.386-0.275,0.496-0.44c-0.496-0.276-0.938-0.662-1.268-1.158
		c-0.331-0.496-0.552-1.102-0.606-1.874c0.22-0.165,0.33-0.386,0.33-0.661s-0.11-0.44-0.33-0.606c-0.166-0.055-0.276-0.055-0.276,0
		c-0.055,0.056-0.055,0.11-0.055,0.166c0,0.055-0.055,0.109-0.11,0.165c-0.055,0.055-0.11,0.055-0.275,0
		c0.055-0.331,0.11-0.606,0.221-0.827s0.221-0.496,0.275-0.826l3.913-2.591c0.386,0.33,0.938,0.661,1.544,0.992
		c0.605,0.33,1.212,0.717,1.874,1.047c0.661,0.331,1.322,0.717,2.039,1.048c0.717,0.33,1.323,0.716,1.929,1.047
		c0.552,0.275,1.048,0.551,1.488,0.938c0.386,0.386,0.827,0.716,1.158,1.157c0.386,0.386,0.771,0.771,1.157,1.157
		s0.826,0.717,1.378,0.938c-0.056,0.496-0.056,0.937,0.11,1.212c0.11,0.331,0.165,0.717,0.11,1.158
		c-0.606,1.047-1.323,1.983-2.205,2.7s-1.819,1.378-2.866,1.93c-1.047,0.551-2.205,0.992-3.362,1.322
		c-1.213,0.386-2.425,0.717-3.692,1.048c-1.269,0.33-2.536,0.661-3.804,1.047s-2.535,0.771-3.748,1.268
		c-0.551,0-0.992,0-1.378,0.056c-0.386,0.055-0.717,0.055-1.103,0.165c-0.33,0.055-0.716,0.11-1.047,0.165
		c-0.331,0.056-0.717,0.11-1.157,0.166c-0.166-0.056-0.276,0-0.331,0.109c-0.055,0.11-0.11,0.166-0.221,0.221
		c-0.606,0.11-1.213,0.166-1.708,0.166c-0.496,0-0.938,0-1.269,0c-0.44,0-0.882,0.055-1.378,0.165s-0.937,0.165-1.322,0.165
		c-2.866-0.11-5.071-1.157-6.67-3.031c-1.598-1.874-2.48-4.52-2.646-7.827c0.056-0.165,0-0.275-0.11-0.33
		C443.594,455.835,443.484,455.78,443.428,455.725z"/>
</g>
<g>
	<g>
		<path fill="#FFFFFF" d="M91.056,502.631c-8.599-0.056-14.882-0.165-18.851-0.275c-3.913-0.11-6.669-0.276-8.157-0.496
			c-1.488-0.221-2.04-0.386-1.709-0.662c0.386-0.22,0.551-0.44,0.551-0.716c9.756-0.276,22.048-0.496,36.819-0.662
			c14.827-0.165,31.032-0.275,48.67-0.33c17.638-0.056,35.992-0.11,55.118-0.11c19.127,0,37.701,0,55.67,0s34.67,0,50.048,0
			s28.11,0,38.252-0.056c31.142-0.109,55.284-0.275,72.536-0.386s29.048-0.275,35.441-0.386c11.244,0,20.173,0.11,26.732,0.275
			c6.559,0.166,11.905,0.331,16.039,0.606c4.134,0.221,7.662,0.496,10.693,0.771c2.977,0.276,6.559,0.606,10.692,0.938
			c-2.26,0.221-2.7,0.496-1.433,0.882c1.323,0.386,4.795,0.661,10.417,0.827c-4.52,0.055-7.882,0.22-10.142,0.44
			c-2.26,0.275-2.425,0.441-0.551,0.606c-9.37,0.11-19.402,0.165-30.095,0.221c-10.693,0-21.276,0.055-31.748,0.055
			c-10.473,0-20.449,0.056-29.819,0.11c-9.37,0.056-17.638,0.165-24.748,0.331c-28.883,0-59.032,0-90.561,0
			c-31.472,0-60.905,0.055-88.299,0.11c-9.757-0.11-21.276-0.221-34.56-0.221c-13.284,0-26.457-0.11-39.354-0.165
			c-12.953-0.11-24.749-0.276-35.441-0.496C102.575,503.623,95.19,503.182,91.056,502.631z"/>
	</g>
	<g>
		<path fill="#FFFFFF" d="M69.394,343.724c0.056-3.252,0.166-5.622,0.331-7.11s0.331-2.536,0.552-3.087
			c0.22-0.551,0.44-0.771,0.716-0.661c0.275,0.165,0.552,0.22,0.771,0.22c0.331,3.693,0.552,8.323,0.772,13.945
			c0.165,5.622,0.33,11.74,0.386,18.409c0.11,6.669,0.165,13.614,0.165,20.835s0,14.221,0,21.056c0,6.779,0,13.118,0,18.905
			s0,10.638,0.055,14.441c0.166,11.74,0.276,20.89,0.441,27.394s0.275,10.969,0.441,13.394c-0.056,4.244-0.11,7.606-0.331,10.087
			c-0.165,2.48-0.386,4.52-0.661,6.063c-0.276,1.543-0.552,2.921-0.882,4.023c-0.331,1.157-0.662,2.48-1.048,4.023
			c-0.221-0.827-0.551-1.047-0.992-0.551c-0.44,0.496-0.771,1.818-0.992,3.913c-0.055-1.709-0.221-2.977-0.551-3.803
			c-0.275-0.827-0.496-0.938-0.661-0.221c-0.11-3.528-0.166-7.331-0.221-11.354c-0.056-4.023-0.056-8.048-0.056-12.016
			c0-3.969-0.055-7.717-0.11-11.244c-0.055-3.528-0.22-6.67-0.386-9.37c0-10.914,0-22.323,0-34.229
			c0-11.905-0.055-23.039-0.11-33.346c0.166-3.693,0.221-8.047,0.276-13.063c0.055-5.016,0.11-9.977,0.22-14.882
			c0.11-4.905,0.276-9.37,0.552-13.394C68.292,348.078,68.733,345.267,69.394,343.724z"/>
	</g>
	<g>
		<path fill="#FFFFFF" d="M518.115,498.166c-0.056,3.252-0.166,5.622-0.331,7.11s-0.331,2.535-0.551,3.087
			c-0.221,0.551-0.441,0.771-0.717,0.661c-0.275-0.165-0.552-0.221-0.771-0.221c-0.331-3.692-0.552-8.322-0.772-13.944
			c-0.165-5.622-0.33-11.74-0.386-18.41c-0.11-6.669-0.165-13.614-0.165-20.835c0-7.22,0-14.22,0-21.055c0-6.78,0-13.118,0-18.906
			c0-5.787,0-10.638-0.055-14.44c-0.166-11.741-0.276-20.89-0.441-27.394c-0.165-6.504-0.275-10.969-0.44-13.394
			c0.055-4.244,0.109-7.606,0.33-10.086c0.165-2.48,0.386-4.52,0.661-6.063c0.276-1.543,0.552-2.921,0.882-4.024
			c0.331-1.158,0.662-2.48,1.048-4.023c0.221,0.827,0.551,1.047,0.992,0.551c0.44-0.496,0.771-1.819,0.992-3.914
			c0.055,1.708,0.221,2.976,0.551,3.803c0.275,0.827,0.496,0.937,0.661,0.22c0.11,3.528,0.166,7.331,0.221,11.354
			c0.056,4.024,0.056,8.047,0.056,12.016c0,3.968,0.055,7.716,0.11,11.244c0.055,3.527,0.22,6.669,0.386,9.37
			c0,10.913,0,22.323,0,34.229s0.055,23.039,0.11,33.347c-0.166,3.693-0.221,8.047-0.276,13.063
			c-0.055,5.016-0.11,9.976-0.22,14.882c-0.11,4.905-0.276,9.37-0.552,13.394C519.216,493.812,518.72,496.623,518.115,498.166z"/>
	</g>
	<g>
		<path fill="#FFFFFF" d="M504.224,342.181c8.599,0.055,14.882,0.166,18.851,0.275c3.914,0.11,6.67,0.276,8.158,0.496
			c1.488,0.221,2.039,0.386,1.708,0.662c-0.386,0.22-0.551,0.441-0.551,0.716c-9.756,0.276-22.048,0.496-36.819,0.662
			c-14.827,0.166-31.031,0.275-48.67,0.331c-17.638,0.055-35.992,0.11-55.118,0.11s-37.701,0-55.67,0s-34.669,0-50.047,0
			c-15.379,0-28.111,0-38.253,0.055c-31.142,0.11-55.283,0.275-72.536,0.386c-17.252,0.11-29.047,0.276-35.44,0.386
			c-11.244,0-20.174-0.11-26.733-0.275c-6.559-0.166-11.905-0.331-16.039-0.606c-4.134-0.22-7.661-0.496-10.693-0.771
			c-2.976-0.276-6.559-0.606-10.692-0.937c2.26-0.221,2.7-0.496,1.433-0.882c-1.322-0.386-4.795-0.662-10.417-0.827
			c4.52-0.055,7.882-0.22,10.142-0.44c2.26-0.276,2.425-0.441,0.551-0.606c9.37-0.11,19.402-0.166,30.095-0.221
			c10.693,0,21.276-0.055,31.749-0.055s20.448-0.055,29.818-0.11c9.371-0.055,17.639-0.166,24.749-0.331c28.882,0,59.031,0,90.56,0
			c31.473,0,60.905-0.055,88.3-0.11c9.756,0.11,21.275,0.221,34.559,0.221c13.284,0,26.457,0.11,39.355,0.166
			c12.952,0.11,24.748,0.275,35.44,0.496C492.704,341.188,500.09,341.629,504.224,342.181z"/>
	</g>
</g>
</svg>
