<?xml version="1.0" encoding="utf-8"?>
<!-- Generator: Adobe Illustrator 16.0.0, SVG Export Plug-In . SVG Version: 6.00 Build 0)  -->
<!DOCTYPE svg PUBLIC "-//W3C//DTD SVG 1.1//EN" "http://www.w3.org/Graphics/SVG/1.1/DTD/svg11.dtd">
<svg version="1.1" id="Layer_1" xmlns="http://www.w3.org/2000/svg" xmlns:xlink="http://www.w3.org/1999/xlink" x="0px" y="0px"
	 width="441px" height="163px" viewBox="78.14 338.445 441 163" enable-background="new 78.14 338.445 441 163"
	 xml:space="preserve">
<g>
	<g>
		<path fill="#D4A453" d="M107.371,493.646c-7.938-0.055-13.725-0.11-17.362-0.221c-3.639-0.11-6.118-0.275-7.496-0.44
			c-1.379-0.166-1.875-0.386-1.544-0.552c0.331-0.221,0.496-0.44,0.496-0.606c8.984-0.275,20.284-0.44,33.898-0.605
			c13.669-0.166,28.551-0.221,44.811-0.331c16.261-0.055,33.127-0.11,50.765-0.11c17.583,0,34.67,0,51.26,0
			c16.591,0,31.914,0,46.079,0c14.166,0,25.906,0,35.221-0.055c28.662-0.11,50.93-0.221,66.804-0.331s26.732-0.221,32.63-0.331
			c10.363,0,18.575,0.11,24.583,0.221c6.009,0.165,10.969,0.331,14.772,0.496c3.803,0.221,7.055,0.441,9.866,0.717
			c2.756,0.275,6.008,0.551,9.866,0.826c-2.095,0.166-2.536,0.441-1.268,0.772c1.212,0.33,4.409,0.605,9.59,0.771
			c-4.134,0.055-7.275,0.165-9.314,0.44c-2.095,0.221-2.26,0.386-0.496,0.496c-8.654,0.11-17.858,0.166-27.725,0.166
			s-19.567,0.055-29.269,0.055c-9.646,0-18.795,0.056-27.448,0.11c-8.599,0.055-16.205,0.165-22.765,0.275
			c-26.566,0-54.347,0-83.394,0c-28.992,0-56.111,0.056-81.3,0.11c-8.984-0.11-19.567-0.165-31.858-0.221
			c-12.236,0-24.363-0.055-36.269-0.165c-11.905-0.055-22.764-0.221-32.63-0.441C118.009,494.474,111.174,494.143,107.371,493.646z"
			/>
	</g>
	<g>
		<path fill="#D4A453" d="M87.418,352.212c0.055-2.921,0.165-5.016,0.275-6.339s0.331-2.26,0.496-2.756
			c0.221-0.496,0.44-0.716,0.661-0.551c0.221,0.11,0.496,0.166,0.717,0.166c0.275,3.307,0.551,7.386,0.717,12.401
			c0.165,4.961,0.275,10.417,0.386,16.371c0.055,5.953,0.11,12.126,0.165,18.52c0,6.449,0,12.678,0,18.74c0,6.063,0,11.686,0,16.812
			c0,5.181,0,9.48,0.056,12.843c0.109,10.473,0.275,18.63,0.386,24.417c0.11,5.788,0.275,9.756,0.386,11.906
			c0,3.803-0.11,6.779-0.275,8.983c-0.166,2.205-0.387,4.024-0.606,5.402c-0.221,1.378-0.496,2.59-0.827,3.582
			s-0.606,2.205-0.937,3.583c-0.221-0.771-0.552-0.937-0.938-0.496c-0.386,0.441-0.717,1.599-0.882,3.473
			c-0.055-1.488-0.221-2.646-0.496-3.417c-0.275-0.772-0.496-0.827-0.606-0.166c-0.11-3.142-0.165-6.504-0.221-10.142
			c0-3.583-0.055-7.165-0.055-10.693c0-3.527-0.055-6.89-0.11-10.031c-0.055-3.142-0.165-5.953-0.331-8.323c0-9.7,0-19.843,0-30.48
			c0-10.582-0.055-20.504-0.109-29.708c0.109-3.252,0.22-7.166,0.22-11.63c0-4.464,0.11-8.874,0.166-13.228
			c0.11-4.354,0.275-8.323,0.496-11.906C86.426,356.07,86.866,353.59,87.418,352.212z"/>
	</g>
	<g>
		<path fill="#D4A453" d="M500.642,489.678c-0.056,2.922-0.166,5.016-0.276,6.339c-0.109,1.323-0.33,2.26-0.496,2.756
			c-0.22,0.496-0.44,0.717-0.661,0.551c-0.221-0.109-0.496-0.165-0.717-0.165c-0.275-3.307-0.551-7.386-0.716-12.401
			c-0.166-4.961-0.276-10.418-0.386-16.37c-0.056-5.953-0.11-12.126-0.166-18.521c0-6.448,0-12.677,0-18.74
			c0-6.062,0-11.685,0-16.811c0-5.182,0-9.48-0.055-12.843c-0.11-10.473-0.275-18.63-0.386-24.417
			c-0.11-5.788-0.275-9.756-0.386-11.906c0-3.803,0.11-6.78,0.275-8.984s0.386-4.023,0.606-5.401
			c0.22-1.378,0.496-2.591,0.826-3.583c0.331-0.992,0.606-2.205,0.938-3.583c0.221,0.771,0.551,0.937,0.937,0.496
			s0.717-1.599,0.882-3.473c0.056,1.488,0.221,2.646,0.496,3.417c0.276,0.771,0.496,0.827,0.606,0.165
			c0.11,3.142,0.165,6.504,0.221,10.142c0,3.583,0.055,7.166,0.055,10.693c0,3.528,0.056,6.89,0.11,10.032
			c0.056,3.142,0.166,5.953,0.331,8.323c0,9.701,0,19.843,0,30.48c0,10.583,0.055,20.504,0.11,29.709
			c-0.11,3.252-0.221,7.165-0.221,11.63s-0.11,8.874-0.165,13.229c-0.11,4.354-0.276,8.323-0.496,11.906
			C501.689,485.819,501.248,488.3,500.642,489.678z"/>
	</g>
	<g>
		<path fill="#D4A453" d="M487.909,350.89c7.937,0.055,13.725,0.11,17.362,0.22s6.118,0.275,7.496,0.441s1.874,0.386,1.543,0.551
			c-0.331,0.22-0.496,0.441-0.496,0.606c-8.984,0.275-20.283,0.441-33.897,0.606c-13.67,0.166-28.552,0.221-44.812,0.331
			c-16.26,0.055-33.126,0.11-50.765,0.11c-17.583,0-34.669,0-51.26,0s-31.914,0-46.079,0s-25.905,0-35.221,0.055
			c-28.662,0.11-50.93,0.221-66.804,0.331c-15.874,0.11-26.732,0.22-32.63,0.331c-10.362,0-18.575-0.11-24.583-0.221
			c-6.008-0.165-10.969-0.331-14.771-0.496c-3.804-0.22-7.056-0.441-9.866-0.716c-2.756-0.275-6.009-0.551-9.866-0.827
			c2.094-0.166,2.535-0.441,1.268-0.772c-1.213-0.331-4.41-0.606-9.591-0.771c4.134-0.055,7.275-0.166,9.315-0.441
			c2.094-0.221,2.26-0.386,0.496-0.496c8.653-0.11,17.858-0.166,27.725-0.166s19.566-0.055,29.268-0.055
			c9.646,0,18.795-0.055,27.449-0.11c8.599-0.055,16.204-0.166,22.764-0.276c26.567,0,54.347,0,83.395,0
			c28.992,0,56.11-0.055,81.3-0.11c8.984,0.11,19.566,0.165,31.858,0.22c12.236,0,24.362,0.055,36.268,0.166
			c11.905,0.055,22.764,0.22,32.63,0.441C477.272,350.007,484.106,350.338,487.909,350.89z"/>
	</g>
</g>
<g>
	<path fill="#D4A453" d="M151.796,443.544l3.032-38.418h-14.772l0.496-6.779h37.757l-0.496,6.725h-14.717l-3.031,38.417h-8.269
		V443.544z"/>
	<path fill="#D4A453" d="M182.057,443.544l3.472-45.143h8.158l-3.527,45.143H182.057z"/>
	<path fill="#D4A453" d="M201.513,443.544l3.473-45.143h8.268l-3.086,38.418h21.11l-0.496,6.725H201.513z"/>
	<path fill="#D4A453" d="M238.553,443.544l3.473-45.143h8.268l-3.087,38.418h21.11l-0.496,6.725H238.553z"/>
	<path fill="#D4A453" d="M310.593,424.031c1.268,1.819,1.929,3.969,1.929,6.505c0,4.078-1.433,7.275-4.299,9.535
		s-6.779,3.417-11.795,3.417h-20.835l3.472-45.142h19.237c4.795,0,8.487,0.992,11.023,3.031c2.535,1.984,3.803,4.74,3.803,8.213
		c0,5.236-2.701,8.818-8.047,10.803C307.451,421,309.325,422.213,310.593,424.031z M302.601,435.496
		c1.433-1.103,2.205-2.866,2.205-5.291c0-2.149-0.662-3.748-1.984-4.795c-1.323-1.048-3.362-1.599-6.229-1.599h-11.465
		l-1.103,13.394h11.796C298.907,437.205,301.167,436.599,302.601,435.496z M286.671,404.686l-0.992,12.677h10.639
		c2.976,0,5.181-0.551,6.669-1.653s2.205-2.812,2.205-5.071c0-3.969-2.701-5.952-8.103-5.952H286.671z"/>
	<path fill="#D4A453" d="M355.239,443.544l-3.748-10.583h-21.992l-5.347,10.583h-8.433l23.921-45.143h6.725l16.866,45.143H355.239z
		 M332.696,426.567h16.535l-6.779-19.347L332.696,426.567z"/>
	<path fill="#D4A453" d="M411.405,398.347l-23.535,22.047l21.055,23.15h-9.701l-19.677-21.11l-1.653,21.11h-8.158l3.473-45.143
		h8.268l-1.598,20.174l21.386-20.229H411.405z"/>
	<path fill="#D4A453" d="M447.232,443.544l-3.748-10.583h-21.992l-5.347,10.583h-8.434l23.922-45.143h6.725l16.866,45.143H447.232z
		 M424.688,426.567h16.536l-6.779-19.347L424.688,426.567z"/>
</g>
</svg>
